<svg id="Layer_1" data-name="Layer 1" xmlns="http://www.w3.org/2000/svg" viewBox="0 0 500 500"><defs><style>.cls-1{fill:#ff8b87;}</style></defs><title>Untitled-1</title><path class="cls-1" d="M496,132.06H455.17A116.09,116.09,0,0,0,258.58,69L4,323.57H182.86a163.91,163.91,0,0,0,115.7-47.93l33.37-33.37-11.11-11.11,11.11,11.11a62.37,62.37,0,0,0-88.2-88.21l18.52,18.52a36.18,36.18,0,1,1,51.17,51.17h0l-33.37,33.37a138.5,138.5,0,0,1-70.88,37.67l86.39-86.39a13.09,13.09,0,1,0-18.51-18.52l-107.5,107.5h-32.1l124.8-124.8-18.52-18.52L100.41,297.38H67.22L277.1,87.5A89.87,89.87,0,1,1,404.2,214.6l-178,178,46.17,46.18h-32V465H420V438.77H382.37l-63.53-63.54-18.52,18.52,45,45H309.42l-46.17-46.18L422.72,233.12a115.2,115.2,0,0,0,33.77-74.88H496Z"/><path class="cls-1" d="M391.38,125.82a17.84,17.84,0,1,0-17.84,17.84A17.86,17.86,0,0,0,391.38,125.82Z"/></svg>