<?xml version="1.0" encoding="utf-8"?>
<!-- Generator: Adobe Illustrator 24.0.1, SVG Export Plug-In . SVG Version: 6.00 Build 0)  -->
<svg version="1.1" id="Layer_1" xmlns="http://www.w3.org/2000/svg" xmlns:xlink="http://www.w3.org/1999/xlink" x="0px" y="0px"
	 viewBox="0 0 100 100" style="enable-background:new 0 0 100 100;" xml:space="preserve">
<style type="text/css">
	.st0{fill:#471B17;}
	.st1{fill:#502826;}
	.st2{fill:#FB6D5D;}
	.st3{fill:#1F958E;}
	.st4{fill:#F96E5E;}
	.st5{fill:#C3493C;}
	.st6{fill:#8D6850;}
	.st7{fill:#2DBFB4;}
	.st8{fill:#C14A3D;}
	.st9{fill:#F1C057;}
	.st10{fill:#C08048;}
	.st11{fill:#F36E5F;}
	.st12{fill:#C3987E;}
	.st13{fill:#FEFEFE;}
	.st14{fill:#EAE0DA;}
</style>
<g>
	<path class="st0" d="M68.76,79.49c-0.55-0.02-0.54,0.5-0.77,0.78c-0.49-0.6-1.02-0.7-1.53-0.06c-0.28,0.35-0.41,0.84-0.74,1.13
		c-0.51,0.45-0.9,1.22-1.8,0.92c-0.26-0.46,1.05-1.59-0.55-1.46c-2.94,0.23-5.7-0.53-8.42-1.43c-1.05-0.34-1.97-0.25-2.93,0.17
		c-1.93,0.85-3.76,1.92-5.59,2.96c-2.71,1.54-5.39,3.14-8.48,3.87c-4.33,1.02-8.69,0.95-13.08,0.52c-0.8-0.08-1.59-0.18-2.39-0.24
		c-0.66-0.05-0.56,0.18-0.15,0.48c0.19,0.41,0.56,0.62,0.91,0.85c5.13,3.33,10.81,4.58,16.84,4.25c4.19-0.23,7.59-2.04,9.93-5.62
		c0.13-0.16,0.26-0.32,0.4-0.47c0.18-0.22,0.32-0.59,0.67-0.4c0.31,0.16,0.17,0.53,0.14,0.8c-0.02,0.21-0.13,0.4-0.17,0.6
		c-0.54,2.76-1.87,5.19-3.28,7.58c0.51,0.61,0.99,0.05,1.4-0.11c2.19-0.85,4.34-1.78,6.38-2.96c0.57,0.13,1.15,0.24,1.72,0.38
		c1.26,0.3,2.02-0.28,2.12-1.57c0.04-0.57-0.16-1.08-0.3-1.6c0.33-0.35,0.65-0.69,0.98-1.04c0.6-0.03,0.83,0.7,1.53,0.72
		c0.11-0.7-0.4-1.18-0.56-1.75l0-0.06c0.43,0.15,1.05-0.15,1.26,0.55c0.06,0.19,0.29,0.34,0.51,0.16c0.19-0.16,0.08-0.38,0-0.58
		c-0.16-0.41-0.53-0.79-0.24-1.39c0.45,0.27,0.82,0.69,1.42,0.65c0.65-0.05,1.13-0.5,0.89-0.93c-0.76-1.33,0.26-0.83,0.79-0.89
		c0.25-0.03,0.49-0.12,0.73-0.19c-2.86,5.79-7.48,9.69-13.24,12.36c-3.62,1.69-7.47,2.64-11.41,3.22c-0.85,0.13-1.52-0.13-1.87-0.93
		c-0.36-0.81-0.07-1.47,0.6-2c0.75-0.6,1.48-1.22,2.15-2.08c-0.89,0.06-1.78,0.12-2.67,0.18c-5.82,0.34-11.47-0.19-16.69-3.08
		c-2.82-1.56-5.09-3.74-6.92-6.38c-0.49-0.7-0.81-1.41-0.24-2.21c0.56-0.8,1.34-0.72,2.17-0.55c5.27,1.1,10.57,1.8,15.97,1.18
		c3.46-0.4,6.71-1.31,9.14-4.07c-0.24-0.4-0.62-0.19-0.91-0.19c-5.32-0.02-10.65-0.09-15.97,0.02c-2.4,0.05-4.04-0.95-5.22-2.9
		c-1.25-2.05-1.74-4.29-1.44-6.68c0.34-2.71,2.03-4.21,4.7-4.21c1.65,0,3.29,0.03,4.94,0.05c0.04,0.21,0.08,0.39,0.35,0.46
		c1.74,0.41,3.51,1.01,4.74-0.99c0.63,0.27,1.02,0.96,1.78,1.01c0.44,0.38,0.89,0.73,1.49,0.8c0.05,0.05,0.13,0.15,0.14,0.15
		c0.15-0.11,0.06-0.18-0.05-0.25c-0.54-1.34-1.68-2.34-2.09-3.74c0.69-0.15,0.77-0.41,0.24-0.93c-0.27-0.26-0.68-0.69-0.28-1.09
		c0.47-0.48,0.73,0.08,0.97,0.37c0.22,0.27,0.43,0.26,0.62,0.05c0.21-0.21,0.01-0.36-0.16-0.49c-0.72-0.53-0.18-1.14-0.11-1.73
		c1.42,2.36,2.87,4.7,4.24,7.08c1.23,2.13,3.02,2.92,5.39,2.52c0.36,0.01,0.73,0.13,1.19-0.1c-2.91-2.87-5.33-6.05-7.07-9.71
		c0.24-0.45,0.8-0.83,0.38-1.43c-0.18-0.26-0.4-0.47-0.06-0.71c0.32-0.23,0.54,0.05,0.74,0.25c0.46,0.47,0.91,0.96,1.47,0.11
		c0.46,0.8,0.89,1.62,1.38,2.41c1.52,2.43,3.05,4.87,5.21,6.8c1.07,0.96,2.27,1.77,3.84,1.08c0.91-0.06,0.66-0.41,0.25-0.89
		c-3.31-3.88-6.22-8.06-8.91-12.39c-0.16-0.72,0.57-0.76,1.21-1.25c-1.32,0.09-1.88-0.37-1.88-1.58c-0.21,1.56-1.02,0.9-1.68,0.71
		c0.14-0.37,0.49-0.67,0.16-1.15c-1.73-2.47-3.24-5.11-5.63-7.03c-1.01-0.81-2.09-1.57-3.52-1.39c-1.8,0.39-3.98,2.86-4.09,4.62
		c-0.02,0.27,0.04,0.51,0.22,0.69c1.24,1.29,2.32,2.74,3.87,3.71c3.51,3.19,5.72,3.37,8.81,0.75c0.85,0.92,0.05,1.51-0.56,1.77
		c-1.33,0.58-1.5,2.33-2.93,2.73c-0.04,0.01-0.02,0.24-0.02,0.36c-0.9,0.21-1.79-0.13-2.72-0.15c0.02,0.85,0.76,1.39,0.7,2.18
		c-0.56,0.03-0.88,0.43-1.16,0.83c-0.34,0.49-0.76,0.72-1.34,0.7c-0.75-1.46-1.5-2.93-2.24-4.39c-0.53-1.04-0.93-2.17-1.86-2.97
		c0,0,0.01,0.02,0.01,0.02c-0.09-0.11-0.18-0.23-0.27-0.34c-0.23-0.59-0.62-1.01-1.26-1.28c-0.02,0.27-0.03,0.44-0.04,0.61
		c-0.18,3.75,1.14,7.04,3.07,10.15c-0.16,0.12-0.36,0.36-0.49,0.33c-1.67-0.35-1.56,0.63-1.34,1.73c0.02,0.11-0.06,0.24-0.09,0.35
		c-3.57-4.24-4.72-9.21-4.29-14.61c0.2-2.46,0.87-4.8,2.12-6.96c0.12-0.21,0.27-0.46,0.27-0.69c0.05-2.06,0.33-4.1,0.79-6.26
		c-3.24,1.11-5.63,3.08-7.68,5.53c-0.78,0.94-1.46,1.96-2.06,3.02c-0.34,0.6-0.85,0.91-1.56,0.86c-0.66-0.05-1.16-0.4-1.34-1
		c-1.37-4.47-2.04-8.96-0.3-13.5c0.32,0.27,0.62,0.55,0.95,0.8c0.24,0.19,0.55,0.17,0.53-0.18c-0.03-0.87,0.97-1.53,0.36-2.57
		c0.65,0.43,1.07,0.5,1.4-0.25c0.2-0.45,0.52-0.93,1.18-0.95c0.24-0.01,0.4-0.3,0.35-0.58c-0.03-0.2-0.17-0.25-0.37-0.22
		c-1.11,0.16-1.07-0.62-1.09-1.35c1.31-0.95,1.47-2.15,1.37-3.76c-0.23-3.61,1.71-6.34,4.37-8.57c4.13-3.46,9.05-5.14,14.23-6.2
		c3.14-0.65,6.32-1.08,9.4-2.01c2.97-0.9,5.61-2.3,7.63-4.73c0.54-0.65,1.19-0.97,2-0.6c0.85,0.39,1.04,1.09,0.91,2
		c-0.31,2.13-1.05,4.13-1.98,6.35c0.65-0.37,1.08-0.6,1.49-0.85c0.59-0.37,1.2-0.41,1.79-0.04c0.6,0.37,0.77,0.97,0.7,1.65
		c-0.25,2.67-1.25,5.05-2.85,7.2c-1.39,1.87-3.12,3.43-4.78,5.06c-0.81,0.8-1.62,1.61-2.37,2.46c-2.56,2.92-2.97,6.22-1.71,9.81
		c0.17,0.48,0.4,0.87,0.87,1.17c10.74,6.97,16.64,17.04,18.8,29.48c0.15,0.85,0.38,1.11,1.24,1.09c2.74-0.05,5.49,0.01,8.23-0.04
		c1.7-0.03,3.04,0.59,4.07,1.91c1.93,2.46,2.69,5.24,2,8.31c-0.54,2.44-2.01,3.55-4.47,3.54c-3.33-0.01-6.67-0.03-10-0.05
		c-0.08-0.64,0.86-0.27,0.86-1.01c-1.11,0.42-1.06-0.53-1.48-1.65c-0.05,1.7-0.52,1.43-1.14,0.85c-0.35-0.33-0.7-0.26-0.79,0.31
		c-0.31,0.04-0.73-0.09-0.69,0.46c0.01,0.09,0.15,0.23,0.23,0.23c0.54,0.04,0.41-0.39,0.46-0.69
		C68.28,78.36,68.82,78.72,68.76,79.49z M23.23,72.88c0.04,1.25,0.7,2.22,1.54,3.05c0.57,0.56,1.16,0.42,1.3-0.36
		c0.19-1.04,0.43-2.14-0.19-3.15c-0.15-1.15-0.6-2.15-1.47-2.95c-0.6-0.55-1.01-0.42-1.28,0.35C22.77,70.86,22.92,71.87,23.23,72.88
		z M78.91,73.17c0.05,1.17,0.7,2.01,1.53,2.75c0.52,0.46,0.92,0.34,1.13-0.29c0.39-1.17,0.49-2.34-0.18-3.46
		c-0.14-0.94-0.47-1.79-1.12-2.5c-0.29-0.31-0.59-0.72-1.04-0.6c-0.54,0.14-0.73,0.7-0.82,1.17C78.22,71.26,78.47,72.24,78.91,73.17
		z M75.86,74.94l0.01,0.01c-0.07-1.05-0.51-2.03-0.58-3.1c-0.06-0.95,0.58-2.24-0.13-2.73c-0.7-0.48-1.95-0.18-2.96-0.18
		c-2.68-0.01-2.68,0-2.59,2.67c-0.12,1.25-0.2,2.51-0.38,3.76c-0.12,0.88,0.23,1.1,1.04,1.08c1.81-0.04,3.62-0.04,5.43,0
		c0.97,0.02,1.02-0.31,0.5-0.99C76.11,75.27,76.11,75.02,75.86,74.94z M38.59,32.81c-2.05,0.26-3.71,1.49-5.54,2.29
		c-0.16,0.07-0.32,0.28-0.38,0.46c-0.32,1.01-0.61,2.04-0.91,3.06c1.83-1.1,3.71-1.89,5.56-2.74c1.5-0.34,2.99-0.7,4.5-0.99
		c0.63-0.12,0.62-0.36,0.39-0.85C41.61,32.75,40.37,32.31,38.59,32.81z M53.81,8.06c0.13-0.17,0.25-0.35,0.38-0.52
		c0.15-0.14,0.18-0.31,0.13-0.5c0.03-0.04,0.07-0.08,0.1-0.12c-0.04,0.03-0.08,0.07-0.12,0.1c-1.63,0.54-3.13,1.39-4.8,1.85
		c-3.11,0.86-6.3,1.31-9.61,2.07c0.82,0.77,1.38,1.55,1.78,2.43c-0.77,1.13-1.22-0.13-1.82-0.25c-0.67-0.93-1.69-1.02-2.69-1.05
		c-3.07-0.09-5.58,1.42-8.04,2.98c-1.75,1.11-3.36,2.41-4.21,4.4c-1.93,2.47-1.31,6.58,2.49,7.36c2.21,0.46,4.26-0.13,6.27-0.83
		c2.15-0.75,3.92-0.58,5.32,1.36c0.09,0.53,0.26,0.82,0.71,0.22c0.8-1.07,1.34-2.24,1.46-3.58c0.03-0.28-0.05-0.66,0.34-0.72
		c0.36-0.05,0.46,0.32,0.59,0.57c0.39,0.75,0.74,1.52,1.13,2.27c0.45,0.89,1.08,1,1.84,0.37c0.29-0.24,0.6-0.48,0.83-0.78
		c2.46-3.3,5.42-6.12,8.32-9.01c1.1-1.1,2.12-2.29,2.68-3.79c0.04-0.05,0.13-0.13,0.12-0.14c-0.09-0.13-0.17-0.06-0.24,0.03
		c-1.64,0.5-3.29,0.94-4.67,2.05c-1.08,0.86-2.32,1.45-3.9,1.9c0.4-0.56,0.66-0.91,0.91-1.27c1.71-2.38,3.5-4.71,4.74-7.39
		L53.81,8.06z M21.86,28.21c-3.53,3.4-3.99,7.62-3.38,12.44c1.64-2.01,3.34-3.56,5.16-4.99c2.8-1.57,5.87-2.52,8.8-3.79
		c1.12-0.48,2.27-0.93,3.24-1.7c0.32-0.26,0.55-0.56,0.39-0.98c-0.19-0.46-0.63-0.39-0.99-0.3c-0.69,0.18-1.37,0.41-2.05,0.64
		c-3.62,1.22-7.05,1.31-9.98-1.63C22.48,27.33,22.18,27.82,21.86,28.21z M29.91,76.3c0.08,0.03,0.16,0.08,0.24,0.08
		c5.09,0.02,10.17,0.04,15.26,0.06c0.43,0,0.73-0.18,0.92-0.54c0.49-0.93,0.96-1.87,1.44-2.81c0.24-0.47,0.13-0.72-0.43-0.68
		c-1.86,0.13-3.67-0.21-5.5-0.44c-0.36-0.02-0.73-0.05-1.09-0.07l0.02,0c-1.55-0.63-3.24-1.04-4.6-1.95c-2.4-1.6-4.97-0.82-7.48-1
		c-0.64-0.05-0.38,0.35-0.16,0.63c0.13,1.27,0.67,2.08,2.07,2.35c1.92,0.38,3.8,0.98,5.7,1.48c0.24,0.06,0.55,0.1,0.49,0.43
		c-0.06,0.32-0.37,0.3-0.61,0.27c-0.41-0.04-0.81-0.25-1.22,0.02c-1.46-0.01-2.91-0.02-4.37-0.02c-0.89,0-1.68,1.36-1.24,2.15
		C29.47,76.49,29.72,76.37,29.91,76.3z M50.25,56.2c-0.03,0.38,0.24,0.62,0.43,0.89c2.27,3.46,4.82,6.71,7.62,9.77
		c0.66,0.73,1.09,1.43,0.39,2.33c-0.34,0.44-0.85,0.73-1.37,0.88c-0.78,0.24-1.05,0.67-1.03,1.48c0.06,1.66,0.42,3.19,1.58,4.42
		c1.5,1.58,3.41,1.99,5.45,1.59c1.96-0.39,2.35-2.05,2.68-3.73c0.38-1.89,0.24-3.79,0.24-5.68c0-1.04,0.19-2.12-0.34-3.11
		c-0.26-3.94-1.67-7.57-3.26-11.11c-2.09-4.66-4.67-9.01-8.63-12.35c-2.68-2.25-5.68-3.81-9.32-3.67c-2.61,0.1-3.91,1.81-3.3,4.35
		c0.29,1.2,0.88,2.28,1.57,3.3c2.18,3.21,4.37,6.41,6.56,9.62c0,0.36,0.13,0.64,0.51,0.74C50.1,56.01,50.17,56.11,50.25,56.2z"/>
	<path class="st1" d="M66.38,84.11c-0.24,0.07-0.48,0.16-0.73,0.19c-0.52,0.07-1.54-0.43-0.79,0.89c0.24,0.42-0.24,0.88-0.89,0.93
		c-0.6,0.05-0.97-0.37-1.42-0.65c-0.29,0.6,0.08,0.98,0.24,1.39c0.08,0.2,0.18,0.42,0,0.58c-0.21,0.19-0.45,0.03-0.51-0.16
		c-0.21-0.7-0.83-0.41-1.26-0.55c0.57-0.87,1.14-1.74,1.71-2.62c0.39-0.62,0.78-1.24,1.17-1.86c0.9,0.3,1.3-0.47,1.8-0.92
		c0.32-0.29,0.46-0.78,0.74-1.13c0.51-0.65,1.04-0.54,1.53,0.06C67.69,81.65,67.09,82.9,66.38,84.11z"/>
	<path class="st1" d="M30.09,65.21c0.03-0.12,0.12-0.25,0.09-0.35c-0.22-1.1-0.33-2.08,1.34-1.73c0.13,0.03,0.33-0.22,0.49-0.33
		c0.85,0.84,1.7,1.68,2.54,2.51c-1.23,2.01-3,1.4-4.74,0.99c-0.26-0.06-0.31-0.24-0.35-0.46c0.28-0.01,0.57-0.03,0.85-0.04
		C30.4,65.55,30.68,65.22,30.09,65.21L30.09,65.21z"/>
	<path class="st1" d="M19.34,26.31c0.02,0.73-0.02,1.51,1.09,1.35c0.2-0.03,0.34,0.02,0.37,0.22c0.05,0.29-0.11,0.57-0.35,0.58
		c-0.66,0.03-0.98,0.5-1.18,0.95c-0.33,0.76-0.75,0.69-1.4,0.25c0.61,1.03-0.39,1.7-0.36,2.57c0.01,0.35-0.29,0.36-0.53,0.18
		c-0.33-0.25-0.64-0.53-0.95-0.8C16.68,29.56,17.74,27.77,19.34,26.31z"/>
	<path class="st1" d="M67.75,78c0.08-0.57,0.43-0.64,0.79-0.31c0.62,0.58,1.08,0.84,1.14-0.85c0.42,1.12,0.37,2.07,1.48,1.65
		c-0.01,0.74-0.95,0.37-0.86,1.01c-0.51,0-1.02,0-1.53-0.01C68.82,78.72,68.28,78.36,67.75,78L67.75,78z"/>
	<path class="st0" d="M30.1,65.21c0.59,0.01,0.3,0.34,0.23,0.6C30.25,65.61,30.17,65.41,30.1,65.21z"/>
	<path class="st2" d="M49.51,55.17c-2.19-3.2-4.38-6.41-6.56-9.62c-0.69-1.02-1.28-2.1-1.57-3.3c-0.61-2.54,0.69-4.25,3.3-4.35
		c3.64-0.14,6.64,1.41,9.32,3.67c3.97,3.34,6.54,7.69,8.63,12.35c1.59,3.55,3,7.17,3.26,11.11c-0.74,0.17-0.9,1.03-1.64,1.28
		c-2.05,0.71-3.6-0.32-5.11-1.37c-3.1-2.16-5.51-5.03-7.85-7.95c-0.29-0.36-0.49-0.8-1.05-0.8c-0.07-0.1-0.15-0.19-0.22-0.29
		C50.02,55.55,49.99,55.21,49.51,55.17z"/>
	<path class="st3" d="M63.91,82.26c-0.39,0.62-0.78,1.24-1.17,1.86c-2.66-1.09-5.91,0.7-7.4,3.06c-0.74,1.17-1.44,2.37-2.3,3.44
		c-1.42,1.77-3.06,3.31-5.27,4.1c1.41-2.39,2.73-4.82,3.28-7.58c0.04-0.2,0.15-0.4,0.17-0.6c0.03-0.28,0.17-0.64-0.14-0.8
		c-0.35-0.19-0.49,0.19-0.67,0.4c-0.13,0.16-0.26,0.32-0.4,0.47c-0.56-0.47-0.85,0.17-1.16,0.37c-1.17,0.76-2.43,1.37-3.74,1.79
		c-5.14,1.67-10.35,1.4-15.56,0.43c-2.47-0.46-4.83-1.34-7.22-2.07c-0.42-0.3-0.51-0.53,0.15-0.48c0.8,0.06,1.59,0.17,2.39,0.24
		c4.38,0.43,8.75,0.5,13.08-0.52c3.09-0.73,5.77-2.33,8.48-3.87c1.83-1.04,3.66-2.11,5.59-2.96c0.95-0.42,1.87-0.51,2.93-0.17
		c2.73,0.89,5.49,1.65,8.42,1.43C64.96,80.67,63.65,81.8,63.91,82.26z"/>
	<path class="st4" d="M39.84,13.12c0.6,0.11,1.05,1.38,1.82,0.25c0.19-0.08,0.38-0.18,0.58-0.23c3.55-0.76,6.91-1.97,9.92-4.06
		c0.53-0.37,0.92-1.01,1.67-1.03c-1.25,2.68-3.04,5.01-4.74,7.39c-0.26,0.36-0.51,0.72-0.91,1.27c1.58-0.45,2.82-1.04,3.9-1.9
		c1.39-1.11,3.04-1.55,4.67-2.05c0.04,0.04,0.08,0.08,0.12,0.11c-0.55,1.5-1.58,2.69-2.68,3.79c-2.9,2.88-5.87,5.71-8.32,9.01
		c-0.22,0.3-0.53,0.54-0.83,0.78c-0.76,0.63-1.38,0.52-1.84-0.37c-0.38-0.75-0.74-1.52-1.13-2.27c-0.13-0.25-0.23-0.62-0.59-0.57
		c-0.39,0.06-0.31,0.44-0.34,0.72c-0.12,1.34-0.66,2.52-1.46,3.58c-0.45,0.6-0.62,0.31-0.71-0.22c0.75-1.26,0.45-2.56,0.08-3.82
		c-0.19-0.64-0.2-1.58-1.03-1.73c-0.76-0.13-0.95,0.82-1.47,1.21c-0.3-0.19-0.23-0.5-0.27-0.78l-0.01,0.01
		c0.08-0.1,0.16-0.19,0.24-0.29l-0.02,0.01c0.72-0.19,0.56-0.76,0.53-1.26l-0.02,0.02c0.77-0.64,0.67-1.43,0.36-2.25
		c0.01-0.17,0.02-0.35,0.03-0.52c0.67-0.31,0.53-0.68,0.06-1.06c-0.02-0.31-0.05-0.62-0.07-0.93c0.28-0.08,0.39-0.28,0.42-0.55
		c0.15-1.13,0.76-1.89,1.83-2.28C39.72,13.11,39.78,13.12,39.84,13.12z"/>
	<path class="st5" d="M50.25,56.2C50.8,56.2,51,56.64,51.29,57c2.34,2.92,4.75,5.78,7.85,7.95c1.51,1.06,3.06,2.09,5.11,1.37
		c0.74-0.26,0.9-1.12,1.64-1.28c0.52,0.99,0.34,2.07,0.34,3.11c0,1.89,0.14,3.79-0.24,5.68c-0.33,1.67-0.72,3.34-2.68,3.73
		c-2.04,0.4-3.95-0.01-5.45-1.59c-1.17-1.23-1.53-2.76-1.58-4.42c-0.03-0.81,0.25-1.24,1.03-1.48c0.51-0.16,1.02-0.44,1.37-0.88
		c0.7-0.9,0.28-1.6-0.39-2.33c-2.8-3.05-5.34-6.3-7.62-9.77C50.49,56.82,50.22,56.58,50.25,56.2z"/>
	<path class="st4" d="M33.82,42.81c1.43-0.18,2.51,0.57,3.52,1.39c2.39,1.92,3.9,4.56,5.63,7.03c0.33,0.47-0.02,0.78-0.16,1.15
		c-0.06,0.07-0.12,0.14-0.18,0.21c-3.1,2.63-5.3,2.44-8.81-0.75c0.02-0.46-0.29-0.75-0.53-1.1c-1.59-2.38-0.93-6.07,1.31-7.39
		C34.51,42.91,33.99,43.12,33.82,42.81z"/>
	<path class="st6" d="M41.84,71.97c1.83,0.22,3.65,0.57,5.5,0.44c0.56-0.04,0.67,0.21,0.43,0.68c-0.48,0.93-0.95,1.87-1.44,2.81
		c-0.19,0.36-0.5,0.54-0.92,0.54c-5.09-0.02-10.17-0.04-15.26-0.06c-0.08,0-0.16-0.05-0.24-0.08c0.25-1.81,0.27-1.78,2.14-1.86
		c0.97-0.05,1.99,0.31,2.91-0.28c0.4-0.27,0.81-0.07,1.22-0.02c0.25,0.03,0.56,0.05,0.61-0.27c0.06-0.33-0.25-0.37-0.49-0.43
		c-1.9-0.5-3.78-1.11-5.7-1.48c-1.4-0.28-1.94-1.08-2.07-2.35c0.47-0.02,0.76,0.3,1.11,0.53c0.73,0.49,1.4,1.21,2.32,1.23
		c2.95,0.06,5.86,0.66,8.81,0.55c0,0-0.02,0-0.02,0C41.1,72.15,41.45,72.29,41.84,71.97z"/>
	<path class="st7" d="M22.33,87.13c2.4,0.73,4.75,1.61,7.22,2.07c5.21,0.97,10.43,1.25,15.56-0.43c1.31-0.43,2.56-1.04,3.74-1.79
		c0.31-0.2,0.59-0.84,1.16-0.37c-2.34,3.58-5.74,5.4-9.93,5.62c-6.03,0.33-11.71-0.92-16.84-4.25
		C22.89,87.75,22.51,87.54,22.33,87.13z"/>
	<path class="st8" d="M36.57,22.99c0.51-0.39,0.7-1.34,1.47-1.21c0.83,0.14,0.84,1.09,1.03,1.73c0.37,1.26,0.67,2.56-0.08,3.82
		c-1.4-1.94-3.17-2.11-5.32-1.36c-2,0.7-4.06,1.29-6.27,0.83c-3.8-0.79-4.43-4.9-2.49-7.36c0.38,0.46,0.84,0.67,1.44,0.43
		c0.42-0.17,0.81-0.47,1.3-0.45c-0.3,0.45-0.6,0.9-0.89,1.36c-1.23,1.87-0.98,2.81,1.02,3.78c2.13,1.02,4.23,0.7,6.3-0.24
		c0.58,0.25,0.88,0.01,0.97-0.57l0,0C35.7,23.8,36.21,23.56,36.57,22.99z"/>
	<path class="st7" d="M47.77,94.72c2.21-0.79,3.85-2.33,5.27-4.1c0.86-1.07,1.57-2.27,2.3-3.44c1.49-2.36,4.74-4.15,7.4-3.06
		c-0.57,0.87-1.14,1.74-1.71,2.62c0,0,0,0.06,0,0.06c-0.43,0.24-0.68,0.65-0.96,1.03c-0.33,0.35-0.65,0.69-0.98,1.04
		c-1.18,0.93-2.36,1.86-3.54,2.79c-2.04,1.18-4.19,2.11-6.38,2.96C48.76,94.77,48.28,95.33,47.77,94.72z"/>
	<path class="st9" d="M23.64,35.66c-1.81,1.43-3.52,2.98-5.16,4.99c-0.61-4.82-0.15-9.05,3.38-12.44c0.04,0.33-0.04,0.71,0.36,0.9
		c-0.05,0.72,0.29,1.34,0.52,1.99c0.21,0.6,0.55,0.45,0.92,0.23c0.02,0.21,0.06,0.38,0.28,0.51c1.23,0.76,1.3,1.24,0.53,2.49
		C24.19,34.76,23.64,35.05,23.64,35.66z"/>
	<path class="st10" d="M23.64,35.66c0-0.61,0.55-0.9,0.82-1.35c0.77-1.25,0.7-1.73-0.53-2.49c-0.21-0.13-0.25-0.3-0.28-0.51
		c0.15-0.32,0.71-0.29,0.67-0.85c-0.89-0.15-1.35-0.97-2.11-1.36c-0.39-0.19-0.32-0.56-0.36-0.9c0.32-0.39,0.61-0.88,1.19-0.3
		c2.94,2.94,6.37,2.85,9.98,1.63c0.68-0.23,1.36-0.46,2.05-0.64c0.36-0.09,0.8-0.16,0.99,0.3c0.16,0.41-0.06,0.72-0.39,0.98
		c-0.97,0.77-2.12,1.21-3.24,1.7C29.51,33.14,26.44,34.09,23.64,35.66z"/>
	<path class="st6" d="M76.21,75.46c0.52,0.68,0.47,1.01-0.5,0.99c-1.81-0.04-3.62-0.04-5.43,0c-0.81,0.02-1.16-0.2-1.04-1.08
		c0.17-1.25,0.25-2.51,0.38-3.76c1.14,0.01,2.28,0,3.42,0.03c0.74,0.02,1.39-0.04,1.38-1.08c0.48,2.74,0.76,3.61,1.46,4.39
		c0,0-0.01-0.01-0.01-0.01C75.86,75.2,75.91,75.41,76.21,75.46z"/>
	<path class="st8" d="M53.84,8.05c-0.75,0.02-1.14,0.66-1.67,1.03c-3.01,2.09-6.37,3.3-9.92,4.06c-0.2,0.04-0.39,0.15-0.58,0.23
		c-0.4-0.88-0.96-1.65-1.78-2.43c3.31-0.76,6.51-1.21,9.61-2.07c1.67-0.46,3.18-1.31,4.8-1.85l0.02,0.02
		c0.05,0.19,0.01,0.36-0.13,0.5c-0.29,0.06-0.39,0.25-0.38,0.52L53.84,8.05z"/>
	<path class="st11" d="M45.16,54.49c2.69,4.33,5.59,8.51,8.91,12.39c0.41,0.48,0.65,0.83-0.25,0.89c-2.12-1.2-4-2.63-5.27-4.78
		c-1.49-2.51-3.22-4.88-4.39-7.57C44.47,55.09,44.71,54.67,45.16,54.49z"/>
	<path class="st11" d="M27.64,19.42c-0.49-0.01-0.87,0.28-1.3,0.45c-0.6,0.24-1.05,0.03-1.44-0.43c0.85-1.99,2.46-3.29,4.21-4.4
		c2.46-1.56,4.97-3.06,8.04-2.98c1,0.03,2.02,0.12,2.69,1.05c-0.06,0-0.13,0-0.19-0.01c-1.75-0.49-3.5-0.83-5.27-0.16
		c-0.24,0.09-0.76,0.07-0.66,0.41c0.24,0.8-0.42,1.33-0.45,2.03C31.16,16.4,29.16,17.58,27.64,19.42z"/>
	<path class="st8" d="M37.1,59.48c0.06-0.79-0.68-1.33-0.7-2.18c0.92,0.01,1.81,0.36,2.72,0.15c0.02,0.06,0.04,0.12,0.06,0.17
		c-0.93,0.31-0.37,0.91-0.17,1.3c0.93,1.82,1.91,3.62,2.9,5.41c0.83,1.49,1.94,2.71,3.4,3.64c0.5,0.32,1.23,0.4,1.43,1.12
		c-2.38,0.4-4.17-0.39-5.39-2.52C39.97,64.17,38.51,61.83,37.1,59.48C37.09,59.47,37.1,59.48,37.1,59.48z"/>
	<path class="st8" d="M44.15,55.41c1.17,2.7,2.9,5.06,4.39,7.57c1.28,2.15,3.16,3.59,5.27,4.78c-1.57,0.69-2.78-0.12-3.84-1.08
		c-2.15-1.93-3.69-4.37-5.21-6.8c-0.49-0.78-0.92-1.61-1.38-2.41C42.58,56.4,43.45,55.94,44.15,55.41z"/>
	<path class="st8" d="M34.56,65.31c-0.85-0.84-1.7-1.68-2.54-2.51c-1.93-3.11-3.25-6.41-3.07-10.15c0.01-0.17,0.02-0.33,0.04-0.61
		c0.64,0.28,1.03,0.7,1.26,1.28c0.09,0.11,0.18,0.23,0.27,0.34l-0.01-0.02c0.16,3.96,1.78,7.32,4.15,10.4
		c0.57,0.75,1.53,1.21,1.69,2.26C35.58,66.27,35.19,65.58,34.56,65.31z"/>
	<path class="st11" d="M46.73,69.08c-0.2-0.72-0.94-0.8-1.43-1.12c-1.46-0.93-2.57-2.15-3.4-3.64c-0.99-1.79-1.98-3.59-2.9-5.41
		c-0.19-0.38-0.76-0.99,0.17-1.3c0.31,0.04,0.61,0.07,0.92,0.11c0.04,0.14,0.06,0.3,0.27,0.27l-0.06,0.02
		c-0.05,0.09-0.04,0.16,0.04,0.23c0.1,0.38,0.22,0.74,0.51,1.02c1.74,3.66,4.16,6.84,7.07,9.71C47.46,69.2,47.09,69.09,46.73,69.08z
		"/>
	<path class="st12" d="M40.76,71.9c-2.96,0.11-5.87-0.49-8.81-0.55c-0.92-0.02-1.59-0.73-2.32-1.23c-0.35-0.24-0.64-0.56-1.11-0.53
		c-0.22-0.28-0.48-0.68,0.16-0.63c2.5,0.18,5.08-0.6,7.48,1C37.52,70.87,39.22,71.27,40.76,71.9z"/>
	<path class="st11" d="M36.33,66.32c-0.16-1.05-1.11-1.52-1.69-2.26c-2.37-3.08-3.99-6.45-4.15-10.4c0.93,0.79,1.33,1.92,1.86,2.97
		c0.75,1.47,1.5,2.93,2.24,4.39c0.35,0.79,0.68,1.59,1.22,2.27c0.42,1.4,1.56,2.4,2.09,3.74c-0.03,0.03-0.06,0.06-0.09,0.1
		C37.22,67.04,36.77,66.69,36.33,66.32z"/>
	<path class="st13" d="M37.32,35.88c-1.85,0.85-3.73,1.64-5.56,2.74c0.3-1.02,0.59-2.04,0.91-3.06c0.06-0.18,0.21-0.39,0.38-0.46
		c1.83-0.8,3.48-2.03,5.54-2.29c0.02,0.79,0.09,1.59-0.68,2.15C37.62,35.17,37.31,35.44,37.32,35.88z"/>
	<path class="st12" d="M75.87,74.95c-0.7-0.78-0.98-1.65-1.46-4.39c0.01,1.05-0.64,1.1-1.38,1.08c-1.14-0.03-2.28-0.02-3.42-0.03
		c-0.09-2.67-0.09-2.68,2.59-2.67c1.01,0,2.26-0.3,2.96,0.18c0.72,0.49,0.07,1.78,0.13,2.73C75.37,72.92,75.8,73.9,75.87,74.95z"/>
	<path class="st1" d="M40.85,59.26c-0.29-0.28-0.41-0.64-0.51-1.02c0.18-0.11,0.23-0.2-0.04-0.23c0,0,0.06-0.02,0.06-0.02
		c-0.09-0.09-0.18-0.18-0.27-0.27c-0.31-0.04-0.61-0.07-0.92-0.11c-0.02-0.06-0.04-0.11-0.06-0.17c0.01-0.12-0.01-0.35,0.02-0.36
		c1.43-0.41,1.6-2.15,2.93-2.73c0.61-0.26,1.42-0.86,0.56-1.77c0.06-0.07,0.12-0.14,0.18-0.21c0.67,0.19,1.48,0.85,1.68-0.71
		c0,1.2,0.56,1.66,1.88,1.58c-0.65,0.49-1.37,0.53-1.21,1.25c-0.45,0.19-0.69,0.61-1.01,0.93c-0.69,0.53-1.57,0.98-0.76,2.07
		c-0.56,0.84-1.01,0.36-1.47-0.11c-0.2-0.2-0.42-0.48-0.74-0.25c-0.34,0.24-0.13,0.45,0.06,0.71
		C41.66,58.43,41.09,58.81,40.85,59.26z"/>
	<path class="st8" d="M33.82,42.81c0.17,0.31,0.69,0.1,0.78,0.53c-2.24,1.33-2.9,5.02-1.31,7.39c0.23,0.35,0.54,0.64,0.53,1.1
		c-1.55-0.97-2.63-2.42-3.87-3.71c-0.18-0.19-0.24-0.43-0.22-0.69C29.83,45.67,32.02,43.21,33.82,42.81z"/>
	<path class="st12" d="M78.91,73.17c-0.45-0.93-0.69-1.91-0.5-2.93c0.09-0.47,0.28-1.03,0.82-1.17c0.45-0.12,0.75,0.29,1.04,0.6
		c0.66,0.71,0.98,1.56,1.12,2.5C80.41,73.87,80.41,73.87,78.91,73.17z"/>
	<path class="st12" d="M23.23,72.88c-0.31-1.01-0.46-2.02-0.1-3.06c0.27-0.77,0.67-0.89,1.28-0.35c0.87,0.79,1.32,1.79,1.47,2.95
		c-0.24,0.12-0.33,0.34-0.44,0.57c-0.53,1.16-0.92,1.22-1.76,0.29C23.55,73.13,23.38,73.01,23.23,72.88z"/>
	<path class="st14" d="M37.32,35.88c-0.02-0.44,0.29-0.7,0.58-0.91c0.77-0.56,0.7-1.36,0.68-2.15c1.78-0.49,3.02-0.06,3.62,1.22
		c0.23,0.48,0.24,0.73-0.39,0.85C40.32,35.17,38.82,35.54,37.32,35.88z"/>
	<path class="st6" d="M78.91,73.17c1.5,0.7,1.5,0.7,2.48-1c0.67,1.12,0.57,2.29,0.18,3.46c-0.21,0.63-0.62,0.75-1.13,0.29
		C79.61,75.18,78.96,74.34,78.91,73.17z"/>
	<path class="st1" d="M55.55,91.65c1.18-0.93,2.36-1.86,3.54-2.79c0.14,0.53,0.34,1.03,0.3,1.6c-0.1,1.28-0.86,1.86-2.12,1.57
		C56.7,91.9,56.12,91.78,55.55,91.65z"/>
	<path class="st6" d="M23.23,72.88c0.15,0.13,0.32,0.25,0.45,0.4c0.84,0.93,1.23,0.87,1.76-0.29c0.11-0.23,0.2-0.45,0.44-0.57
		c0.61,1.02,0.37,2.11,0.19,3.15c-0.14,0.78-0.73,0.92-1.3,0.36C23.93,75.1,23.27,74.13,23.23,72.88z"/>
	<path class="st1" d="M35.81,63.28c-0.54-0.69-0.87-1.49-1.22-2.27c0.58,0.02,1-0.21,1.34-0.7c0.28-0.4,0.6-0.8,1.16-0.83
		c0,0,0,0,0,0c-0.07,0.58-0.61,1.2,0.11,1.73c0.18,0.13,0.37,0.28,0.16,0.49c-0.2,0.2-0.4,0.21-0.62-0.05
		c-0.24-0.29-0.5-0.86-0.97-0.37c-0.39,0.4,0.02,0.82,0.28,1.09C36.58,62.87,36.5,63.13,35.81,63.28z"/>
	<path class="st12" d="M34.96,74.16c-0.92,0.58-1.94,0.23-2.91,0.28c-1.87,0.09-1.88,0.05-2.14,1.86c-0.19,0.08-0.44,0.2-0.56-0.02
		c-0.45-0.79,0.35-2.15,1.24-2.15C32.04,74.13,33.5,74.15,34.96,74.16z"/>
	<path class="st1" d="M60.07,87.83c0.28-0.38,0.54-0.79,0.96-1.03c0.16,0.57,0.67,1.05,0.56,1.75C60.9,88.53,60.67,87.8,60.07,87.83
		z"/>
	<path class="st1" d="M67.74,77.99c-0.04,0.31,0.09,0.73-0.46,0.69c-0.09-0.01-0.23-0.15-0.23-0.23
		C67.01,77.91,67.44,78.04,67.74,77.99L67.74,77.99z"/>
	<path class="st5" d="M49.51,55.17c0.48,0.04,0.51,0.38,0.51,0.74C49.65,55.81,49.52,55.54,49.51,55.17z"/>
	<path class="st12" d="M41.84,71.97c-0.39,0.32-0.74,0.18-1.09-0.07C41.11,71.92,41.48,71.95,41.84,71.97z"/>
	<path class="st12" d="M76.21,75.46c-0.3-0.05-0.36-0.26-0.35-0.52C76.11,75.02,76.11,75.27,76.21,75.46z"/>
	<path class="st4" d="M53.81,8.06c-0.01-0.27,0.09-0.46,0.38-0.52C54.07,7.71,53.94,7.88,53.81,8.06z"/>
	<path class="st11" d="M37.91,67.02c0.11,0.06,0.2,0.14,0.05,0.25c-0.01,0-0.09-0.1-0.14-0.15C37.85,67.09,37.88,67.05,37.91,67.02z
		"/>
	<path class="st11" d="M30.5,53.66c-0.09-0.11-0.18-0.23-0.27-0.34C30.33,53.43,30.42,53.55,30.5,53.66z"/>
	<path class="st4" d="M56.76,12.77c0.07-0.09,0.15-0.15,0.24-0.03c0.01,0.01-0.08,0.09-0.12,0.14
		C56.84,12.85,56.8,12.81,56.76,12.77z"/>
	<path class="st8" d="M54.31,7.02c0.04-0.03,0.08-0.07,0.12-0.1c-0.03,0.04-0.07,0.08-0.1,0.12C54.33,7.04,54.31,7.02,54.31,7.02z"
		/>
	<path class="st0" d="M27.64,19.42c1.53-1.83,3.52-3.02,5.64-4.03c0.45-0.09,0.91-0.11,1.33-0.27c1.15-0.42,2.09-0.23,2.8,0.82
		c0.02,0.31,0.05,0.62,0.07,0.93c-0.19,0.34-0.13,0.7-0.07,1.06c-0.01,0.17-0.02,0.35-0.03,0.52c-0.12,0.75-0.24,1.5-0.36,2.25
		c0,0,0.02-0.02,0.02-0.02c-0.33,0.36-0.48,0.79-0.53,1.26c0,0,0.02-0.01,0.02-0.01c-0.08,0.1-0.16,0.19-0.24,0.29
		c0,0,0.01-0.01,0.01-0.01c-0.42,0.51-0.84,1.02-1.26,1.53c0,0,0,0,0-0.01c-0.42,0.03-0.65,0.38-0.97,0.57
		c-2.07,0.94-4.17,1.27-6.3,0.24c-2-0.96-2.25-1.91-1.02-3.78C27.04,20.32,27.34,19.87,27.64,19.42z M32.59,18.76
		c0.78,0.46,1.2,1.04,1.3,1.95c0.68-0.9,0.74-1.78,0.75-2.77C33.9,18.02,33.35,18.35,32.59,18.76z M29.92,20.97
		c-0.4,0.39-1.02,0.88-0.81,1.2c0.38,0.57,1.15,0.39,2.12,0.31C30.44,22.02,30.25,21.46,29.92,20.97z"/>
	<path class="st5" d="M37.41,15.94c-0.71-1.05-1.65-1.24-2.8-0.82c-0.42,0.15-0.89,0.18-1.33,0.27c0.03-0.7,0.69-1.23,0.45-2.03
		c-0.1-0.34,0.42-0.32,0.66-0.41c1.77-0.67,3.53-0.33,5.27,0.16c-1.07,0.39-1.68,1.15-1.83,2.28
		C37.79,15.66,37.68,15.87,37.41,15.94z"/>
	<path class="st11" d="M35.03,23.74c0.42-0.51,0.84-1.02,1.26-1.53c0.03,0.28-0.03,0.59,0.27,0.78
		C36.21,23.56,35.7,23.8,35.03,23.74z"/>
	<path class="st11" d="M37.02,20.7c0.12-0.75,0.24-1.5,0.36-2.25C37.7,19.27,37.8,20.05,37.02,20.7z"/>
	<path class="st11" d="M37.41,17.93c-0.07-0.36-0.13-0.72,0.07-1.06C37.94,17.25,38.09,17.61,37.41,17.93z"/>
	<path class="st11" d="M36.51,21.94c0.06-0.47,0.2-0.91,0.53-1.26C37.07,21.19,37.23,21.75,36.51,21.94z"/>
	<path class="st11" d="M36.29,22.22c0.08-0.1,0.16-0.19,0.24-0.29C36.45,22.03,36.37,22.13,36.29,22.22z"/>
	<path class="st11" d="M34.06,24.31c0.33-0.19,0.56-0.54,0.97-0.57C34.94,24.32,34.65,24.56,34.06,24.31z"/>
	<path class="st0" d="M22.22,29.11c0.76,0.39,1.22,1.21,2.11,1.36c0.04,0.56-0.52,0.53-0.67,0.85c-0.38,0.22-0.72,0.38-0.92-0.23
		C22.51,30.44,22.17,29.83,22.22,29.11z"/>
	<path class="st0" d="M40.09,57.73c0.09,0.09,0.18,0.18,0.27,0.27C40.15,58.02,40.12,57.87,40.09,57.73z"/>
	<path class="st0" d="M40.3,58.02c0.27,0.03,0.22,0.12,0.04,0.23C40.26,58.18,40.25,58.1,40.3,58.02z"/>
	<path class="st14" d="M32.59,18.76c0.75-0.41,1.31-0.73,2.05-0.81c-0.01,0.98-0.07,1.87-0.75,2.77
		C33.79,19.8,33.38,19.22,32.59,18.76z"/>
	<path class="st14" d="M29.92,20.97c0.33,0.49,0.52,1.05,1.32,1.5c-0.98,0.08-1.75,0.27-2.12-0.31
		C28.9,21.84,29.52,21.35,29.92,20.97z"/>
</g>
</svg>
