<svg id="Layer_1" data-name="Layer 1" xmlns="http://www.w3.org/2000/svg" viewBox="0 0 500 500"><defs><style>.cls-1{fill:#d87373;}.cls-2{fill:#ff8b87;}.cls-3{fill:#fff;}.cls-4{fill:#e3711c;}.cls-5{fill:#fba627;}.cls-6{fill:#000028;}.cls-7{fill:#ffa1a1;}.cls-8{fill:#fbb98b;}.cls-9{fill:#0ba478;}.cls-10{fill:#b5304c;}.cls-11{opacity:0.2;}.cls-12{opacity:0.5;}</style></defs><title>Untitled-1</title><path class="cls-1" d="M57.75,405.93v32.9H192.69c17.8,0,17.8-32.9,0-32.9Z"/><path class="cls-2" d="M26.1,405.93v32.9H161c17.81,0,17.81-32.9,0-32.9Z"/><path class="cls-3" d="M26.1,411.28v22.19H149.44c13.23,0,13.23-22.19,0-22.19Z"/><path class="cls-2" d="M142.91,417H26.1v1.32H142.91a.66.66,0,1,0,0-1.32Z"/><path class="cls-2" d="M142.91,421.88H26.1v1.32H142.91a.66.66,0,1,0,0-1.32Z"/><path class="cls-2" d="M142.91,426.87H26.1v1.32H142.91a.66.66,0,1,0,0-1.32Z"/><path class="cls-4" d="M37.7,373.14V406h135c17.8,0,17.8-32.9,0-32.9Z"/><path class="cls-5" d="M6.06,373.14V406H141c17.8,0,17.8-32.9,0-32.9Z"/><path class="cls-3" d="M6.06,378.5v22.19H129.4c13.23,0,13.23-22.19,0-22.19Z"/><path class="cls-2" d="M122.87,384.2H6.06v1.32H122.87a.66.66,0,0,0,0-1.32Z"/><path class="cls-2" d="M122.87,389.1H6.06v1.32H122.87a.66.66,0,0,0,0-1.32Z"/><path class="cls-2" d="M122.87,394.09H6.06v1.32H122.87a.66.66,0,0,0,0-1.32Z"/><path class="cls-6" d="M48.09,340.23v32.9H183c17.81,0,17.81-32.9,0-32.9Z"/><path class="cls-7" d="M16.44,340.23v32.9h135c17.8,0,17.8-32.9,0-32.9Z"/><path class="cls-3" d="M16.44,345.58v22.19H139.79c13.23,0,13.23-22.19,0-22.19Z"/><path class="cls-2" d="M133.26,351.28H16.44v1.32H133.26a.66.66,0,1,0,0-1.32Z"/><path class="cls-2" d="M133.26,356.18H16.44v1.32H133.26a.66.66,0,0,0,0-1.32Z"/><path class="cls-2" d="M133.26,361.17H16.44v1.32H133.26a.66.66,0,0,0,0-1.32Z"/><polygon class="cls-2" points="95.68 363.69 92.04 360.32 88.4 363.69 88.4 351.31 95.68 351.31 95.68 363.69"/><polygon class="cls-5" points="78.54 304.29 89.78 305.69 91.05 295.42 91.12 294.85 92.09 287.05 92.17 286.47 93.36 276.84 93.43 276.27 94.41 268.43 94.48 267.86 95.6 258.87 95.67 258.3 96.65 250.44 96.72 249.87 97.88 240.53 97.95 239.96 98.92 232.13 98.99 231.56 99.28 229.25 88.04 227.85 87.71 230.49 87.64 231.06 86.67 238.83 86.6 239.41 85.43 248.79 85.36 249.36 84.39 257.19 84.32 257.76 83.2 266.79 83.13 267.37 82.16 275.15 82.09 275.73 80.88 285.41 80.81 285.99 79.85 293.72 79.78 294.3 78.54 304.29"/><line class="cls-4" x1="95.7" y1="233.57" x2="86.2" y2="306.2"/><path class="cls-4" d="M86.2,306.56a.35.35,0,0,0,.36-.31l9.5-72.63a.36.36,0,0,0-.31-.41.38.38,0,0,0-.41.32l-9.5,72.62a.38.38,0,0,0,.32.41Z"/><line class="cls-4" x1="90.41" y1="233" x2="80.85" y2="306.11"/><path class="cls-4" d="M81,306.47a.37.37,0,0,0,.37-.31l9.56-73.11a.37.37,0,0,0-.32-.41.36.36,0,0,0-.41.31l-9.56,73.11a.38.38,0,0,0,.32.41Z"/><line class="cls-4" x1="93.04" y1="233.32" x2="83.65" y2="306.22"/><path class="cls-4" d="M83.64,306.59a.36.36,0,0,0,.37-.32l9.39-72.9a.36.36,0,0,0-.31-.41.38.38,0,0,0-.41.32l-9.39,72.9a.35.35,0,0,0,.31.4Z"/><rect class="cls-6" x="81.45" y="301.71" width="4.81" height="11.33" transform="translate(-231.52 352.68) rotate(-82.91)"/><path class="cls-2" d="M78.62,313.72l8.77,1.09a1.25,1.25,0,0,0,1.39-1.08l.4-3.26-11.24-1.4-.4,3.26A1.24,1.24,0,0,0,78.62,313.72Z"/><polygon class="cls-8" points="88.04 227.85 99.28 229.25 97.64 222.36 97.11 220.12 95.72 214.25 92.73 219.55 91.59 221.55 88.04 227.85"/><path class="cls-6" d="M92.73,219.55a21.36,21.36,0,0,0,4.38.57l-1.39-5.87Z"/><polygon class="cls-7" points="53.33 309.09 64.6 307.96 63.57 297.67 63.51 297.09 62.73 289.26 62.67 288.69 61.7 279.04 61.65 278.46 60.86 270.6 60.8 270.03 59.9 261.01 59.84 260.44 59.05 252.56 59 251.99 58.06 242.62 58 242.05 57.22 234.2 57.16 233.63 56.93 231.31 45.65 232.44 45.92 235.09 45.98 235.66 46.76 243.45 46.81 244.03 47.76 253.44 47.81 254.01 48.6 261.86 48.66 262.43 49.56 271.49 49.62 272.06 50.4 279.87 50.46 280.44 51.44 290.16 51.49 290.74 52.27 298.48 52.33 299.07 53.33 309.09"/><line class="cls-4" x1="54.4" y1="236.32" x2="61.23" y2="309.25"/><path class="cls-9" d="M61.31,309.6a.36.36,0,0,0,.28-.39l-6.83-72.92a.37.37,0,0,0-.73.07l6.84,72.92a.36.36,0,0,0,.39.33Z"/><line class="cls-4" x1="49.1" y1="236.93" x2="55.98" y2="310.34"/><path class="cls-9" d="M56.22,310.67a.37.37,0,0,0,.28-.39l-6.88-73.41a.36.36,0,0,0-.72.06l6.88,73.41a.36.36,0,0,0,.39.33Z"/><line class="cls-4" x1="51.75" y1="236.67" x2="58.74" y2="309.84"/><path class="cls-9" d="M58.82,310.19a.37.37,0,0,0,.29-.39l-7-73.17a.37.37,0,0,0-.4-.33.38.38,0,0,0-.33.4l7,73.17a.37.37,0,0,0,.4.33Z"/><rect class="cls-6" x="53.54" y="308.51" width="11.33" height="4.81" transform="translate(-30.69 7.45) rotate(-5.72)"/><path class="cls-2" d="M55.5,318.26l8.8-.88A1.24,1.24,0,0,0,65.41,316l-.33-3.27-11.27,1.13.33,3.27A1.24,1.24,0,0,0,55.5,318.26Z"/><polygon class="cls-8" points="45.65 232.44 56.92 231.31 53.8 224.96 52.79 222.89 50.13 217.48 48.39 223.3 47.73 225.51 45.65 232.44"/><path class="cls-6" d="M48.39,223.3a20.49,20.49,0,0,0,4.4-.41l-2.66-5.41Z"/><polygon class="cls-2" points="66.3 228.47 77.6 229.09 77.04 239.42 77.01 239.99 76.58 247.85 76.55 248.43 76.02 258.11 75.99 258.69 75.56 266.58 75.53 267.15 75.03 276.2 75 276.77 74.57 284.68 74.54 285.25 74.02 294.65 73.99 295.23 73.56 303.11 73.53 303.68 73.41 306.01 62.09 305.39 62.24 302.73 62.27 302.15 62.7 294.34 62.73 293.76 63.24 284.31 63.27 283.74 63.7 275.87 63.74 275.29 64.23 266.21 64.27 265.63 64.69 257.79 64.72 257.21 65.26 247.47 65.29 246.88 65.72 239.11 65.74 238.53 66.3 228.47"/><line class="cls-4" x1="70.65" y1="301.11" x2="74.18" y2="227.96"/><path class="cls-1" d="M74.24,227.6a.35.35,0,0,1,.3.37L71,301.13a.37.37,0,0,1-.38.35.36.36,0,0,1-.34-.38l3.53-73.16a.37.37,0,0,1,.38-.35Z"/><line class="cls-4" x1="65.34" y1="300.74" x2="68.89" y2="227.1"/><path class="cls-1" d="M69.11,226.76a.36.36,0,0,1,.3.38l-3.55,73.65a.36.36,0,0,1-.38.34.37.37,0,0,1-.35-.38l3.55-73.65a.36.36,0,0,1,.38-.34Z"/><line class="cls-4" x1="67.99" y1="300.89" x2="71.67" y2="227.48"/><path class="cls-1" d="M71.73,227.12a.36.36,0,0,1,.3.38l-3.68,73.41a.36.36,0,1,1-.72,0l3.68-73.41a.37.37,0,0,1,.38-.35Z"/><rect class="cls-6" x="69.67" y="220.71" width="4.81" height="11.33" transform="translate(-157.89 286.01) rotate(-86.87)"/><path class="cls-2" d="M68.05,219.21l8.82.48A1.26,1.26,0,0,1,78.05,221l-.18,3.28-11.31-.61.18-3.29A1.24,1.24,0,0,1,68.05,219.21Z"/><polygon class="cls-8" points="62.09 305.39 73.4 306.01 70.57 312.5 69.65 314.61 67.24 320.13 65.24 314.39 64.48 312.21 62.09 305.39"/><path class="cls-6" d="M65.24,314.39a20.43,20.43,0,0,1,4.41.22l-2.41,5.52Z"/><path class="cls-2" d="M39,271.19l0,.42.31,2.48,1.88,15,.16,1.28,2.54,20.28.16,1.22.54,4.31.15,1.22,1.39,11.08.15,1.19,1.33,10.59H96.08l.74-5.94.2-1.61h0l2.56-20.36.2-1.6h0l1.14-9.1.19-1.47,2.74-21.87.84-6.65,0-.42Z"/><path class="cls-10" d="M97.45,297.38a19.87,19.87,0,0,0,3.47,4.22l.19-1.47a18.41,18.41,0,0,1-3.21-4.35c-2.92-5.55-2.93-12-1.48-18a41,41,0,0,1,1.55-5c.28-.72-.87-1-1.15-.32a42,42,0,0,0-1.61,5.21C93.66,284.32,93.83,291.49,97.45,297.38Z"/><path class="cls-10" d="M41.23,289l.16,1.28A29.17,29.17,0,0,0,53.85,275q.28-.84.54-1.71a.6.6,0,0,0-1.15-.31q-.29,1-.63,1.95A28.07,28.07,0,0,1,41.23,289Z"/><path class="cls-10" d="M43.93,310.6l.16,1.22A31.83,31.83,0,0,0,64.2,275.7c-.15-.79-.33-1.58-.53-2.35a.6.6,0,0,0-1.15.32c.17.64.32,1.29.46,1.95A31.29,31.29,0,0,1,58.51,299,31.09,31.09,0,0,1,43.93,310.6Z"/><path class="cls-10" d="M44.63,316.13l.15,1.22c7.39-3,15.92-2.66,22.63,2.11a19.52,19.52,0,0,1,7.76,20.75h1.22A20.65,20.65,0,0,0,69,319.14C61.94,313.63,52.67,313,44.63,316.13Z"/><path class="cls-10" d="M46.17,328.43l.15,1.19A12.8,12.8,0,0,1,58,332.72a12.55,12.55,0,0,1,3.69,7.49h1.2a13.75,13.75,0,0,0-4.05-8.33A14,14,0,0,0,46.17,328.43Z"/><path class="cls-10" d="M72.72,292.21c.47,6.62,3.62,12,7.4,17.27,4.12,5.78,7.65,11.51,8.1,18.78a29,29,0,0,1-1.78,11.95h1.27a30.75,30.75,0,0,0-3.55-27c-3.81-5.82-8.53-11.07-9.87-18.12a25.87,25.87,0,0,1,3.53-18.51c.29-.48.61-1,1-1.42.44-.62-.59-1.21-1-.6s-.88,1.27-1.27,1.93A27.13,27.13,0,0,0,72.72,292.21Z"/><path class="cls-10" d="M96.82,334.27l.2-1.61h0a14.21,14.21,0,0,1,2.56-20.36l.2-1.6a15.47,15.47,0,0,0-3,23.57Z"/><polygon class="cls-6" points="38.99 271.19 39.35 274.09 103.85 278.26 104.74 271.19 38.99 271.19"/><polygon class="cls-2" points="33.32 256.29 36.08 271.61 107.65 271.61 110.41 256.29 33.32 256.29"/><g class="cls-11"><path class="cls-2" d="M144.51,132.57A1,1,0,0,0,143,134c1.13,1.25,2.3,2.47,3.48,3.63a1,1,0,0,0,.87.28,1.06,1.06,0,0,0,.59-.29,1,1,0,0,0,0-1.46C146.76,135,145.62,133.79,144.51,132.57Z"/><path class="cls-2" d="M152.42,140.26a1,1,0,0,0-1.46.12,1,1,0,0,0,.12,1.45c1.28,1.1,2.6,2.16,3.92,3.15a1,1,0,0,0,.77.19,1,1,0,0,0,.67-.4,1,1,0,0,0-.2-1.44C155,142.36,153.67,141.33,152.42,140.26Z"/><path class="cls-2" d="M165.5,149.24c-1.42-.75-2.84-1.58-4.23-2.45a1,1,0,0,0-1.1,1.75c1.43.9,2.9,1.75,4.36,2.53a1.07,1.07,0,0,0,.63.11,1,1,0,0,0,.34-1.94Z"/><path class="cls-2" d="M197.15,156.14a40.39,40.39,0,0,1-4.84.22,1,1,0,0,0,0,2.07,42,42,0,0,0,5.07-.24h0a1,1,0,0,0-.26-2.05Z"/><path class="cls-2" d="M175.58,153.53c-1.53-.49-3.07-1.06-4.57-1.68a1,1,0,1,0-.79,1.91c1.55.64,3.14,1.23,4.72,1.74a1.09,1.09,0,0,0,.47,0,1,1,0,0,0,.17-2Z"/><path class="cls-2" d="M186.26,155.93c-1.61-.21-3.22-.48-4.8-.82a1,1,0,1,0-.43,2c1.63.35,3.3.63,5,.85a.93.93,0,0,0,.29,0,1,1,0,0,0,0-2Z"/><path class="cls-2" d="M195.83,142.74a1,1,0,0,0,1.16.8h.07a1,1,0,0,0,.79-1.22c-.19-.88-.34-1.76-.47-2.63-.11-.72-.2-1.44-.26-2.16a1,1,0,0,0-1.13-.93,1,1,0,0,0-.93,1.13c.07.74.16,1.51.27,2.26C195.47,140.89,195.63,141.82,195.83,142.74Z"/><path class="cls-2" d="M198.48,121.67a1,1,0,0,0,.68.14,1.06,1.06,0,0,0,.74-.5,12.65,12.65,0,0,1,2.94-3.48,1,1,0,0,0-1.29-1.61,14.69,14.69,0,0,0-3.43,4A1,1,0,0,0,198.48,121.67Z"/><path class="cls-2" d="M195.93,132.46h.23a1,1,0,0,0,.87-.95,30.2,30.2,0,0,1,.72-4.73,1,1,0,0,0-2-.48,30.76,30.76,0,0,0-.78,5.06A1,1,0,0,0,195.93,132.46Z"/><path class="cls-2" d="M137.56,124a1,1,0,1,0-1.67,1.21c1,1.35,2,2.7,3,4a1,1,0,0,0,1,.38,1.08,1.08,0,0,0,.49-.22,1,1,0,0,0,.16-1.45C139.51,126.63,138.52,125.31,137.56,124Z"/><path class="cls-2" d="M199.52,148.12a1,1,0,1,0-1.94.71,45.69,45.69,0,0,0,2,4.66,1,1,0,0,0,1.07.56A.85.85,0,0,0,201,154a1,1,0,0,0,.47-1.39A40.81,40.81,0,0,1,199.52,148.12Z"/><path class="cls-2" d="M131.71,114.65a1,1,0,0,0-1.39-.47,1,1,0,0,0-.46,1.39c0,.07.87,1.73,2.53,4.4a1,1,0,0,0,1,.48.93.93,0,0,0,.39-.15,1,1,0,0,0,.34-1.42C132.54,116.3,131.72,114.66,131.71,114.65Z"/><path class="cls-2" d="M225.67,172.86a38.39,38.39,0,0,1-4.57-1.56,1,1,0,0,0-.79,1.91,42.56,42.56,0,0,0,4.81,1.65,1.19,1.19,0,0,0,.42,0,1,1,0,0,0,.13-2Z"/><path class="cls-2" d="M236.45,174.43c-.89,0-1.8-.1-2.7-.17-.72-.06-1.45-.13-2.16-.22a1,1,0,0,0-.26,2.05c.74.09,1.5.17,2.26.23.92.08,1.85.13,2.77.18l.2,0a1,1,0,0,0-.11-2Z"/><path class="cls-2" d="M224.6,127.08a1,1,0,0,0-1.19-.85,1,1,0,0,0-.85,1.19c0,.12,0,.23.05.35a20.23,20.23,0,0,1,.16,4.35,1,1,0,0,0,1,1.1H224a1,1,0,0,0,.88-1,22.51,22.51,0,0,0-.17-4.8Z"/><path class="cls-2" d="M247.43,174.11c-1.58.17-3.22.29-4.87.35a1,1,0,0,0,.08,2.07c1.7-.06,3.39-.19,5-.37h0a1,1,0,0,0,.87-1.13A1,1,0,0,0,247.43,174.11Z"/><path class="cls-2" d="M221.61,137.93a25.42,25.42,0,0,1-1.93,4.34,1,1,0,0,0,.39,1.41,1,1,0,0,0,.66.12,1,1,0,0,0,.75-.51,27,27,0,0,0,2.09-4.71,1,1,0,1,0-2-.65Z"/><path class="cls-2" d="M258.12,171.86c-1.51.48-3.09.91-4.69,1.26a1,1,0,0,0,.37,2h.08c1.66-.37,3.3-.81,4.87-1.31a1,1,0,0,0-.63-2Z"/><path class="cls-2" d="M204.49,157.78a1,1,0,0,0-1.43-.26,1,1,0,0,0-.27,1.44,43.89,43.89,0,0,0,3.14,4,1,1,0,0,0,.92.33,1,1,0,0,0,.62-1.71A41.23,41.23,0,0,1,204.49,157.78Z"/><path class="cls-2" d="M207.54,153.35a30,30,0,0,1-4.49,1.66,1,1,0,0,0,.43,2l.14,0a34.15,34.15,0,0,0,4.79-1.77,1,1,0,0,0-.87-1.88Z"/><path class="cls-2" d="M220.63,122a1,1,0,0,0,1.78-1,14.62,14.62,0,0,0-3.46-4,1,1,0,1,0-1.29,1.61A12.61,12.61,0,0,1,220.63,122Z"/><path class="cls-2" d="M210,115.69a16.72,16.72,0,0,1,2.5.36,1,1,0,1,0,.47-2,17.23,17.23,0,0,0-2.83-.41,13.2,13.2,0,0,0-2.44,0,1,1,0,0,0,.23,2A11.85,11.85,0,0,1,210,115.69Z"/><path class="cls-2" d="M215.74,168.56a38.73,38.73,0,0,1-3.92-2.8,1,1,0,1,0-1.31,1.6,39.88,39.88,0,0,0,4.14,2.95,1,1,0,0,0,1.42-.33A1,1,0,0,0,215.74,168.56Z"/><path class="cls-2" d="M216.19,147.09a26.84,26.84,0,0,1-3.53,3.2,1,1,0,0,0,.78,1.85,1.14,1.14,0,0,0,.47-.2,29,29,0,0,0,3.8-3.45,1,1,0,1,0-1.52-1.4Z"/></g><path class="cls-1" d="M444.22,144.5s19.44,19.55,22.69,89.45c3.95,85-20.36,124.69-20.36,124.69l-6.06-76.4s17.72-91.16-16.93-128.07C426.35,148.66,433.62,145.65,444.22,144.5Z"/><path class="cls-2" d="M379.74,148.77s11.84-14.94,26.44-17c16.66-2.31,44.65,14.49,37.64,14.31-9.53-.26-27.24,12.36-29,23.53Z"/><path class="cls-1" d="M372.34,137.13s20.8,19.78,24.05,89.67C400.34,311.85,376,351.49,376,351.49L370,275.09S387.69,183.94,353,147Z"/><path class="cls-2" d="M296.38,153.14s26.95-26,41.68-26.6S370.8,132.42,373.3,139s-27.24,12.37-29,23.53Z"/><path class="cls-1" d="M188,322.86s-11.09,63.95,23.93,69.4V319.94Z"/><path class="cls-6" d="M390.84,442.68H293.16A51.94,51.94,0,0,1,242,399.88c-9.71-54.66-4.62-136.64-.1-182,.06-.6.13-1.2.19-1.8,4.39-39.43,9.86-69.15,49.54-69.15h72.7A78,78,0,0,1,441.92,216c.06.6.13,1.2.19,1.8,4.52,45.4,9.62,127.38-.1,182A51.94,51.94,0,0,1,390.84,442.68Z"/><path class="cls-5" d="M356.1,155.46,342,157.83a42.78,42.78,0,0,0-1.05-4.15,50.56,50.56,0,0,0-5.12-11.6C330.1,132.72,322.09,128,312,128c-10.27,0-18,4.69-23.59,14.35a49.65,49.65,0,0,0-4.72,11.37,40.07,40.07,0,0,0-.92,4l-14.14-2.1a63.93,63.93,0,0,1,7.42-20.44c8.16-14.05,20.59-21.47,36-21.47s27.85,7.39,36.25,21.37A64.66,64.66,0,0,1,356.1,155.46Z"/><g class="cls-12"><path class="cls-4" d="M345.08,153l-4.12.69a50.56,50.56,0,0,0-5.12-11.6C330.1,132.72,322.09,128,312,128c-10.27,0-18,4.69-23.59,14.35a49.65,49.65,0,0,0-4.72,11.37l-4-.59a47.57,47.57,0,0,1,5.55-15.3c6.1-10.5,16.14-16.05,26.89-16.05,10.59,0,20.83,5.52,27.11,16A48.46,48.46,0,0,1,345.08,153Z"/></g><path class="cls-2" d="M367.85,148.14c23.15,4,40.76,22.49,50,43.25,4.32,9.66,6.62,20,8.28,30.43,1.89,11.88,2.93,23.88,3.66,35.88.75,12.35,1.12,24.71,1.35,37.08a.58.58,0,0,0,1.16,0c-.43-23.42-1.19-47-4.58-70.18-1.55-10.64-3.67-21.32-7.79-31.3a87.19,87.19,0,0,0-18.71-28.44c-9-9-20.41-15.66-33.08-17.85-.74-.12-1.05,1-.31,1.13Z"/><path class="cls-7" d="M204.4,294.64s-23.25,11.94-22.17,28.22h22.29S209.74,310.38,204.4,294.64Z"/><path class="cls-1" d="M449.84,325.28s12.18,64.26-26.28,70.25c3.49-30,5.13-55.3,3.62-73.78Z"/><path class="cls-7" d="M425.57,295.09l1.8,29.78c9.1,2.84,18.26,2.84,28.77.41C456.17,307.21,438.31,292.45,425.57,295.09Z"/><path class="cls-2" d="M414.26,348.5h0l-.06,1.58c0,.93-.08,1.86-.13,2.79L414,354.3a373,373,0,0,1-4.77,45.58,53,53,0,0,1-1.55,6.35c-.2.63-.4,1.25-.63,1.87a52,52,0,0,1-49,34.58H260.38a52,52,0,0,1-47.23-30.22c-.29-.63-.57-1.26-.83-1.9a51.35,51.35,0,0,1-3.11-10.68A373,373,0,0,1,204.42,354l-.06-1.4c-1.27-26.86-.66-55.57.71-81.52,0-.48.05-1,.08-1.45.72-13.47,1.66-26.18,2.62-37.45,0-.42.08-.82.11-1.23.41-4.65.82-9.05,1.24-13.16,0-.6.12-1.19.19-1.79a77.71,77.71,0,0,1,41.33-60.26q.56-.3,1.11-.57a78,78,0,0,1,35.15-8.33h44.64a78.09,78.09,0,0,1,27.69,5.05l1.18.46A77.8,77.8,0,0,1,409.14,216c.06.6.13,1.19.19,1.79.49,5,1,10.35,1.48,16.1,0,.41.07.81.1,1.22.89,10.58,1.73,22.3,2.4,34.68,0,.47.05.95.07,1.43,0,.84.09,1.69.13,2.54,0,.52.05,1,.08,1.57C414.74,298.84,415.23,324.31,414.26,348.5Z"/><path class="cls-1" d="M407.69,406.23c-.2.63-.4,1.25-.63,1.87-9.65,6.64-21.19,10.84-32.24,13.94-13.67,3.83-27.51,5.44-41.65,6.23a476.38,476.38,0,0,1-54.63-.13c-17.35-1-35.1-2.4-51.46-8.74a82.24,82.24,0,0,1-13.93-6.94c-.29-.63-.57-1.26-.83-1.9a84.13,84.13,0,0,0,22.06,10.11c17,5.1,35.14,6,52.8,6.78a459.74,459.74,0,0,0,51.17-.66A173.58,173.58,0,0,0,379,419.57C388.93,416.47,399.14,412.4,407.69,406.23Z"/><path class="cls-1" d="M223.58,328.88A54.09,54.09,0,0,1,204.43,354c0-.46-.05-.93-.07-1.39a53.27,53.27,0,0,0,8.1-7.43c10.21-11.57,15.06-27.33,12.08-42.58a52.8,52.8,0,0,0-19.47-31.52c0-.48.05-1,.07-1.45a52.79,52.79,0,0,1,12.8,13.64C226.7,296.76,229.15,313.72,223.58,328.88Z"/><path class="cls-1" d="M414.07,352.87,414,354.3a52.34,52.34,0,0,1-8.73-7.83c-10.51-11.77-15.55-27.76-12.7-43.37a53.85,53.85,0,0,1,20.72-33.27c0,.47.06.95.08,1.42a51.56,51.56,0,0,0-12.06,13.1c-8.37,13-10.76,29.21-5.56,43.87A52.85,52.85,0,0,0,414.07,352.87Z"/><path class="cls-1" d="M360.41,152.39a75.29,75.29,0,0,1-15.74,13.72,74.17,74.17,0,0,1-50.51,11.57,76.09,76.09,0,0,1-43.52-21.9q.56-.3,1.11-.57a74.12,74.12,0,0,0,19.5,14.1,72.89,72.89,0,0,0,52.08,5.22,75.15,75.15,0,0,0,35.9-22.6Z"/><path class="cls-6" d="M381.55,397c-6.14,9.29-38.18,12-68,12.08-29.77-.08-61.82-2.79-68-12.08-8.36-12.65-8.91-48.38-8.6-66.78.12-7,5-12.88,11.47-13.76,17.07-2.35,41.55-4.9,65.09-4.87s48,2.52,65.1,4.87c6.46.88,11.34,6.74,11.46,13.76C390.46,348.66,389.91,384.39,381.55,397Z"/><path class="cls-7" d="M374.22,396.18c-6.14,9.29-38.19,12-68,12.08-29.78-.08-61.82-2.79-68-12.08-8.36-12.65-8.91-48.38-8.6-66.78.12-7,5-12.88,11.46-13.76,17.08-2.35,41.55-4.9,65.1-4.87s48,2.52,65.09,4.87c6.46.88,11.35,6.74,11.46,13.76C383.13,347.8,382.58,383.53,374.22,396.18Z"/><path class="cls-6" d="M228.86,330.12c6.72,7.94,15.92,12.59,25.47,16.28a135.12,135.12,0,0,0,100.13-1.2A136.79,136.79,0,0,0,386,326.86c.59-.46-.24-1.28-.83-.82a133.66,133.66,0,0,1-125.53,21c-11.07-3.78-22.21-8.68-29.93-17.79-.48-.58-1.3.25-.82.82Z"/><path class="cls-6" d="M413.44,234.27c-.84.3-1.68.6-2.53.88a291.34,291.34,0,0,1-43.71,11.5A301.36,301.36,0,0,1,283.41,250a296,296,0,0,1-75.63-17.75c0-.42.07-.82.1-1.23A291.24,291.24,0,0,0,247,242.84a300.38,300.38,0,0,0,83.6,7,294.89,294.89,0,0,0,80.22-15.87l2.31-.81C413.85,232.86,414.16,234,413.44,234.27Z"/><path class="cls-6" d="M376,262.14c-2.52,14.49-24.75,22.78-63.55,22.78-34.27,0-61-8.28-63.56-22.78-1.81-10.44,1.71-24.59,5.59-35.93a28.2,28.2,0,0,1,26.68-19.09h62.57a28.22,28.22,0,0,1,26.69,19.09C374.24,237.55,377.76,251.7,376,262.14Z"/><path class="cls-7" d="M367.61,256.19C365.09,270.68,342.86,279,304.06,279c-34.26,0-61-8.28-63.55-22.77-1.82-10.44,1.71-24.59,5.58-35.93a28.62,28.62,0,0,1,3.53-7c.23-.33.46-.65.7-1a28.16,28.16,0,0,1,22.46-11.15h62.57a28.19,28.19,0,0,1,21.45,9.9c.25.3.51.61.75.93a28.08,28.08,0,0,1,4.48,8.26C365.91,231.6,369.43,245.75,367.61,256.19Z"/><path class="cls-6" d="M336.34,230.16h-4.73a1.71,1.71,0,0,0-1.7,1.59l-.79,11.42a1.71,1.71,0,0,0,1.7,1.82h6.54a1.7,1.7,0,0,0,1.7-1.85l-1-11.42A1.71,1.71,0,0,0,336.34,230.16ZM332.19,238l.17-2.52a1.72,1.72,0,0,1,1.71-1.59h0a1.71,1.71,0,0,1,1.69,1.56L336,238a1.71,1.71,0,0,1-1.7,1.85h-.4A1.7,1.7,0,0,1,332.19,238Z"/><rect class="cls-6" x="333.3" y="222.77" width="1.59" height="8.4"/><path class="cls-6" d="M367.65,346.81h-4.73a1.7,1.7,0,0,0-1.7,1.58l-.79,11.43a1.71,1.71,0,0,0,1.7,1.82h6.54a1.71,1.71,0,0,0,1.7-1.86l-1-11.42A1.7,1.7,0,0,0,367.65,346.81Zm-4.15,7.81.17-2.52a1.71,1.71,0,0,1,1.7-1.58h0a1.7,1.7,0,0,1,1.7,1.55l.23,2.52a1.71,1.71,0,0,1-1.7,1.86h-.4A1.71,1.71,0,0,1,363.5,354.62Z"/><rect class="cls-6" x="364.61" y="339.41" width="1.59" height="8.4"/><path class="cls-6" d="M357.55,212a98.62,98.62,0,0,1-107.93,1.28c.23-.33.46-.65.7-1a97.45,97.45,0,0,0,106.48-1.25C357.05,211.37,357.31,211.68,357.55,212Z"/><polygon class="cls-6" points="126.22 112.46 109 101.16 114.52 91.55 132.27 95.34 126.22 112.46"/><polygon class="cls-2" points="145.47 89.14 82.72 73.92 128.76 96.98 145.47 89.14"/><polygon class="cls-2" points="82.72 73.92 123.84 98.69 97.01 108.88 82.72 73.92"/><polygon class="cls-6" points="132.27 95.34 126.22 112.46 123.84 98.69 84.15 74.82 132.27 95.34"/><polygon class="cls-5" points="473.6 439 464.56 439.7 450.4 440.79 432.19 204.49 446.52 203.38 455.38 202.7 473.6 439"/><g class="cls-12"><polygon class="cls-4" points="473.6 439 464.56 439.7 446.52 203.38 455.38 202.7 473.6 439"/></g><rect class="cls-6" x="449.4" y="209.76" width="4.38" height="1.65" transform="matrix(1, -0.08, 0.08, 1, -14.9, 35.48)"/><rect class="cls-6" x="450.14" y="219.28" width="4.39" height="1.65" transform="translate(-15.64 35.57) rotate(-4.43)"/><rect class="cls-6" x="450.88" y="228.8" width="4.39" height="1.65" transform="translate(-16.37 35.65) rotate(-4.43)"/><rect class="cls-6" x="451.61" y="238.32" width="4.39" height="1.65" transform="translate(-17.1 35.74) rotate(-4.43)"/><rect class="cls-6" x="452.35" y="247.84" width="4.39" height="1.65" transform="translate(-17.84 35.83) rotate(-4.43)"/><rect class="cls-6" x="453.09" y="257.36" width="4.39" height="1.65" transform="translate(-18.57 35.9) rotate(-4.43)"/><rect class="cls-6" x="453.82" y="266.89" width="4.39" height="1.65" transform="translate(-19.3 35.99) rotate(-4.43)"/><rect class="cls-6" x="454.56" y="276.41" width="4.38" height="1.65" transform="translate(-20.03 36.08) rotate(-4.43)"/><rect class="cls-6" x="455.3" y="285.93" width="4.39" height="1.65" transform="translate(-20.74 36.12) rotate(-4.42)"/><rect class="cls-6" x="456.03" y="295.45" width="4.39" height="1.65" transform="translate(-21.5 36.25) rotate(-4.43)"/><rect class="cls-6" x="456.77" y="304.97" width="4.39" height="1.65" transform="translate(-22.22 36.32) rotate(-4.42)"/><rect class="cls-6" x="457.51" y="314.49" width="4.38" height="1.65" transform="translate(-22.97 36.42) rotate(-4.43)"/><rect class="cls-6" x="458.24" y="324.01" width="4.39" height="1.65" transform="translate(-23.69 36.49) rotate(-4.42)"/><rect class="cls-6" x="458.98" y="333.54" width="4.39" height="1.65" transform="translate(-24.41 36.56) rotate(-4.42)"/><rect class="cls-6" x="459.7" y="343.06" width="4.39" height="1.65" transform="translate(-25.15 36.66) rotate(-4.42)"/><rect class="cls-6" x="460.43" y="352.58" width="4.39" height="1.65" transform="translate(-25.88 36.74) rotate(-4.42)"/><rect class="cls-6" x="461.17" y="362.1" width="4.39" height="1.65" transform="translate(-26.62 36.83) rotate(-4.42)"/><rect class="cls-6" x="461.91" y="371.62" width="4.39" height="1.65" transform="translate(-27.36 36.92) rotate(-4.43)"/><rect class="cls-6" x="462.64" y="381.14" width="4.39" height="1.65" transform="translate(-28.11 37.04) rotate(-4.43)"/><rect class="cls-6" x="463.38" y="390.67" width="4.39" height="1.65" transform="translate(-28.87 37.16) rotate(-4.43)"/><rect class="cls-6" x="464.12" y="400.19" width="4.39" height="1.65" transform="translate(-29.54 37.16) rotate(-4.42)"/><rect class="cls-6" x="464.85" y="409.71" width="4.39" height="1.65" transform="translate(-30.25 37.22) rotate(-4.42)"/><rect class="cls-6" x="465.59" y="419.23" width="4.39" height="1.65" transform="translate(-31.05 37.4) rotate(-4.43)"/><rect class="cls-6" x="466.33" y="428.75" width="4.39" height="1.65" transform="translate(-31.75 37.43) rotate(-4.42)"/><g class="cls-11"><path class="cls-2" d="M126.45,186.6a5.22,5.22,0,1,0,6.08,4.19A5.22,5.22,0,0,0,126.45,186.6Z"/><path class="cls-2" d="M152.14,197a3.07,3.07,0,0,0-2-2.34,14.5,14.5,0,0,0-4.55-5.7c-.21-.18-.42-.35-.64-.51,2.78-4.47,3.54-8.53,1.65-11.07-2.15-2.88-7.16-3-13.17-.89-2.22-4.31-4.92-7.26-7.65-8.15a3.06,3.06,0,0,0-5.85,1.7s0,0,0,.06a14.69,14.69,0,0,0-2.93,6.49c-.19.83-.34,1.7-.46,2.6a28.85,28.85,0,0,0-3,.17c-5,.54-8.28,2.38-9.12,5.18s.85,6.12,4.77,9.35c.29.25.6.48.92.72-.23.36-.46.71-.66,1.06a16.21,16.21,0,0,0-2.23,5.82,3.06,3.06,0,0,0,2,5.68h0a8,8,0,0,0,4.72,1.27,18.91,18.91,0,0,0,4.51-.62,28,28,0,0,0,2.82-.85c2.68,5.22,6.07,8.45,9.35,8.45a4.91,4.91,0,0,0,.86-.08c3.6-.63,6-5.18,6.76-11.69,1,0,2-.06,2.91-.16,3.49-.38,6.11-1.37,7.68-2.88a2.8,2.8,0,0,0,.76,0A3.07,3.07,0,0,0,152.14,197ZM140.8,176.49c2.11,0,3.74.57,4.64,1.77,1.51,2,.74,5.47-1.67,9.34a41.57,41.57,0,0,0-7.57-4.13,44.39,44.39,0,0,0-2.12-5.63A21,21,0,0,1,140.8,176.49ZM137,202.22a42.68,42.68,0,0,1-5.45-.53c.72-.48,1.43-1,2.14-1.52q1.8-1.35,3.41-2.76A44.53,44.53,0,0,1,137,202.22Zm-4.17-3.2c-1.1.82-2.21,1.58-3.33,2.3-1.55-.32-3.12-.71-4.71-1.19a53,53,0,0,1-5.2-1.85c-.44-1.58-.83-3.23-1.13-4.94s-.55-3.63-.68-5.39c1.3-1.19,2.7-2.35,4.18-3.46s2.72-1.93,4.08-2.76q2,.44,4,1c1.73.52,3.41,1.12,5,1.77a53,53,0,0,1,1.33,5.65c.32,1.83.54,3.64.67,5.39A53.92,53.92,0,0,1,132.83,199Zm-5.11,3.38a41.66,41.66,0,0,1-5.62,2.77,42.88,42.88,0,0,1-2-5.13c1.38.54,2.8,1,4.27,1.47C125.5,201.85,126.61,202.14,127.72,202.4ZM117,193.59c.25,1.36.53,2.67.85,3.95a39.76,39.76,0,0,1-5.8-3.26,39.56,39.56,0,0,1,4.36-5.05C116.59,190.66,116.78,192.12,117,193.59Zm.79-12.92a44,44,0,0,1,6.14.65c-1,.63-1.91,1.3-2.87,2-1.19.89-2.33,1.82-3.42,2.77A40.34,40.34,0,0,1,117.83,180.67Zm10,0a40.82,40.82,0,0,1,4.85-2.32,42.9,42.9,0,0,1,1.75,4.4c-1.31-.51-2.65-1-4-1.38C129.56,181.12,128.7,180.89,127.85,180.68Zm9.89,9.24c-.28-1.61-.63-3.16-1-4.65A39.41,39.41,0,0,1,143,188.8a40.45,40.45,0,0,1-4.64,5.47C138.2,192.85,138,191.4,137.74,189.92Zm-19.33-13a14.41,14.41,0,0,1,2.24-5.39A3.06,3.06,0,0,0,126,170c2.1,1,4.24,3.53,6.08,7.06a45.15,45.15,0,0,0-6.28,3.17,45.94,45.94,0,0,0-7.77-1C118.11,178.44,118.25,177.66,118.41,176.93Zm-8.3,15.87c-3.38-2.79-5-5.65-4.3-7.82s3.53-3.7,7.9-4.17c.85-.09,1.75-.14,2.67-.15a45.11,45.11,0,0,0-.08,6.71,42.3,42.3,0,0,0-5.37,6.07Zm8.09,13.65c-3.12.77-5.68.74-7.37,0a3.06,3.06,0,0,0-2.07-5.29,16,16,0,0,1,1.94-4.7c.18-.32.38-.63.58-.95a42,42,0,0,0,7.09,3.86,45.67,45.67,0,0,0,2.35,6.36C119.86,206,119,206.24,118.2,206.45Zm13.12,7.49c-2.82.51-6-2.5-8.58-7.48a45.29,45.29,0,0,0,7-3.62,45.49,45.49,0,0,0,7.08.81C136.18,209.38,134.2,213.44,131.32,213.94Zm9.76-11.86c-.83.09-1.71.13-2.61.14a45.36,45.36,0,0,0,0-6.07,42,42,0,0,0,5.67-6.48l.52.42a14.27,14.27,0,0,1,3.84,4.48,3.07,3.07,0,0,0-1.18,5.5A13.14,13.14,0,0,1,141.08,202.08Z"/></g><g class="cls-11"><path class="cls-2" d="M354.35,68.63a5.22,5.22,0,1,0,6.07,4.19A5.22,5.22,0,0,0,354.35,68.63Z"/><path class="cls-2" d="M380,79.05a3,3,0,0,0-2-2.33A14.43,14.43,0,0,0,373.48,71c-.2-.17-.42-.34-.64-.51,2.78-4.47,3.55-8.53,1.65-11.07-2.15-2.87-7.15-3-13.17-.88-2.22-4.32-4.92-7.27-7.64-8.16a3.07,3.07,0,0,0-5.86,1.71.43.43,0,0,1,0,0,14.8,14.8,0,0,0-2.93,6.49c-.19.83-.34,1.7-.46,2.61a28.56,28.56,0,0,0-3,.16c-5.05.54-8.29,2.39-9.13,5.19s.86,6.12,4.77,9.34c.3.25.6.49.92.72-.23.36-.45.71-.66,1.06a16.21,16.21,0,0,0-2.23,5.82,3.07,3.07,0,0,0,2.05,5.69h0a8,8,0,0,0,4.72,1.27,19,19,0,0,0,4.52-.61c.91-.23,1.85-.52,2.81-.86,2.69,5.23,6.07,8.45,9.35,8.45a5.12,5.12,0,0,0,.87-.08c3.6-.63,6-5.17,6.76-11.69,1,0,2-.06,2.9-.16,3.49-.37,6.11-1.37,7.68-2.88a2.8,2.8,0,0,0,.76,0A3.05,3.05,0,0,0,380,79.05ZM368.69,58.52c2.11,0,3.75.57,4.65,1.77,1.5,2,.73,5.47-1.68,9.34a42.19,42.19,0,0,0-7.57-4.13A44.39,44.39,0,0,0,362,59.87,21,21,0,0,1,368.69,58.52Zm-3.8,25.73a40.8,40.8,0,0,1-5.44-.53c.71-.48,1.42-1,2.13-1.51,1.2-.9,2.34-1.83,3.41-2.76A44.4,44.4,0,0,1,364.89,84.25Zm-4.17-3.2c-1.1.82-2.21,1.59-3.32,2.3-1.56-.32-3.13-.71-4.72-1.18-1.8-.55-3.55-1.17-5.2-1.86q-.66-2.37-1.13-4.94a54.31,54.31,0,0,1-.67-5.39,51.91,51.91,0,0,1,4.18-3.46c1.34-1,2.71-1.92,4.07-2.76,1.31.29,2.63.63,4,1,1.73.52,3.41,1.11,5,1.77a54.37,54.37,0,0,1,1.32,5.65c.32,1.83.54,3.63.67,5.38A53.92,53.92,0,0,1,360.72,81.05Zm-5.1,3.38A41.76,41.76,0,0,1,350,87.2a43.38,43.38,0,0,1-2-5.12c1.38.53,2.81,1,4.27,1.47C353.39,83.88,354.51,84.17,355.62,84.43Zm-10.68-8.81c.24,1.36.52,2.68.84,3.95A39.1,39.1,0,0,1,340,76.32a38.84,38.84,0,0,1,4.35-5.06C344.48,72.69,344.68,74.15,344.94,75.62Zm.78-12.92a42.83,42.83,0,0,1,6.15.66q-1.44.93-2.88,2c-1.19.89-2.33,1.82-3.41,2.77A40.39,40.39,0,0,1,345.72,62.7Zm10,0a43.14,43.14,0,0,1,4.84-2.32,42.9,42.9,0,0,1,1.75,4.4c-1.31-.5-2.65-1-4-1.38C357.45,63.15,356.6,62.92,355.75,62.71ZM365.64,72c-.29-1.61-.63-3.16-1-4.65a39,39,0,0,1,6.26,3.53,39.85,39.85,0,0,1-4.64,5.47C366.09,74.88,365.9,73.43,365.64,72ZM346.31,59a14.58,14.58,0,0,1,2.23-5.39A3.06,3.06,0,0,0,353.86,52c2.1,1,4.24,3.53,6.08,7.07a44.5,44.5,0,0,0-6.28,3.16,45.76,45.76,0,0,0-7.77-1Q346.06,60.07,346.31,59ZM338,74.83c-3.39-2.79-5-5.64-4.31-7.82s3.53-3.7,7.9-4.17c.85-.09,1.75-.14,2.68-.15a42.58,42.58,0,0,0-.08,6.71,41.79,41.79,0,0,0-5.38,6.07C338.54,75.26,338.27,75.05,338,74.83Zm8.08,13.65c-3.12.77-5.68.74-7.37,0a3.06,3.06,0,0,0-2.06-5.29,15.69,15.69,0,0,1,1.93-4.7c.19-.31.38-.63.59-.94a42.65,42.65,0,0,0,7.09,3.85,44.43,44.43,0,0,0,2.35,6.36C347.76,88,346.91,88.27,346.09,88.48ZM359.22,96c-2.83.5-6-2.51-8.59-7.49a45,45,0,0,0,7.05-3.62,44.12,44.12,0,0,0,7.07.82C364.07,91.41,362.09,95.47,359.22,96ZM369,84.11c-.84.09-1.72.13-2.62.14a43.75,43.75,0,0,0,0-6.07,42,42,0,0,0,5.67-6.48l.52.42a14.3,14.3,0,0,1,3.84,4.49,3.05,3.05,0,0,0-1.17,5.49A13.22,13.22,0,0,1,369,84.11Z"/></g><path class="cls-2" d="M272.73,86.87h-5.08V81.79a2.18,2.18,0,1,0-4.35,0v5.08h-5.08a2.18,2.18,0,0,0,0,4.35h5.08V96.3a2.18,2.18,0,0,0,4.35,0V91.22h5.08a2.18,2.18,0,1,0,0-4.35Z"/><path class="cls-2" d="M52.91,176.18H47.83V171.1a2.18,2.18,0,0,0-4.35,0v5.08H38.4a2.18,2.18,0,1,0,0,4.35h5.08v5.08a2.18,2.18,0,1,0,4.35,0v-5.08h5.08a2.18,2.18,0,0,0,0-4.35Z"/><path class="cls-5" d="M182.17,234.2,97.65,335.43l-4,4.78,88.53,0ZM129,323.68l36.66-43.91v43.9Z"/><path class="cls-4" d="M169.15,270.12l-47.64,57.06h47.65ZM129,323.68l36.66-43.91v43.9Z"/><rect class="cls-6" x="176.44" y="254.77" width="4.51" height="1.04"/><rect class="cls-6" x="176.44" y="260.8" width="4.51" height="1.04"/><rect class="cls-6" x="176.45" y="266.83" width="4.51" height="1.04"/><rect class="cls-6" x="176.45" y="272.86" width="4.51" height="1.04"/><rect class="cls-6" x="176.45" y="278.89" width="4.51" height="1.04"/><rect class="cls-6" x="176.45" y="284.92" width="4.51" height="1.04"/><rect class="cls-6" x="176.45" y="290.95" width="4.51" height="1.04"/><rect class="cls-6" x="176.45" y="296.98" width="4.51" height="1.04"/><rect class="cls-6" x="176.46" y="303.01" width="4.51" height="1.04"/><rect class="cls-6" x="176.46" y="309.04" width="4.51" height="1.04"/><rect class="cls-6" x="176.46" y="315.07" width="4.51" height="1.04"/><rect class="cls-6" x="176.46" y="321.1" width="4.51" height="1.04"/><rect class="cls-6" x="176.46" y="327.13" width="4.51" height="1.04"/><rect class="cls-6" x="176.46" y="333.16" width="4.51" height="1.04"/><rect class="cls-6" x="5.96" y="438.83" width="489.04" height="3.85" rx="0.8"/></svg>