<svg id="Layer_1" data-name="Layer 1" xmlns="http://www.w3.org/2000/svg" viewBox="0 0 473 500"><defs><style>.cls-1{fill:#fff;}.cls-2{fill:#ff8b87;}</style></defs><title>Untitled-1</title><path class="cls-1" d="M148.93,262.71,130.1,310.37s-4.08-11.12-1.2-17.91,16.92-33.81,16.92-33.81Z"/><path d="M130.1,310.84h0a.49.49,0,0,1-.45-.31c-.16-.46-4.1-11.37-1.19-18.25,2.86-6.72,16.79-33.58,16.93-33.85a.49.49,0,0,1,.38-.26.48.48,0,0,1,.42.19l3.12,4.06a.45.45,0,0,1,.06.46l-18.83,47.66A.47.47,0,0,1,130.1,310.84Zm15.79-51.31c-2.17,4.2-14,27-16.55,33.12-2.22,5.23-.14,13.26.8,16.32l18.25-46.19Z"/><path class="cls-1" d="M151.82,262.74l17.81,48.05s4.31-11,1.58-17.87S155,258.74,155,258.74Z"/><path d="M169.63,311.26h0a.47.47,0,0,1-.44-.31L151.37,262.9a.46.46,0,0,1,.08-.46l3.2-4a.46.46,0,0,1,.42-.18.5.5,0,0,1,.38.26c.13.28,13.49,27.43,16.2,34.21,2.77,6.94-1.4,17.76-1.58,18.22A.48.48,0,0,1,169.63,311.26Zm-17.27-48.43,17.26,46.56c1-3,3.25-11,1.15-16.3-2.46-6.15-13.76-29.22-15.85-33.46Z"/><path class="cls-1" d="M147,251.81l.33-10.86a3,3,0,0,1,.58-2,3.66,3.66,0,0,1,2.23-.85c1.21-.15,2.68-.14,3.36.78a2.84,2.84,0,0,1,.39,1.69l.12,8.36a6.2,6.2,0,0,1-.46,3,3.82,3.82,0,0,1-2.59,1.86C149.85,254,148.62,253.72,147,251.81Z"/><path d="M150.32,254.29c-1.27,0-2.43-.69-3.67-2.18a.47.47,0,0,1-.12-.32l.33-10.85a3.4,3.4,0,0,1,.71-2.35,4,4,0,0,1,2.52-1c1.87-.24,3.15.08,3.8,1a3.28,3.28,0,0,1,.49,2l.11,8.36a6.52,6.52,0,0,1-.51,3.21,4.26,4.26,0,0,1-2.92,2.11A3.78,3.78,0,0,1,150.32,254.29Zm-2.83-2.65c1.52,1.74,2.56,1.81,3.38,1.64a3.28,3.28,0,0,0,2.26-1.61,5.78,5.78,0,0,0,.41-2.76l-.12-8.36a2.35,2.35,0,0,0-.29-1.42c-.54-.73-1.89-.72-2.92-.59a3.23,3.23,0,0,0-1.94.7,2.58,2.58,0,0,0-.46,1.73Z"/><path class="cls-2" d="M142.67,249.89l15.77.17s1.3,15.33-7.68,15.24C140.54,265.1,142.67,249.89,142.67,249.89Z"/><path d="M150.85,265.77h-.09a7.64,7.64,0,0,1-5.93-2.65c-3.82-4.47-2.68-12.93-2.63-13.29a.47.47,0,0,1,.47-.41l15.77.17a.47.47,0,0,1,.47.43c0,.38.76,9.45-3.16,13.66A6.43,6.43,0,0,1,150.85,265.77Zm-7.76-15.4c-.17,1.74-.62,8.52,2.46,12.13a6.71,6.71,0,0,0,5.22,2.32,5.53,5.53,0,0,0,4.29-1.79c3.17-3.41,3-10.66,2.93-12.5Z"/><path d="M130.89,315.25a.47.47,0,0,1-.47-.4l-.76-4.4a.47.47,0,0,1,.39-.55.48.48,0,0,1,.55.38l.75,4.41a.46.46,0,0,1-.38.55Z"/><path d="M168.71,315.65h-.09a.47.47,0,0,1-.38-.55l.85-4.39a.48.48,0,1,1,.94.18l-.86,4.39A.46.46,0,0,1,168.71,315.65Z"/><path class="cls-1" d="M147.65,257.6a2.8,2.8,0,1,1,2.76,2.66A2.7,2.7,0,0,1,147.65,257.6Z"/><path d="M150.44,260.74h0a3.19,3.19,0,0,1-3.24-3.14h0a3.19,3.19,0,0,1,3.27-3.07h0a3.11,3.11,0,1,1,0,6.21Zm-2.32-3.13a2.25,2.25,0,0,0,2.3,2.18h0a2.16,2.16,0,1,0,0-4.31h0a2.24,2.24,0,0,0-2.32,2.13Z"/><path d="M151.28,247.48a23.71,23.71,0,0,1-2.38-.12.16.16,0,0,1,0-.31,24,24,0,0,0,3.17.1.15.15,0,0,1,.16.15.15.15,0,0,1-.15.17Z"/><path d="M151.41,244.81c-.82,0-1.64,0-2.46,0a.15.15,0,0,1-.15-.16.15.15,0,0,1,.16-.16c1,0,2,0,3.06,0h0a.16.16,0,0,1,.16.15.16.16,0,0,1-.16.16Z"/><path d="M149,241.66a.15.15,0,0,1-.15-.15.16.16,0,0,1,.15-.16l3,0h0a.16.16,0,0,1,0,.32l-3,0Z"/><path class="cls-2" d="M368.86,124.52l-6.44-.13-6.91,21h5.19l1.83-5,5.9.07,1.33,4.92,5.45.14Zm-5.34,11,2-6,2.21,6.08Z"/><path d="M375.21,146h0l-5.45-.14a.49.49,0,0,1-.45-.36l-1.24-4.56-5.2-.07-1.71,4.72a.48.48,0,0,1-.45.32h-5.19a.48.48,0,0,1-.45-.62l6.9-21a.48.48,0,0,1,.46-.33l6.45.13a.46.46,0,0,1,.44.34l6.36,21a.46.46,0,0,1-.08.42A.47.47,0,0,1,375.21,146Zm-5.08-1.09,4.44.12-6.07-20-5.74-.12-6.59,20.06h4.2l1.71-4.73a.48.48,0,0,1,.45-.31h0l5.9.07a.47.47,0,0,1,.46.35Zm-2.36-8.81h0l-4.25-.09a.48.48,0,0,1-.38-.21.45.45,0,0,1-.06-.42l2-6a.46.46,0,0,1,.44-.32.47.47,0,0,1,.46.31l2.21,6.07a.49.49,0,0,1-.06.44A.47.47,0,0,1,367.77,136.08Zm-3.59-1,2.91.06L365.57,131Z"/><path d="M389.74,135.74h0c-3.31-.16-6.66-.16-10,0a.49.49,0,0,1-.5-.46.47.47,0,0,1,.46-.49c3.33-.16,6.71-.15,10,0a.48.48,0,0,1,0,1Z"/><path d="M384.53,141.58h0a.48.48,0,0,1-.48-.48l.1-10.95a.47.47,0,0,1,.48-.47h0a.48.48,0,0,1,.47.48l-.09,11A.48.48,0,0,1,384.53,141.58Z"/><path class="cls-2" d="M215.16,156.63l-6.45,0-6.58,21.12,5.19-.08,1.75-5.06,5.9,0,1.41,4.89,5.45.06ZM210,167.7l2-6,2.31,6Z"/><path d="M202.13,178.19a.47.47,0,0,1-.45-.62l6.58-21.11a.47.47,0,0,1,.45-.34h0l6.45,0a.47.47,0,0,1,.45.33l6.67,20.89a.48.48,0,0,1-.07.43.47.47,0,0,1-.38.19l-5.46-.06a.47.47,0,0,1-.45-.35L214.61,173l-5.2,0-1.64,4.75a.47.47,0,0,1-.44.32l-5.19.07Zm6.93-21.12-6.28,20.16,4.2-.06,1.64-4.75a.47.47,0,0,1,.45-.32l5.9,0h0a.46.46,0,0,1,.45.35l1.32,4.55,4.44.05-6.37-19.93Zm5.18,11.14h0l-4.25,0a.51.51,0,0,1-.38-.2.47.47,0,0,1-.07-.43l1.95-6a.46.46,0,0,1,.44-.32.45.45,0,0,1,.46.3l2.3,6a.46.46,0,0,1-.05.44A.48.48,0,0,1,214.24,168.21Zm-3.6-1,2.91,0L212,163.12Z"/><path d="M226.2,167.67a.49.49,0,0,1-.48-.45.47.47,0,0,1,.45-.5c3.33-.21,6.71-.25,10-.14a.48.48,0,0,1,0,.95c-3.3-.11-6.65-.06-10,.14Z"/><path d="M231.08,173.44a.48.48,0,0,1-.48-.47L230.53,162a.47.47,0,0,1,.47-.48h0a.47.47,0,0,1,.47.47v0l.07,10.91a.46.46,0,0,1-.47.47Z"/><path class="cls-1" d="M101.4,219.6s-24.72-.74-35.87,5.88a559,559,0,0,0-3.1-57.88c4.92-6.3,12-7.43,18.41-7.64,9.3-.29,19.21,5.67,19.21,5.67Z"/><path d="M65.53,226a.48.48,0,0,1-.23-.07.46.46,0,0,1-.24-.41c-.22-22.87-1.2-41.24-3.1-57.83a.47.47,0,0,1,.1-.34c5.09-6.53,12.34-7.62,18.76-7.82,9.34-.3,19.07,5.49,19.47,5.74a.49.49,0,0,1,.24.39l1.34,54a.43.43,0,0,1-.14.35.5.5,0,0,1-.35.14c-.24,0-24.7-.66-35.6,5.81A.55.55,0,0,1,65.53,226Zm-2.6-58.22A551.3,551.3,0,0,1,66,224.67c10.63-5.76,31.32-5.62,34.91-5.55l-1.33-53.21c-1.51-.86-10.45-5.73-18.73-5.47C74.7,160.63,67.77,161.66,62.93,167.74Z"/><path class="cls-1" d="M101.4,219.6s24.71-1.17,36.26,4.73a582.94,582.94,0,0,1-.29-59.12c-5.31-6-12.42-6.65-18.85-6.45-9.3.3-18.81,6.89-18.81,6.89Z"/><path d="M137.66,224.8a.42.42,0,0,1-.22-.05c-11.3-5.77-35.77-4.68-36-4.67a.43.43,0,0,1-.34-.13.46.46,0,0,1-.16-.33l-1.69-54a.48.48,0,0,1,.2-.41c.4-.27,9.74-6.67,19.07-7,6.42-.21,13.73.42,19.23,6.61a.45.45,0,0,1,.11.34,581.41,581.41,0,0,0,.29,59.06.46.46,0,0,1-.47.5ZM106.72,219c7.73,0,22,.59,30.42,4.53a580.92,580.92,0,0,1-.26-58.16c-5.22-5.77-12.2-6.35-18.35-6.15-8.29.26-16.89,5.7-18.34,6.65l1.67,53.22C102.67,219.08,104.4,219,106.72,219Z"/><path class="cls-1" d="M101.22,219.61s-27.66-4.66-40.12,2a503.39,503.39,0,0,0-3.62-58c5.5-6.37,13.38-7.54,20.56-7.77,10.37-.33,21.41,5.66,21.41,5.66Z"/><path d="M61.1,222.14a.55.55,0,0,1-.24-.07.49.49,0,0,1-.23-.41A505.71,505.71,0,0,0,57,163.75a.44.44,0,0,1,.11-.36c5.68-6.59,13.76-7.71,20.9-7.93,10.4-.33,21.54,5.65,21.65,5.71a.46.46,0,0,1,.25.4l1.77,58a.46.46,0,0,1-.16.38.5.5,0,0,1-.39.11c-.28-.05-27.64-4.56-39.81,2A.46.46,0,0,1,61.1,222.14ZM58,163.85a504.54,504.54,0,0,1,3.59,57c11.86-5.77,35.1-2.48,39.15-1.84L99,161.88c-1.66-.86-11.64-5.76-20.93-5.47C71.17,156.63,63.42,157.69,58,163.85Z"/><path class="cls-1" d="M101.4,219.6s27.3-6.41,40.16-.5a504.65,504.65,0,0,1-.07-58.08c-5.9-6-13.83-6.67-21-6.44-10.38.33-21,7-21,7Z"/><path d="M101.4,220.08a.45.45,0,0,1-.29-.1.52.52,0,0,1-.19-.36L99,161.6a.47.47,0,0,1,.22-.42c.11-.07,10.86-6.74,21.24-7.07,7.15-.23,15.28.37,21.37,6.58a.51.51,0,0,1,.14.36,503.83,503.83,0,0,0,.07,58,.46.46,0,0,1-.21.42.49.49,0,0,1-.47,0c-12.56-5.77-39.58.47-39.85.54ZM100,161.85,101.85,219c4-.89,27-5.66,39.19-.66a506.83,506.83,0,0,1,0-57.15c-5.82-5.8-13.62-6.36-20.51-6.14C111.2,155.35,101.56,160.89,100,161.85Z"/><path class="cls-2" d="M116.36,154.71c1.74,6.42,1.72,12.78,1.82,19.43a28,28,0,0,0-5.31-6.09c-.94,2.51-2,5-3.14,7.47-.32.08-.53-.3-.6-.6-1.52-6.19-1.65-11.73-3-17.94a13.65,13.65,0,0,1,6.12-2.14C113.3,154.7,115.3,154.22,116.36,154.71Z"/><path d="M109.65,176a.82.82,0,0,1-.43-.12,1.44,1.44,0,0,1-.56-.86,90,90,0,0,1-1.66-9.77c-.34-2.64-.7-5.37-1.29-8.19a.45.45,0,0,1,.22-.5,14.06,14.06,0,0,1,6.29-2.2l.59-.09c1.16-.2,2.74-.47,3.75,0a.45.45,0,0,1,.26.31c1.64,6,1.73,12,1.82,18.23l0,1.31a.48.48,0,0,1-.87.27,27.67,27.67,0,0,0-4.72-5.54c-.89,2.31-1.91,4.62-2.9,6.86a.51.51,0,0,1-.32.27Zm-2.94-18.8c.56,2.74.9,5.37,1.23,7.93a90.16,90.16,0,0,0,1.63,9.58c1-2.24,2-4.54,2.85-6.84a.49.49,0,0,1,.33-.3.51.51,0,0,1,.43.1,28.66,28.66,0,0,1,4.5,4.89c-.09-6-.19-11.73-1.71-17.5a8.09,8.09,0,0,0-3,.14l-.62.1A13.07,13.07,0,0,0,106.71,157.21Z"/><path d="M65.35,170.51a.17.17,0,0,1-.14-.08.17.17,0,0,1,.07-.22,27.82,27.82,0,0,1,13.72-3A83.78,83.78,0,0,1,93,169a.16.16,0,0,1,.13.18.17.17,0,0,1-.19.13,83.18,83.18,0,0,0-14-1.78,27.51,27.51,0,0,0-13.56,2.93A.11.11,0,0,1,65.35,170.51Z"/><path d="M66.25,181.49a.15.15,0,0,1-.15-.11.16.16,0,0,1,.09-.2c8.58-3.32,18.16-2.13,26.61-1.09a.16.16,0,0,1,.14.18.17.17,0,0,1-.18.14c-8.41-1-18-2.22-26.46,1.06Z"/><path d="M67,193.16a.16.16,0,0,1-.14-.09.16.16,0,0,1,.07-.22,30.34,30.34,0,0,1,10.31-2.76,40.13,40.13,0,0,1,5.52,0,47.76,47.76,0,0,1,10.15,1.62.16.16,0,0,1-.08.3,48,48,0,0,0-10.09-1.6,39.4,39.4,0,0,0-5.47,0A29.87,29.87,0,0,0,67,193.14Z"/><path d="M67.11,204.71a.16.16,0,0,1-.08-.3c7-3.8,16.37-4.14,26.42-1a.15.15,0,0,1,.11.19.17.17,0,0,1-.2.11c-10-3.15-19.27-2.81-26.18.95Z"/><path d="M107.8,180.35a.18.18,0,0,1-.15-.1.16.16,0,0,1,.09-.2A42.81,42.81,0,0,1,134.38,179a.16.16,0,0,1,.1.2.15.15,0,0,1-.19.11,42.44,42.44,0,0,0-26.43,1.07Z"/><path d="M108.49,191.83a.15.15,0,0,1-.14-.09.16.16,0,0,1,.08-.21,30,30,0,0,1,10.31-2.76,38.59,38.59,0,0,1,5.52,0,47.88,47.88,0,0,1,10.15,1.61.18.18,0,0,1,.11.2.17.17,0,0,1-.2.11A47.11,47.11,0,0,0,124.24,189a39.55,39.55,0,0,0-5.48,0,29.72,29.72,0,0,0-10.2,2.74Z"/><path d="M108.66,203.58a.15.15,0,0,1-.14-.09.16.16,0,0,1,.06-.21c7-3.8,16.37-4.15,26.42-1a.16.16,0,0,1-.09.31c-10-3.15-19.27-2.81-26.18.95Z"/><path d="M134,168.23l-.06,0a24.32,24.32,0,0,0-11.51-2,.16.16,0,0,1-.17-.15.16.16,0,0,1,.14-.17,24.66,24.66,0,0,1,11.66,2,.17.17,0,0,1,.09.21A.18.18,0,0,1,134,168.23Z"/><path d="M60.83,169.14a.16.16,0,0,1-.16-.14l-.59-5.15a.16.16,0,1,1,.31,0L61,169a.16.16,0,0,1-.14.18Z"/><path d="M62.35,165a.15.15,0,0,1-.16-.15L62,161.76a.15.15,0,0,1,.15-.17.17.17,0,0,1,.17.14l.21,3.07a.16.16,0,0,1-.14.17Z"/><path d="M138.72,215.61a.17.17,0,0,1-.16-.13,22,22,0,0,1-.2-5.06.16.16,0,0,1,.17-.15.15.15,0,0,1,.14.17,21.39,21.39,0,0,0,.21,5,.17.17,0,0,1-.13.18Z"/><path d="M136.37,215h0a.15.15,0,0,1-.14-.15l-.1-2.41a.16.16,0,0,1,.15-.17.17.17,0,0,1,.17.14c.19,2.13.15,2.29.09,2.48A.15.15,0,0,1,136.37,215Z"/><path class="cls-1" d="M228.91,95.47s-2.45-28.13-25.8-27.91c-26.46-.73-28.41,27.65-28.41,27.65l-8.17.25.46,12.72,68.75-.38.43-12.4Zm-41.72.39s.71-17.33,14.17-17.45c14.72-.14,14.88,17.09,14.88,17.09Z"/><path d="M167,108.65a.47.47,0,0,1-.47-.45l-.46-12.72a.43.43,0,0,1,.13-.34.45.45,0,0,1,.33-.15l7.74-.24a39.14,39.14,0,0,1,4.3-13.86c3.53-6.51,10.65-14.18,24.56-13.8,9.73-.08,17.36,4.79,22.07,14.13A44.4,44.4,0,0,1,229.33,95l6.83-.06h0a.49.49,0,0,1,.34.14.45.45,0,0,1,.13.35l-.42,12.4a.47.47,0,0,1-.47.45l-68.75.38Zm0-12.73.42,11.78,67.83-.37.39-11.45-6.76.07h0a.48.48,0,0,1-.48-.44,43.12,43.12,0,0,0-4.1-13.89c-4.56-9-11.6-13.58-21-13.58h-.27c-10.79-.3-18.76,4.18-23.71,13.3a38.62,38.62,0,0,0-4.23,13.9.47.47,0,0,1-.46.45Zm20.16.42a.45.45,0,0,1-.34-.15.5.5,0,0,1-.14-.35A28,28,0,0,1,188.79,87c2.52-5.88,6.86-9,12.56-9.07h.18c7.75,0,11.47,4.77,13.23,8.78a24.73,24.73,0,0,1,2,8.79.48.48,0,0,1-.47.48l-29.06.36Zm14.35-17.46h-.18C189.78,79,188,92.58,187.7,95.38L215.75,95a24.17,24.17,0,0,0-1.88-8C211.48,81.64,207.33,78.88,201.54,78.88Z"/><path d="M184.07,108.07a.15.15,0,0,1-.15-.15l-.11-3.1a.16.16,0,0,1,.16-.16.14.14,0,0,1,.16.15l.1,3.1a.14.14,0,0,1-.15.16Z"/><path d="M175.23,108.15a.16.16,0,0,1-.16-.15l-.1-3.09a.17.17,0,0,1,.15-.17.16.16,0,0,1,.17.15l.1,3.1a.16.16,0,0,1-.15.16Z"/><path d="M201.76,107.91a.16.16,0,0,1-.16-.16l-.1-3.09a.15.15,0,0,1,.15-.17h0a.16.16,0,0,1,.15.16l.11,3.09a.17.17,0,0,1-.16.17Z"/><path d="M192.92,108a.16.16,0,0,1-.16-.15l-.11-3.1a.16.16,0,0,1,.16-.16h0a.15.15,0,0,1,.16.15l.11,3.09a.17.17,0,0,1-.16.17Z"/><path d="M210.6,107.82a.17.17,0,0,1-.16-.15l-.1-3.1a.16.16,0,0,1,.15-.16h0a.17.17,0,0,1,.16.15l.1,3.1a.16.16,0,0,1-.15.16Z"/><path d="M228.29,107.66a.16.16,0,0,1-.16-.16l-.11-3.09a.17.17,0,0,1,.16-.17.15.15,0,0,1,.16.16l.1,3.09a.16.16,0,0,1-.15.17Z"/><path d="M219.44,107.74a.15.15,0,0,1-.15-.15l-.11-3.1a.16.16,0,0,1,.16-.16.14.14,0,0,1,.16.15l.1,3.1a.15.15,0,0,1-.15.16Z"/><path class="cls-1" d="M363.39,476.6s-2.62-30.11-27.62-29.87c-28.31-.79-30.4,29.59-30.4,29.59l-8.74.27.49,13.61,73.59-.41.45-13.27Zm-44.65.42s.76-18.55,15.16-18.69c15.76-.14,15.94,18.3,15.94,18.3Z"/><path d="M297.12,490.68a.48.48,0,0,1-.48-.46l-.49-13.61a.51.51,0,0,1,.13-.35.49.49,0,0,1,.33-.15l8.32-.25a42.86,42.86,0,0,1,4.6-14.86c3.77-6.95,11.39-15.17,26.26-14.75,10.39-.09,18.56,5.13,23.59,15.11a47.64,47.64,0,0,1,4.44,14.76l7.34-.07h0a.48.48,0,0,1,.34.14.5.5,0,0,1,.14.35l-.46,13.27a.46.46,0,0,1-.47.46l-73.59.41Zm0-13.63.46,12.67,72.67-.4.42-12.32-7.28.07h0a.47.47,0,0,1-.47-.43,46.41,46.41,0,0,0-4.4-14.88c-4.88-9.66-12.44-14.56-22.45-14.56h-.29c-11.56-.32-20.1,4.47-25.4,14.23a41.43,41.43,0,0,0-4.54,14.92.49.49,0,0,1-.46.45Zm21.62.44a.5.5,0,0,1-.35-.14.47.47,0,0,1-.13-.35,29.91,29.91,0,0,1,2.22-9.46c2.69-6.28,7.33-9.62,13.42-9.68,8.39-.09,12.42,5.05,14.31,9.37a26.52,26.52,0,0,1,2.1,9.39.47.47,0,0,1-.47.48l-31.1.39Zm15.35-18.68h-.18c-5.76.05-10,3.11-12.54,9.08a29.35,29.35,0,0,0-2.12,8.64l30.09-.37a26.09,26.09,0,0,0-2-8.57C344.77,461.76,340.31,458.81,334.09,458.81Z"/><path d="M315.4,490.07a.16.16,0,0,1-.16-.15l-.11-3.31a.17.17,0,0,1,.16-.17.16.16,0,0,1,.16.16l.11,3.31a.16.16,0,0,1-.15.16Z"/><path d="M305.94,490.16a.15.15,0,0,1-.16-.15l-.11-3.31a.16.16,0,0,1,.15-.17h0a.16.16,0,0,1,.15.16l.11,3.31a.14.14,0,0,1-.15.16Z"/><path d="M334.33,489.9a.17.17,0,0,1-.16-.16l-.11-3.31a.16.16,0,1,1,.32,0l.11,3.31a.17.17,0,0,1-.15.17Z"/><path d="M324.87,490a.16.16,0,0,1-.16-.16l-.11-3.31a.16.16,0,0,1,.15-.17.15.15,0,0,1,.16.16l.11,3.31a.16.16,0,0,1-.15.17Z"/><path d="M343.8,489.81a.16.16,0,0,1-.16-.16l-.11-3.31a.16.16,0,0,1,.31,0l.11,3.31a.16.16,0,0,1-.15.17Z"/><path d="M362.73,489.63a.16.16,0,0,1-.16-.15l-.11-3.32a.14.14,0,0,1,.15-.16h0a.15.15,0,0,1,.15.15l.11,3.32a.15.15,0,0,1-.15.16Z"/><path d="M353.26,489.72a.17.17,0,0,1-.16-.16l-.11-3.31a.16.16,0,0,1,.15-.16h0a.15.15,0,0,1,.16.15l.11,3.31a.17.17,0,0,1-.15.17Z"/><path class="cls-1" d="M220.88,462.82c1.74,1.69,3.44,3.43,5.1,5.2a5.44,5.44,0,0,1,1.53,2.36,2.77,2.77,0,0,1-.45,1.95,10.78,10.78,0,0,1-3.87,3.95,2.29,2.29,0,0,1-1,.38c-1.13.08-2.32-1-3.26-2l-5.24-5.48a18.82,18.82,0,0,1,3.84-4.46A6,6,0,0,1,220.88,462.82Z"/><path d="M219.2,475.64l-.66-.66-5.23-5.48a.47.47,0,0,1-.08-.56,19.07,19.07,0,0,1,3.93-4.57,6.42,6.42,0,0,1,3.7-2,.49.49,0,0,1,.35.13c1.74,1.69,3.46,3.44,5.12,5.22a5.94,5.94,0,0,1,1.65,2.58,3.22,3.22,0,0,1-.5,2.28,11.37,11.37,0,0,1-4,4.13,2.92,2.92,0,0,1-1.25.45A4.3,4.3,0,0,1,219.2,475.64Zm-5-6.54,5,5.22c.86.9,2,1.93,2.89,1.87a1.89,1.89,0,0,0,.82-.32,10.35,10.35,0,0,0,3.71-3.78,2.25,2.25,0,0,0,.39-1.62,5,5,0,0,0-1.41-2.12c-1.59-1.71-3.25-3.4-4.92-5a5.79,5.79,0,0,0-2.9,1.74A19.38,19.38,0,0,0,214.24,469.1Z"/><polygon class="cls-1" points="183.04 422.98 168.86 417.72 174.25 431.74 183.04 422.98"/><path d="M173.92,432.08a.66.66,0,0,1-.12-.17l-5.39-14a.5.5,0,0,1,.11-.51.49.49,0,0,1,.5-.11l14.19,5.26a.51.51,0,0,1,.3.34.5.5,0,0,1-.13.44l-8.8,8.76a.44.44,0,0,1-.43.13A.46.46,0,0,1,173.92,432.08Zm-4.24-13.55,4.75,12.35,7.75-7.72Z"/><rect class="cls-2" x="171.03" y="439.48" width="51.74" height="12.41" transform="translate(373.69 -8.35) rotate(45.11)"/><path d="M210.43,468.74h0l-36.51-36.66a.47.47,0,0,1-.14-.33.48.48,0,0,1,.14-.34l8.8-8.76a.47.47,0,0,1,.67,0l36.51,36.65a.48.48,0,0,1,0,.68l-8.79,8.76A.49.49,0,0,1,210.43,468.74Zm-35.51-37,35.84,36,8.12-8.09-35.84-36Z"/><path class="cls-1" d="M219,458.73c2,.65,4.13,3.79,4.19,4s-1.51,2.59-2.78,3.76c-2.2,2-4.64,4.33-6.39,5.62a10.46,10.46,0,0,1-4-3.86.7.7,0,0,1-.14-.36.66.66,0,0,1,.18-.34A72.19,72.19,0,0,1,219,458.73Z"/><path d="M211.71,471.09a14.22,14.22,0,0,1-2.08-2.54.92.92,0,0,1,.07-1.27,72.07,72.07,0,0,1,9-8.93.46.46,0,0,1,.44-.08c2.17.71,4.42,4,4.51,4.39.2.8-2.12,3.48-2.92,4.22l-.64.59c-2,1.91-4.18,3.88-5.78,5.07a.48.48,0,0,1-.49,0A8.09,8.09,0,0,1,211.71,471.09ZM210.38,468l0,.06A10.31,10.31,0,0,0,214,471.6c1.54-1.17,3.54-3,5.48-4.83l.63-.58a14.15,14.15,0,0,0,2.61-3.34c-.32-.56-2-2.9-3.61-3.58a71.53,71.53,0,0,0-8.7,8.64Zm0,0Zm0-.09Z"/><polygon class="cls-2" points="175.61 420.41 171.65 424.17 168.95 417.71 175.61 420.41"/><path d="M171.33,424.52a.42.42,0,0,1-.11-.16l-2.71-6.47a.5.5,0,0,1,.1-.52.48.48,0,0,1,.52-.1l6.66,2.7a.46.46,0,0,1,.28.35.48.48,0,0,1-.14.44l-4,3.76a.47.47,0,0,1-.65,0Zm-1.5-5.94,2,4.77,2.92-2.77Z"/><path d="M214.19,460.38h0c-10.92-10.6-21.89-21.45-32.59-32.26a.16.16,0,0,1,.23-.23c10.7,10.82,21.66,21.67,32.58,32.26a.15.15,0,0,1,0,.22A.16.16,0,0,1,214.19,460.38Z"/><path d="M211.16,463h0l-32.41-32.27a.14.14,0,0,1,0-.22.16.16,0,0,1,.22,0l32.41,32.26a.15.15,0,0,1,0,.23A.16.16,0,0,1,211.16,463Z"/><path class="cls-1" d="M379.43,418.35c-8.22-16.26-15.58-30.54-23.81-46.8-1.79,4.83-1.48,10.27-.1,15.28s3.78,9.67,6.16,14.29l4.5,8.74a16.29,16.29,0,0,0,2.44,3.83c1.18,1.26,5.8,5.93,7.3,6.75C378,421.56,376,416.87,379.43,418.35Z"/><path d="M376.46,421.09a1.59,1.59,0,0,1-.77-.23c-1.67-.92-6.58-6-7.41-6.85a16.63,16.63,0,0,1-2.53-3.94l-4.49-8.73c-2.36-4.58-4.8-9.31-6.2-14.39-1.1-4-2-9.92.12-15.56a.46.46,0,0,1,.42-.31.48.48,0,0,1,.45.26c4.11,8.12,8.06,15.88,11.89,23.38s7.8,15.28,11.91,23.41a.47.47,0,0,1-.08.54.46.46,0,0,1-.53.11,1.62,1.62,0,0,0-1.21-.19c-.27.13-.38.64-.47,1.08s-.23,1.11-.72,1.34A.84.84,0,0,1,376.46,421.09Zm-20.75-48.31c-1.53,5.08-.72,10.32.27,13.92,1.37,5,3.79,9.67,6.12,14.2l4.5,8.74a16.21,16.21,0,0,0,2.37,3.72c1.5,1.6,5.83,5.93,7.18,6.67a.69.69,0,0,0,.29.11,3.08,3.08,0,0,0,.19-.67,2.29,2.29,0,0,1,1-1.73,1.54,1.54,0,0,1,.92-.15c-3.93-7.78-7.73-15.23-11.41-22.44S359.64,380.54,355.71,372.78Z"/><path class="cls-1" d="M360.51,417.33c8.93-15.71,16.91-29.49,25.83-45.19,1.58,4.94,1,10.35-.57,15.26s-4.2,9.41-6.78,13.87q-2.43,4.22-4.87,8.44a16.45,16.45,0,0,1-2.61,3.66c-1.24,1.18-6.05,5.55-7.59,6.28C361.85,420.63,364,416.07,360.51,417.33Z"/><path d="M363.42,420.26a.92.92,0,0,1-.44-.1c-.48-.25-.57-.83-.66-1.38s-.16-1-.43-1.12-.64-.1-1.22.11a.45.45,0,0,1-.52-.14.47.47,0,0,1,0-.54c4.46-7.85,8.76-15.35,12.91-22.59s8.46-14.74,12.92-22.59a.46.46,0,0,1,.46-.24.49.49,0,0,1,.41.33c1.83,5.76.7,11.63-.57,15.55-1.63,5-4.27,9.54-6.82,14l-4.88,8.43a16.24,16.24,0,0,1-2.7,3.78c-.87.83-6,5.55-7.71,6.36A1.69,1.69,0,0,1,363.42,420.26Zm-1.87-3.63a1.54,1.54,0,0,1,.82.21,2.32,2.32,0,0,1,.89,1.78,2.1,2.1,0,0,0,.17.7,1.51,1.51,0,0,0,.28-.1c1.38-.65,5.9-4.69,7.47-6.19a15.49,15.49,0,0,0,2.52-3.56l4.88-8.44c2.53-4.37,5.15-8.9,6.74-13.78,1.15-3.53,2.19-8.72.88-13.89-4.27,7.49-8.38,14.67-12.36,21.61s-8.11,14.15-12.39,21.66Z"/><path class="cls-2" d="M374.34,422c-.54-2.82.14-5.94,2.08-7,3-1.21,6.64-.55,9.82,1.22a28.34,28.34,0,0,1,8.29,7.65c2.62,3.42,4.92,7.7,4.49,11.76s-3.34,6.6-6.36,8.38c-.58.35-3.59,1.14-6.72-2.45C379.58,434.19,375,425.25,374.34,422Zm8,7.29c3.27,4.74,5.95,9,8,8.34a2.59,2.59,0,0,0,.92-.47,6,6,0,0,0,2.61-5.1c-.11-2.4-1.69-4.86-3.36-6.8a17.82,17.82,0,0,0-5-4.27c-1.81-1-3.78-1.25-5.25-.45-.92.69-1,2.55-.49,4.19A18.11,18.11,0,0,0,382.37,429.24Z"/><path d="M391.1,444.74c-1.44,0-3.48-.61-5.52-2.95-6.52-7.47-11.06-16.42-11.7-19.75h0c-.55-2.8.07-6.28,2.31-7.53l.05,0c2.94-1.19,6.67-.74,10.23,1.25a28.11,28.11,0,0,1,8.43,7.77c3.43,4.47,5,8.54,4.59,12.1s-2.59,6.38-6.58,8.74A3.8,3.8,0,0,1,391.1,444.74Zm-14.47-29.39c-1.61.93-2.37,3.65-1.82,6.51h0c.64,3.29,5.32,12.23,11.49,19.31,3.23,3.71,6.09,2.37,6.12,2.35,3.73-2.2,5.79-4.9,6.12-8s-1.17-7.21-4.39-11.42a27.26,27.26,0,0,0-8.14-7.52C382.72,414.72,379.3,414.28,376.63,415.35ZM390,438.13c-2.07,0-4.33-3.3-7.13-7.38l-.85-1.24a18.37,18.37,0,0,1-2.6-4.69c-.53-1.64-.54-3.81.66-4.71l0,0c1.52-.82,3.6-.66,5.71.45a18.08,18.08,0,0,1,5.13,4.38c2.2,2.57,3.37,5,3.48,7.08a6.48,6.48,0,0,1-2.79,5.51,3.54,3.54,0,0,1-1.08.55A1.9,1.9,0,0,1,390,438.13Zm-9.38-17.24c-.65.53-.78,2.12-.29,3.64a17.5,17.5,0,0,0,2.47,4.44h0l.85,1.24c2.62,3.81,5.08,7.42,6.65,6.92a2.32,2.32,0,0,0,.77-.39,5.49,5.49,0,0,0,2.43-4.71c-.1-1.89-1.22-4.14-3.25-6.51a17.49,17.49,0,0,0-4.86-4.16C383.55,420.41,381.81,420.24,380.58,420.89Z"/><path class="cls-2" d="M367.12,421.88c.18-2.85-.89-5.88-3-6.76-3.13-.9-6.67.13-9.6,2.22a27.16,27.16,0,0,0-7.25,8.46c-2.17,3.67-3.92,8.15-3,12.14s4.15,6.22,7.38,7.67c.63.29,3.72.76,6.37-3.12C363.48,434.58,366.91,425.23,367.12,421.88Zm-7,8.08c-2.65,5.05-4.76,9.55-6.91,9.12a3.08,3.08,0,0,1-1-.38,6.23,6.23,0,0,1-3.25-4.8c-.19-2.4,1.07-5,2.47-7.1a17.63,17.63,0,0,1,4.42-4.76,5.66,5.66,0,0,1,5.17-1c1,.6,1.33,2.43,1,4.11A17.44,17.44,0,0,1,360.08,430Z"/><path d="M352.87,446.28a3.47,3.47,0,0,1-1.34-.23c-4.27-1.93-6.84-4.62-7.64-8s.17-7.69,3-12.49a27.22,27.22,0,0,1,7.38-8.6c3.29-2.34,6.93-3.18,10-2.3l.06,0c2.37,1,3.43,4.41,3.25,7.23l-.48,0,.48,0c-.22,3.38-3.59,12.74-9.11,20.84C356.54,445.61,354.32,446.28,352.87,446.28Zm8.91-31a12.18,12.18,0,0,0-6.94,2.46,26.45,26.45,0,0,0-7.13,8.31c-2.7,4.58-3.68,8.55-2.9,11.79.74,3.07,3.13,5.55,7.11,7.35.61.28,3.37.58,5.78-3,5.23-7.67,8.73-17,8.95-20.37.18-2.89-.93-5.52-2.65-6.28A8.2,8.2,0,0,0,361.78,415.27Zm-8.32,24.31a1.72,1.72,0,0,1-.39,0,3.37,3.37,0,0,1-1.13-.43,6.66,6.66,0,0,1-3.47-5.17c-.17-2.14.69-4.62,2.55-7.4a17.27,17.27,0,0,1,4.55-4.89c1.95-1.32,4-1.7,5.61-1l.06,0c1.3.77,1.55,2.93,1.24,4.61a17.93,17.93,0,0,1-2,4.93h0l-.68,1.31C357.48,436,355.61,439.58,353.46,439.58Zm6-18.34a6.19,6.19,0,0,0-3.39,1.2,16.81,16.81,0,0,0-4.29,4.63c-1.71,2.56-2.54,4.91-2.39,6.79a5.65,5.65,0,0,0,3,4.44,2.55,2.55,0,0,0,.82.31c1.62.32,3.6-3.5,5.71-7.56.23-.43.45-.87.69-1.31h0a17.61,17.61,0,0,0,1.89-4.66c.29-1.6,0-3.13-.77-3.6A3.44,3.44,0,0,0,359.49,421.24Z"/><path class="cls-1" d="M369.17,407a1.76,1.76,0,0,0-.53,2.41,1.87,1.87,0,0,0,2.44.59,1.89,1.89,0,0,0,.59-2.44A1.71,1.71,0,0,0,369.17,407Z"/><path d="M370.21,410.71a2.36,2.36,0,0,1-2-1,2.25,2.25,0,0,1-.27-1.76,2,2,0,0,1,1-1.32h0a2.52,2.52,0,0,1,1.92-.29,2.09,2.09,0,0,1,1.24,1,2.36,2.36,0,0,1-.76,3.06A2.13,2.13,0,0,1,370.21,410.71Zm0-3.54a1.77,1.77,0,0,0-.84.24,1.15,1.15,0,0,0-.51.72,1.32,1.32,0,0,0,.15,1,1.4,1.4,0,0,0,1.79.44,1.42,1.42,0,0,0,.42-1.81,1.09,1.09,0,0,0-.67-.56A1,1,0,0,0,370.24,407.17Zm-1.07-.17Z"/><path d="M352.41,443.7h-.05a14.15,14.15,0,0,1-5.41-3.64.17.17,0,0,1,0-.23.16.16,0,0,1,.22,0,13.73,13.73,0,0,0,5.29,3.56.17.17,0,0,1,.09.21A.15.15,0,0,1,352.41,443.7Z"/><path d="M353.8,442.17h0a10.51,10.51,0,0,1-3.06-1.32.15.15,0,0,1-.05-.22.16.16,0,0,1,.22-.05,10,10,0,0,0,3,1.28.16.16,0,0,1,0,.31Z"/><path d="M411.24,274.67a3.68,3.68,0,0,1-3.55-3,3.63,3.63,0,0,1,2.86-4h0a3.49,3.49,0,0,1,2.79.68,3.57,3.57,0,0,1,1.4,2.47,3.69,3.69,0,0,1-3.12,3.83A2.34,2.34,0,0,1,411.24,274.67Zm-.52-6.08a2.59,2.59,0,0,0,.79,5.11,2.74,2.74,0,0,0,2.28-2.81,2.68,2.68,0,0,0-1-1.8,2.58,2.58,0,0,0-2-.5Z"/><path d="M437.49,190.35a3.69,3.69,0,0,1-3.55-3,3.63,3.63,0,0,1,2.86-4h0a3.49,3.49,0,0,1,2.79.68,3.57,3.57,0,0,1,1.4,2.47,3.69,3.69,0,0,1-3.11,3.83A2.56,2.56,0,0,1,437.49,190.35Zm-.52-6.08a2.59,2.59,0,0,0,.79,5.11,2.74,2.74,0,0,0,2.28-2.81,2.64,2.64,0,0,0-1-1.8,2.57,2.57,0,0,0-2-.5Z"/><path d="M396.86,90.35a3.69,3.69,0,0,1-3.55-3,3.64,3.64,0,0,1,2.86-4h0A3.49,3.49,0,0,1,399,84a3.54,3.54,0,0,1,1.4,2.48,3.69,3.69,0,0,1-3.11,3.83Zm-.52-6.07a2.58,2.58,0,0,0,.79,5.1,2.74,2.74,0,0,0,2.28-2.8,2.61,2.61,0,0,0-1-1.81,2.56,2.56,0,0,0-2-.49Z"/><path d="M425.4,349a3.53,3.53,0,0,1-.69-7h0a3.6,3.6,0,0,1,4.19,3.16,3.68,3.68,0,0,1-3.11,3.83Zm-.52-6.07a2.58,2.58,0,0,0,.79,5.1,2.73,2.73,0,0,0,2.28-2.8,2.65,2.65,0,0,0-3.07-2.3Z"/><path d="M363.39,376.43a3.53,3.53,0,0,1-.68-7,3.53,3.53,0,0,1,2.79.68,3.59,3.59,0,0,1,1.4,2.48,3.7,3.7,0,0,1-3.12,3.83A2.55,2.55,0,0,1,363.39,376.43Zm0-6.11a2.59,2.59,0,0,0-.48,0h0a2.68,2.68,0,0,0-2.08,2.93,2.6,2.6,0,0,0,5.16-.63,2.64,2.64,0,0,0-1-1.8A2.53,2.53,0,0,0,363.35,370.32Zm-.56-.43Z"/><path d="M400.7,487.2a3.68,3.68,0,0,1-3.55-3,3.62,3.62,0,0,1,2.86-4h0a3.49,3.49,0,0,1,2.79.68,3.57,3.57,0,0,1,1.4,2.48,3.69,3.69,0,0,1-3.12,3.82Zm-.53-6.07a2.68,2.68,0,0,0-2.08,2.93,2.72,2.72,0,0,0,2.88,2.17,2.75,2.75,0,0,0,2.28-2.81,2.62,2.62,0,0,0-1-1.8,2.55,2.55,0,0,0-2.05-.49Z"/><path d="M253.32,487.2a3.68,3.68,0,0,1-3.55-3,3.62,3.62,0,0,1,2.86-4h0a3.49,3.49,0,0,1,2.79.68,3.57,3.57,0,0,1,1.4,2.48,3.69,3.69,0,0,1-3.12,3.82Zm-.53-6.07a2.68,2.68,0,0,0-2.08,2.93,2.6,2.6,0,0,0,5.16-.64,2.62,2.62,0,0,0-1-1.8,2.55,2.55,0,0,0-2.05-.49Z"/><path d="M339.13,163.9a3.68,3.68,0,0,1-3.55-3,3.62,3.62,0,0,1,2.86-4h0a3.49,3.49,0,0,1,2.79.68,3.57,3.57,0,0,1,1.4,2.47,3.69,3.69,0,0,1-3.12,3.83Zm-.53-6.07a2.68,2.68,0,0,0-2.08,2.93,2.6,2.6,0,0,0,5.16-.64,2.68,2.68,0,0,0-1-1.8,2.55,2.55,0,0,0-2-.49Z"/><path d="M192.24,143.94a3.69,3.69,0,0,1-3.55-3,3.64,3.64,0,0,1,2.86-4h0a3.52,3.52,0,0,1,2.8.68,3.56,3.56,0,0,1,1.39,2.47,3.68,3.68,0,0,1-3.11,3.83A2.56,2.56,0,0,1,192.24,143.94Zm-.52-6.08a2.59,2.59,0,0,0,.79,5.11,2.74,2.74,0,0,0,2.28-2.81,2.63,2.63,0,0,0-1-1.8,2.6,2.6,0,0,0-2.05-.5Z"/><path d="M292.34,23.56a3.69,3.69,0,0,1-3.55-3,3.64,3.64,0,0,1,2.87-4h0a3.52,3.52,0,0,1,2.79.67,3.56,3.56,0,0,1,1.39,2.48,3.68,3.68,0,0,1-3.11,3.83A2.55,2.55,0,0,1,292.34,23.56Zm0-6.11a2.59,2.59,0,0,0-.48,0h0a2.69,2.69,0,0,0-2.08,2.94,2.72,2.72,0,0,0,2.88,2.17,2.75,2.75,0,0,0,2.28-2.81,2.68,2.68,0,0,0-1-1.8A2.6,2.6,0,0,0,292.3,17.45Zm-.56-.43Z"/><path d="M145.71,16.39a3.69,3.69,0,0,1-3.55-3,3.64,3.64,0,0,1,2.86-4h0a3.49,3.49,0,0,1,2.79.68,3.57,3.57,0,0,1,1.4,2.48,3.7,3.7,0,0,1-3.11,3.83Zm-.52-6.07a2.69,2.69,0,0,0-2.09,2.93A2.71,2.71,0,0,0,146,15.42a2.74,2.74,0,0,0,2.28-2.8,2.64,2.64,0,0,0-1-1.81,2.56,2.56,0,0,0-2-.49Z"/><path d="M61.72,86.92a3.69,3.69,0,0,1-3.55-3,3.64,3.64,0,0,1,2.86-4h0a3.58,3.58,0,0,1,4.18,3.16,3.68,3.68,0,0,1-3.11,3.82A2.56,2.56,0,0,1,61.72,86.92Zm-.52-6.07a2.68,2.68,0,0,0-2.08,2.93A2.72,2.72,0,0,0,62,86a2.75,2.75,0,0,0,2.28-2.81,2.68,2.68,0,0,0-1-1.8,2.55,2.55,0,0,0-2-.49Z"/><path d="M24.65,18.59a3.67,3.67,0,0,1-3.55-3,3.63,3.63,0,0,1,2.86-4h0a3.6,3.6,0,0,1,4.19,3.16A3.7,3.7,0,0,1,25,18.57,2.48,2.48,0,0,1,24.65,18.59Zm-.53-6.07A2.68,2.68,0,0,0,22,15.45a2.72,2.72,0,0,0,2.88,2.18,2.76,2.76,0,0,0,2.28-2.81,2.64,2.64,0,0,0-1-1.8,2.59,2.59,0,0,0-2.05-.5Z"/><path d="M247.77,392.15a3.69,3.69,0,0,1-3.55-3,3.64,3.64,0,0,1,2.86-4,3.55,3.55,0,0,1,2.8.67,3.6,3.6,0,0,1,1.39,2.48,3.68,3.68,0,0,1-3.11,3.83Zm-.05-6.12a2.56,2.56,0,0,0-.47,0h0a2.71,2.71,0,0,0-2.09,2.94,2.6,2.6,0,0,0,5.16-.64,2.61,2.61,0,0,0-1-1.8A2.55,2.55,0,0,0,247.72,386Zm-.55-.42Z"/><path d="M39.54,161.24a3.53,3.53,0,0,1-.69-7h0A3.58,3.58,0,0,1,43,157.39a3.68,3.68,0,0,1-3.11,3.83A2.55,2.55,0,0,1,39.54,161.24Zm0-6.11a2.56,2.56,0,0,0-.47,0h0a2.69,2.69,0,0,0-2.09,2.93,2.6,2.6,0,0,0,5.16-.63,2.57,2.57,0,0,0-1-1.8A2.49,2.49,0,0,0,39.49,155.13Zm-.55-.43Z"/><path d="M185.39,333.05a3.53,3.53,0,0,1-.68-7h0a3.6,3.6,0,0,1,4.19,3.16,3.7,3.7,0,0,1-3.12,3.83Zm-.52-6.07a2.58,2.58,0,0,0,.8,5.1,2.74,2.74,0,0,0,2.28-2.8,2.64,2.64,0,0,0-1-1.8,2.59,2.59,0,0,0-2-.5Z"/><path d="M167.85,196.54a3.7,3.7,0,0,1-3.55-3,3.64,3.64,0,0,1,2.86-4h0a3.58,3.58,0,0,1,4.19,3.16,3.69,3.69,0,0,1-3.11,3.83Zm0-6.11a2.59,2.59,0,0,0-.48,0h0a2.58,2.58,0,0,0,.8,5.1,2.75,2.75,0,0,0,2.28-2.8,2.68,2.68,0,0,0-1-1.81A2.59,2.59,0,0,0,167.81,190.43Zm-.56-.43Z"/><path d="M168.14,410a3.69,3.69,0,0,1-3.55-3,3.64,3.64,0,0,1,2.86-4,3.58,3.58,0,0,1,4.19,3.15,3.68,3.68,0,0,1-3.11,3.83Zm0-6.12a3.89,3.89,0,0,0-.47,0h0a2.71,2.71,0,0,0-2.09,2.94,2.61,2.61,0,0,0,5.17-.64,2.68,2.68,0,0,0-1-1.8A2.6,2.6,0,0,0,168.09,403.9Zm-.55-.42Z"/><path d="M108.28,460.71a3.69,3.69,0,0,1-3.55-3,3.64,3.64,0,0,1,2.86-4h0a3.58,3.58,0,0,1,4.19,3.15,3.68,3.68,0,0,1-3.11,3.83Zm0-6.12a3.88,3.88,0,0,0-.48,0h0a2.59,2.59,0,0,0,.8,5.11,2.75,2.75,0,0,0,2.28-2.81,2.68,2.68,0,0,0-1-1.8A2.6,2.6,0,0,0,108.24,454.59Zm-.56-.42Z"/><path class="cls-1" d="M134.52,119.87c8,6.06,13.76,14.59,20.84,21.73,1.64,1.66,3.62,3.34,5.93,3.25A4.62,4.62,0,0,0,165.5,141a6.15,6.15,0,0,0-1.45-4.62,18.61,18.61,0,0,0-3.69-3.28,264.58,264.58,0,0,1-21.78-18.22C137.18,116.52,135.79,118.13,134.52,119.87Z"/><path d="M161.1,145.33c-2.39,0-4.41-1.71-6.08-3.39-2.6-2.62-5.05-5.47-7.42-8.22-4.1-4.74-8.33-9.65-13.37-13.47a.48.48,0,0,1-.1-.66c1.28-1.75,2.71-3.4,4.09-5a.47.47,0,0,1,.69,0,262,262,0,0,0,21.74,18.19l.11.08a19.3,19.3,0,0,1,3.67,3.28,6.66,6.66,0,0,1,1.54,5,5.08,5.08,0,0,1-4.66,4.23Zm-25.92-25.55c4.95,3.83,9.11,8.65,13.14,13.32,2.36,2.74,4.8,5.57,7.37,8.17,1.58,1.58,3.46,3.19,5.58,3.1A4.16,4.16,0,0,0,165,141a5.72,5.72,0,0,0-1.35-4.26,18.2,18.2,0,0,0-3.49-3.11l-.11-.08a263.79,263.79,0,0,1-21.46-17.92C137.45,116.93,136.26,118.33,135.18,119.78Z"/><path class="cls-2" d="M130.33,119.23a5,5,0,0,0,2.1,3.3,2.11,2.11,0,0,0,1.27.45,2.52,2.52,0,0,0,1.23-.49,25.18,25.18,0,0,0,5.89-6.24A5.92,5.92,0,0,0,142,114.1a3.61,3.61,0,0,0-.11-1.87c-.53-1.67-2.34-3-4-2.51a5.1,5.1,0,0,0-2.19,1.64,58.17,58.17,0,0,0-4.7,5.9C130.47,118,129.93,118.88,130.33,119.23Z"/><path d="M133.64,123.46a2.62,2.62,0,0,1-1.48-.54,5.49,5.49,0,0,1-2.27-3.47c-.52-.7.27-1.83.71-2.47a58.76,58.76,0,0,1,4.74-5.94,5.57,5.57,0,0,1,2.4-1.78c2-.6,4,1,4.61,2.83a4.07,4.07,0,0,1,.12,2.12,6.42,6.42,0,0,1-1.27,2.33,25.38,25.38,0,0,1-6,6.34,2.84,2.84,0,0,1-1.48.58Zm-3-4.57a.43.43,0,0,1,.13.26,4.55,4.55,0,0,0,1.9,3,1.65,1.65,0,0,0,1,.37,2.19,2.19,0,0,0,1-.42,24.71,24.71,0,0,0,5.77-6.12,5.66,5.66,0,0,0,1.1-2,3.06,3.06,0,0,0-.1-1.63c-.43-1.39-2-2.63-3.43-2.2a4.74,4.74,0,0,0-2,1.51,57.19,57.19,0,0,0-4.66,5.85C130.72,118.48,130.66,118.8,130.67,118.89Z"/><path class="cls-1" d="M113.55,66.46c-11,.59-20.84,8.9-25.11,19a32.16,32.16,0,0,0,3.93,31.26c4.37,5.75,13.33,10.67,25.13,9.36,8.25-.91,15.53-6.3,20.27-13.11A33.73,33.73,0,0,0,144,94.71C144.13,88.17,140.53,65,113.55,66.46Zm14.32,50.23c-12.32,8.87-28.08,3.72-32.91-7.22-3.65-8.27-3.15-16.27-2.26-19,1.49-4.61,5.7-13.89,14.66-16.77,10.85-3.5,19,.21,22.93,3.43A22.11,22.11,0,0,1,138,90C139.82,99.61,135.8,111,127.87,116.69Z"/><path d="M113.67,126.81c-10.44,0-17.94-4.84-21.68-9.76a32.51,32.51,0,0,1-4-31.74c4.63-11,14.88-18.75,25.52-19.32l0,.47,0-.47c9.4-.51,16.91,1.89,22.33,7.12,7,6.78,8.72,16.77,8.63,21.61a33.93,33.93,0,0,1-6.32,18.56c-5.28,7.59-12.79,12.45-20.6,13.31A35,35,0,0,1,113.67,126.81Zm-.1-59.87c-10.28.55-20.2,8.08-24.69,18.74a31.51,31.51,0,0,0,3.87,30.79c4,5.31,12.63,10.51,24.7,9.18,7.54-.84,14.81-5.54,19.92-12.92a33.27,33.27,0,0,0,6.15-18c.1-4.68-1.55-14.35-8.33-20.9-5.22-5-12.49-7.35-21.62-6.86Zm.56,54.74a23.17,23.17,0,0,1-6-.8,20.75,20.75,0,0,1-13.61-11.22c-3.59-8.14-3.3-16.2-2.27-19.38,1.33-4.12,5.46-14,15-17.08,12.65-4.07,21.1,1.67,23.38,3.52a22.66,22.66,0,0,1,7.88,13.2c1.9,10-2.44,21.47-10.33,27.15l-.27-.38.27.38A23.92,23.92,0,0,1,114.13,121.68Zm1.81-48.95a27.46,27.46,0,0,0-8.44,1.38C98.42,77,94.44,86.6,93.16,90.57c-.83,2.57-1.38,10.52,2.24,18.7a19.72,19.72,0,0,0,13,10.69,22.62,22.62,0,0,0,19.21-3.66h0c7.6-5.48,11.78-16.5,9.95-26.2A21.73,21.73,0,0,0,130,77.46,22.58,22.58,0,0,0,115.94,72.73Z"/><circle class="cls-1" cx="116.12" cy="83.65" r="3.18"/><path d="M116.12,87.31a3.66,3.66,0,1,1,3.66-3.66A3.67,3.67,0,0,1,116.12,87.31Zm0-6.37a2.71,2.71,0,1,0,2.71,2.71A2.7,2.7,0,0,0,116.12,80.94Z"/><path class="cls-2" d="M104.89,105.33a12.72,12.72,0,0,1-3.84-8.24,5.33,5.33,0,0,1,.53-3.18,2.48,2.48,0,0,1,2.78-1.22c1.43.49,1.72,2.33,2,3.81.38,1.79,1.27,3.65,3,4.38a12.82,12.82,0,0,0,3.29.58,3.33,3.33,0,0,1,2.73,1.67,2.79,2.79,0,0,1-1.45,3.3C112.75,107.07,109.28,109.38,104.89,105.33Z"/><path d="M110,108.15a8,8,0,0,1-5.47-2.47h0a13.19,13.19,0,0,1-4-8.55,5.66,5.66,0,0,1,.6-3.47,3,3,0,0,1,3.34-1.42c1.6.55,2,2.39,2.28,3.88l.06.29c.25,1.18.93,3.27,2.68,4a7,7,0,0,0,2.16.42l1,.12a3.85,3.85,0,0,1,3.1,2,3.27,3.27,0,0,1-1.66,3.9l-.19.1A7.82,7.82,0,0,1,110,108.15ZM105.22,105c3.91,3.61,7,1.88,8.26,1.14l.2-.11a2.34,2.34,0,0,0,1.25-2.69c-.43-1-1.8-1.31-2.37-1.39-.31-.05-.63-.08-1-.11a8,8,0,0,1-2.45-.5c-2.14-.94-2.94-3.36-3.23-4.72l-.06-.29c-.27-1.31-.57-2.8-1.66-3.17a2,2,0,0,0-2.21,1,4.75,4.75,0,0,0-.47,2.9,12.23,12.23,0,0,0,3.7,7.93Z"/><path class="cls-1" d="M122.57,92.15A3,3,0,0,0,121.14,96c.55,1.13,1.78,1.79,2.39,2.89a4.48,4.48,0,0,1,.49,2,7.62,7.62,0,0,1-.5,2.87,13,13,0,0,0-1,2.64,2.07,2.07,0,0,0,1.15,2.33,2.25,2.25,0,0,0,1.7-.32c2.94-1.63,4.41-4.93,4.84-8.75a7.08,7.08,0,0,0-2.05-5.52C126.76,92.74,124.57,91.29,122.57,92.15Z"/><path d="M124.12,109.32a1.9,1.9,0,0,1-.58-.09,2.51,2.51,0,0,1-1.48-2.85,7.07,7.07,0,0,1,.67-1.94c.12-.28.24-.54.34-.8a7.07,7.07,0,0,0,.47-2.69,4,4,0,0,0-.42-1.82A6.29,6.29,0,0,0,122,97.86a5.82,5.82,0,0,1-1.33-1.65,3.42,3.42,0,0,1,1.67-4.49c2.58-1.11,5.14,1.13,6.13,2.14a7.51,7.51,0,0,1,2.18,5.91c-.49,4.39-2.24,7.54-5.08,9.11A3.15,3.15,0,0,1,124.12,109.32Zm-.29-16.95a2.7,2.7,0,0,0-1.07.22h0A2.41,2.41,0,0,0,121.52,94a2.34,2.34,0,0,0,0,1.84,5.36,5.36,0,0,0,1.13,1.38A6.69,6.69,0,0,1,124,98.67a4.79,4.79,0,0,1,.54,2.25A8,8,0,0,1,124,104c-.11.29-.24.58-.37.85a6.44,6.44,0,0,0-.59,1.69c-.11.72.18,1.61.82,1.8a1.82,1.82,0,0,0,1.33-.27c3.23-1.79,4.28-5.55,4.6-8.39a6.53,6.53,0,0,0-1.93-5.14C127.28,94,125.58,92.37,123.83,92.37Zm-1.26-.22Z"/><path d="M103.22,99.49a.16.16,0,0,1-.15-.09,5.94,5.94,0,0,1,0-4.5.16.16,0,0,1,.3.12,5.5,5.5,0,0,0,0,4.25.17.17,0,0,1-.09.21Z"/><path d="M114.86,84.64a.14.14,0,0,1-.14-.1,2.12,2.12,0,0,1,.57-2.38.16.16,0,0,1,.21.24,1.82,1.82,0,0,0-.49,2,.17.17,0,0,1-.09.21Z"/><path d="M123.16,96.12a.17.17,0,0,1-.1,0,1.71,1.71,0,0,1-.67-1.18,1.66,1.66,0,0,1,.36-1.31.15.15,0,0,1,.22,0,.16.16,0,0,1,0,.22,1.45,1.45,0,0,0,.26,2,.15.15,0,0,1,0,.22A.15.15,0,0,1,123.16,96.12Z"/><path d="M161.12,142.68a3,3,0,0,1-1.15-.2,4.42,4.42,0,0,1-1.15-.76,21.75,21.75,0,0,1-3.1-3.26.16.16,0,0,1,0-.22.15.15,0,0,1,.22,0,21.11,21.11,0,0,0,3.06,3.21,4,4,0,0,0,1.06.71,4.62,4.62,0,0,0,2.39,0,.16.16,0,0,1,.19.13.17.17,0,0,1-.13.18A7.8,7.8,0,0,1,161.12,142.68Z"/><polygon class="cls-1" points="386.32 222.15 336.04 221.9 335.91 217.51 386.74 217.87 386.32 222.15"/><path d="M386.32,222.62h0L336,222.38a.47.47,0,0,1-.47-.46l-.14-4.4a.52.52,0,0,1,.14-.35.45.45,0,0,1,.34-.14l50.84.36a.48.48,0,0,1,.47.52l-.43,4.28A.47.47,0,0,1,386.32,222.62Zm-49.82-1.19,49.39.24.33-3.33L336.4,218Z"/><path class="cls-1" d="M366.26,178.63s-10.3,6-9.85,6.89c12.45,5.36,21.85,17.59,22.25,30.83.13,4.41-.85,9.16-4.13,12.22-7.85,7.32-29.26,10.87-29.26,10.87s-.16,4-.2,12.07c0,0,50.21.29,50.83.5,6.37-16.78,6-28.92,1.05-43.14C391.93,194.34,373.3,180.36,366.26,178.63Z"/><path d="M395.9,252.48h-.1c-1.29-.16-33.72-.39-50.74-.48a.48.48,0,0,1-.47-.48c0-8,.21-12,.21-12.09a.47.47,0,0,1,.4-.45c.21,0,21.35-3.61,29-10.75,3.49-3.25,4.09-8.24,4-11.86-.38-12.7-9.21-24.92-22-30.4a.47.47,0,0,1-.24-.22c-.23-.46-.47-.94,4.93-4.39,2.5-1.6,5.08-3.11,5.11-3.13a.47.47,0,0,1,.35-.05c3.85,1,10.41,5.14,16.31,10.43,4.2,3.76,11.7,11.39,14.72,20.11,5.29,15.33,5,27.52-1,43.47A.49.49,0,0,1,395.9,252.48ZM345.54,251c14.44.08,45.77.28,50,.48,5.84-15.56,6.1-27.5.92-42.49-4.78-13.83-22.76-27.91-30.17-29.89-4,2.37-8.3,5.12-9.28,6.15,12.84,5.71,21.69,18.13,22.08,31,.12,3.81-.53,9.09-4.28,12.58-7.38,6.89-26.1,10.4-29.12,10.93C345.7,241,345.58,244.75,345.54,251Z"/><path class="cls-2" d="M369.25,226.56a6.65,6.65,0,1,1,6.6,6.68A6.65,6.65,0,0,1,369.25,226.56Z"/><path d="M375.9,233.72h0a7.12,7.12,0,1,1,7.16-7.08A7.09,7.09,0,0,1,375.85,233.72Zm0-13.29a6.16,6.16,0,0,0-6.16,6.13h0a6.18,6.18,0,0,0,6.13,6.21h0a6.17,6.17,0,0,0,0-12.34Zm-6.64,6.13h0Z"/><path class="cls-2" d="M364.25,174.36c5.06-5.91,10.45-11.66,15.51-17.56l6.65,5-15.26,18.5Z"/><path d="M371.15,180.77a.51.51,0,0,1-.31-.11l-6.9-5.94a.48.48,0,0,1-.06-.67c2.54-3,5.2-5.92,7.77-8.79s5.22-5.82,7.75-8.77a.48.48,0,0,1,.65-.07l6.65,5a.48.48,0,0,1,.18.33.47.47,0,0,1-.1.36L371.52,180.6a.47.47,0,0,1-.33.17Zm-6.23-6.46,6.17,5.31,14.64-17.74-5.9-4.43c-2.44,2.84-5,5.69-7.47,8.45S367.35,171.48,364.92,174.31Z"/><path class="cls-1" d="M365.24,170.08s-15.64,17.29-19,21.56c-1.12,4.69,5.46,10.05,10.39,8.6,3.95-4.29,19-22.1,19-22.1Z"/><path d="M354.9,201a9.89,9.89,0,0,1-6.6-2.86c-2.08-2-3-4.43-2.51-6.57a.48.48,0,0,1,.08-.18c3.33-4.24,18.86-21.41,19-21.59a.47.47,0,0,1,.64,0l10.4,8.06a.46.46,0,0,1,.18.32.47.47,0,0,1-.11.36c-.15.18-15.1,17.87-19,22.11a.6.6,0,0,1-.21.14A6.88,6.88,0,0,1,354.9,201Zm-8.21-9.11c-.38,1.79.46,3.86,2.26,5.56,2.17,2.06,5.14,3,7.43,2.41,3.7-4,16.39-19,18.57-21.61l-9.65-7.48C363.14,173.12,349.86,187.84,346.69,191.85Z"/><path d="M375.76,230h0a3.76,3.76,0,0,1-2.63-2.17,3.67,3.67,0,0,1,.28-3.36.16.16,0,0,1,.22,0,.15.15,0,0,1,.05.22,3.3,3.3,0,0,0-.26,3.05,3.47,3.47,0,0,0,2.41,2,.16.16,0,0,1,.12.19A.15.15,0,0,1,375.76,230Z"/><path d="M383.67,164.3a.19.19,0,0,1-.1,0c-1.91-1.48-3.8-3-5.62-4.63a.16.16,0,0,1,0-.22.16.16,0,0,1,.22,0c1.81,1.59,3.7,3.14,5.61,4.62a.16.16,0,0,1,0,.22A.16.16,0,0,1,383.67,164.3Z"/><path d="M345.64,248.16a.16.16,0,0,1-.16-.15.16.16,0,0,1,.16-.16c17-.3,34.28-.39,51.31-.27a.15.15,0,0,1,.15.16.16.16,0,0,1-.15.16h0c-17-.12-34.28,0-51.3.26Z"/><path class="cls-1" d="M180.69,378.79c-.76,5.87-.34,10.22-1.09,13.9a172.53,172.53,0,0,1-42.39-1.85c-31.67-4.87-30.84-43.49,0-49.54,17.62-3.46,28.28-2.19,44.67-1.59-.09,3.86-.75,8.27-1.14,13.75-11.4-.42-21.1-.78-31.55-.09-25,1.64-22.81,20.86-6.91,24.2C156.31,380.51,167.05,379.11,180.69,378.79Z"/><path d="M165,393.7a176,176,0,0,1-27.85-2.39c-17.29-2.66-23.64-14.64-23.84-24.09-.22-10.77,7.07-23.1,23.85-26.39,14.93-2.93,24.89-2.47,37.5-1.9l7.28.31a.47.47,0,0,1,.46.48c0,2.26-.29,4.65-.57,7.41-.2,2-.41,4.07-.58,6.36a.47.47,0,0,1-.49.44c-11.32-.41-21.08-.77-31.5-.09-13,.86-18,6.42-18.39,11.35-.38,5.42,4.47,10.43,11.55,11.91,11,2.31,19.79,1.94,30,1.51,2.67-.11,5.42-.23,8.3-.3a.51.51,0,0,1,.37.16.51.51,0,0,1,.12.38c-.37,2.83-.46,5.32-.55,7.52a38.33,38.33,0,0,1-.56,6.41.47.47,0,0,1-.43.38C174.35,393.49,169.66,393.7,165,393.7Zm-4.11-54.24a117.87,117.87,0,0,0-23.55,2.3C121.09,345,114,356.83,114.25,367.2c.19,9.08,6.33,20.6,23,23.17a170.71,170.71,0,0,0,41.91,1.86,42.39,42.39,0,0,0,.47-5.9c.08-2.07.16-4.41.48-7.05-2.67.07-5.24.18-7.73.28-9.82.42-19.1.81-30.21-1.52-7.54-1.59-12.72-7-12.3-12.92.38-5.32,5.64-11.33,19.28-12.23,10.33-.68,20-.34,31.14.07.16-2.12.35-4.06.54-5.93.26-2.55.48-4.77.55-6.86-2.37-.09-4.63-.19-6.81-.29C169.79,339.66,165.35,339.46,160.88,339.46Z"/><path class="cls-2" d="M169.36,341.28c-.54,3.92-1.05,7.85-1.63,11.77,4.18.08,8.47.24,13,.41.39-5.48,1-9.89,1.14-13.75-4.41-.16-8.42-.37-12.25-.52Z"/><path d="M180.77,353.93h0c-4.53-.17-8.8-.32-13-.41a.48.48,0,0,1-.47-.54c.37-2.45.7-5,1-7.36l.6-4.41h0c.06-.43.12-.86.19-1.3l.11-.79a.49.49,0,0,1,.49-.41l5,.22,7.29.31a.47.47,0,0,1,.46.48c0,2.26-.29,4.65-.57,7.41-.2,2-.41,4.07-.58,6.36A.48.48,0,0,1,180.77,353.93Zm-12.49-1.35c3.91.09,7.88.23,12.05.38.16-2.12.35-4,.54-5.93.26-2.55.48-4.77.55-6.86-2.38-.09-4.63-.19-6.82-.29l-4.53-.2,0,.37c-.06.43-.13.86-.19,1.29h0l-.6,4.41C168.93,348,168.62,350.3,168.28,352.58Zm1.08-11.3h0Z"/><path class="cls-2" d="M166.73,393.2c3.88-.19,8.73-.25,12.87-.51.44-2.14.68-7.23,1.09-13.9-4.18.1-9.33.37-13,.54C167.25,382.82,166.83,392,166.73,393.2Z"/><path d="M166.73,393.68a.46.46,0,0,1-.47-.51c0-.29.06-1,.12-2.06.17-3.2.5-9.17.84-11.84a.47.47,0,0,1,.45-.41l2.59-.13c3.35-.16,7.15-.34,10.42-.42a.51.51,0,0,1,.36.15.46.46,0,0,1,.13.36c-.07,1.14-.14,2.23-.2,3.27a105.57,105.57,0,0,1-.91,10.69.47.47,0,0,1-.43.38c-2.35.15-4.92.23-7.41.31-1.94.06-3.78.12-5.46.21Zm1.39-13.89c-.32,2.79-.62,8.33-.79,11.37,0,.64-.06,1.16-.09,1.54,1.54-.07,3.2-.12,4.95-.18,2.35-.08,4.78-.15,7-.29.32-1.88.54-5.58.82-10.2,0-.88.11-1.8.17-2.75-3.14.08-6.72.25-9.89.4Z"/><path d="M197.55,374.29a2.83,2.83,0,0,1-1-.23l-10.6-4a.48.48,0,0,1-.28-.62.47.47,0,0,1,.61-.27l10.6,4a1.93,1.93,0,0,0,.71.17c.78-.07,1-1.38,1-2.14l0-4.91a.48.48,0,0,1,.39-.47,7.46,7.46,0,0,1,4.12.87l8.3,3.56a.47.47,0,0,1,.24.63.46.46,0,0,1-.62.24l-8.3-3.56a7.59,7.59,0,0,0-3.18-.84l0,4.49c0,1.41-.51,3-1.87,3.07Z"/><path d="M196.13,362.34h-.08l-8.53,0a.48.48,0,0,1,0-1h0l8.52.05a1.52,1.52,0,0,0,.5-.06c.41-.18.16-1,0-1.46l-1.44-3.28a.47.47,0,0,1,.21-.6,5.74,5.74,0,0,1,3.17-.46l6.8.33a.48.48,0,0,1,.45.5.49.49,0,0,1-.5.45l-6.8-.33a6.46,6.46,0,0,0-2.27.16l1.25,2.85c.56,1.29.39,2.33-.46,2.71A1.87,1.87,0,0,1,196.13,362.34Z"/><path d="M175.52,346.18c-1,0-2,0-3-.11a.16.16,0,0,1-.15-.17.16.16,0,0,1,.17-.14,43.37,43.37,0,0,0,5.7,0,.16.16,0,1,1,0,.31C177.35,346.15,176.43,346.18,175.52,346.18Z"/><path d="M174.6,349.78h0a.15.15,0,0,1-.11-.19,44.66,44.66,0,0,0,1.39-6.63.16.16,0,0,1,.17-.14.16.16,0,0,1,.14.18,44.08,44.08,0,0,1-1.4,6.68A.15.15,0,0,1,174.6,349.78Z"/><path d="M173.65,388.87h-.05a.16.16,0,0,1-.11-.19,28.44,28.44,0,0,0,1-6.33.17.17,0,0,1,.17-.15.16.16,0,0,1,.15.17,29,29,0,0,1-1,6.39A.17.17,0,0,1,173.65,388.87Z"/><path class="cls-1" d="M351.54,276.85l33.89,1.42c1.88.08,4.33.67,4.81,2.81q.54,28.55-.37,57.1c-.09,2.85-.44,6.15-2.87,7.65a21.25,21.25,0,0,1-6.27.6l-34.32-.17c-3,0-6.37-.16-8.59-2.45-1.07-2.12-1.06-4.61-1-7l.81-52.09a18.32,18.32,0,0,1,.66-4.6C339.38,276,347.32,276.68,351.54,276.85Z"/><path d="M381.54,346.91h-.81l-34.32-.17c-3.27,0-6.65-.23-8.93-2.6a.44.44,0,0,1-.08-.11c-1.15-2.28-1.11-4.9-1.08-7.22l.81-52.09a18.82,18.82,0,0,1,.68-4.72c1.15-4.2,8.23-3.87,12.92-3.66l.83,0,33.89,1.41c1.71.08,4.66.58,5.25,3.18a.36.36,0,0,1,0,.1c.35,19,.22,38.18-.38,57.12-.1,3.25-.55,6.47-3.09,8l-.11,0A19.05,19.05,0,0,1,381.54,346.91Zm-43.32-3.38c2,2.06,5,2.24,8.2,2.26l34.31.16a20.93,20.93,0,0,0,6.07-.56c2.12-1.35,2.5-4.27,2.59-7.23.6-18.91.73-38.1.38-57-.48-1.94-2.93-2.34-4.36-2.4l-33.89-1.41-.84,0c-4.12-.19-11-.51-11.95,3a17.9,17.9,0,0,0-.65,4.48l-.81,52.1C337.24,339,337.2,341.48,338.22,343.53Z"/><path class="cls-1" d="M345.06,284.48c-1.35.21-1.29.95-1.28,2l.09,7.24a1.8,1.8,0,0,0,.22,1,3.48,3.48,0,0,0,2.43,1c1.41.16,2.84.21,4.27.25,10.12.28,20.27.57,30.34-.09a3.48,3.48,0,0,0,1.43-.29,1.8,1.8,0,0,0,.84-1.42,21.94,21.94,0,0,0,.2-6.42,2.78,2.78,0,0,0-1-2.16,5.58,5.58,0,0,0-2.54-.71,60,60,0,0,0-6.83-.36C370.63,284.5,351.62,283.47,345.06,284.48Z"/><path d="M367.51,296.73c-5.62,0-11.23-.16-16.73-.32-1.42,0-2.88-.08-4.32-.25a3.86,3.86,0,0,1-2.77-1.21,2.23,2.23,0,0,1-.29-1.27l-.1-7.34c0-.92,0-2.06,1.68-2.33h0c5.15-.79,17.68-.34,24.41-.11,1.88.07,3.24.11,3.8.12a61,61,0,0,1,6.89.36,6.06,6.06,0,0,1,2.76.79,3.24,3.24,0,0,1,1.24,2.5,22.83,22.83,0,0,1-.21,6.55,2.29,2.29,0,0,1-1.09,1.76,3.94,3.94,0,0,1-1.62.35C376.64,296.62,372.07,296.73,367.51,296.73ZM345.13,285c-.89.14-.89.43-.87,1.38l.09,7.34a1.3,1.3,0,0,0,.14.76c.25.38.95.65,2.09.78,1.39.17,2.83.21,4.22.25,9.95.28,20.24.57,30.3-.08a3.34,3.34,0,0,0,1.24-.24,1.34,1.34,0,0,0,.59-1.08,21.69,21.69,0,0,0,.2-6.28,2.36,2.36,0,0,0-.83-1.83,5.29,5.29,0,0,0-2.33-.63,61.15,61.15,0,0,0-6.77-.35c-.58,0-1.95-.05-3.85-.11-6.7-.24-19.16-.69-24.22.09Z"/><path class="cls-1" d="M345.32,306.49l.1,5.8a.74.74,0,0,0,.2.6,1.14,1.14,0,0,0,.74.14,31.29,31.29,0,0,1,5.88.29c.37.06.85.07,1-.22a.6.6,0,0,0,0-.35c-.19-1.47.19-5.19-.6-6.06A60.37,60.37,0,0,0,345.32,306.49Z"/><path d="M352.61,313.83l-.44,0a31.14,31.14,0,0,0-5.79-.3,1.47,1.47,0,0,1-1.06-.25,1.2,1.2,0,0,1-.38-1l-.09-5.79a.48.48,0,0,1,.45-.49,60.73,60.73,0,0,1,7.39.21.48.48,0,0,1,.33.15c.6.67.65,2.24.65,4.38a17.72,17.72,0,0,0,.06,1.94,1,1,0,0,1-.07.62A1,1,0,0,1,352.61,313.83Zm.18-.91Zm-5.06-.4a32,32,0,0,1,4.58.33,1.24,1.24,0,0,0,.48,0v-.05a17.57,17.57,0,0,1-.07-2.06,12,12,0,0,0-.32-3.6,56.53,56.53,0,0,0-6.59-.2l.08,5.33c0,.17,0,.23,0,.24a.89.89,0,0,0,.41,0C346.8,312.53,347.26,312.52,347.73,312.52Z"/><path class="cls-1" d="M359.5,306.89c.05,1.93.09,3.86.14,5.8a.71.71,0,0,0,.2.59,1.09,1.09,0,0,0,.74.14,31.37,31.37,0,0,1,5.89.25c.37.05.85.06,1-.23a.59.59,0,0,0,0-.35c-.2-1.46.15-5.19-.64-6A59.19,59.19,0,0,0,359.5,306.89Z"/><path d="M366.83,314.18l-.43,0a30.36,30.36,0,0,0-5.79-.25,1.56,1.56,0,0,1-1.07-.25,1.21,1.21,0,0,1-.38-.95l-.14-5.8a.48.48,0,0,1,.46-.48,60,60,0,0,1,7.39.14.47.47,0,0,1,.32.16c.61.66.67,2.23.69,4.37A17.32,17.32,0,0,0,368,313a1.09,1.09,0,0,1-.06.62A1.07,1.07,0,0,1,366.83,314.18Zm-4.65-1.28a31.58,31.58,0,0,1,4.35.3,1.58,1.58,0,0,0,.49,0,.11.11,0,0,1,0,0,17.46,17.46,0,0,1-.08-2.06,11.87,11.87,0,0,0-.35-3.6,59.56,59.56,0,0,0-6.59-.16l.12,5.33c0,.17,0,.23,0,.25a.89.89,0,0,0,.41,0C361.1,312.92,361.64,312.9,362.18,312.9Z"/><path class="cls-1" d="M373.72,307.25c0,1.93.1,3.87.14,5.8a.78.78,0,0,0,.21.6,1.08,1.08,0,0,0,.74.13,31.27,31.27,0,0,1,5.88.26c.37,0,.85.06,1-.24a.59.59,0,0,0,0-.35c-.2-1.46.16-5.18-.63-6.05A59.41,59.41,0,0,0,373.72,307.25Z"/><path d="M381.05,314.54l-.42,0a30.42,30.42,0,0,0-5.8-.25,1.51,1.51,0,0,1-1.06-.24,1.17,1.17,0,0,1-.38-1l-.14-5.8a.47.47,0,0,1,.45-.48,60.17,60.17,0,0,1,7.4.14.52.52,0,0,1,.32.16c.6.66.66,2.23.68,4.37a16.94,16.94,0,0,0,.08,1.94,1.11,1.11,0,0,1-.07.62A1.07,1.07,0,0,1,381.05,314.54Zm-4.64-1.27a33.34,33.34,0,0,1,4.35.29,1.25,1.25,0,0,0,.48,0,.43.43,0,0,0,0-.05,19.69,19.69,0,0,1-.08-2.06,12.29,12.29,0,0,0-.34-3.6,57.56,57.56,0,0,0-6.6-.15l.13,5.33a.55.55,0,0,0,0,.24.94.94,0,0,0,.41,0C375.32,313.28,375.86,313.27,376.41,313.27Z"/><path class="cls-1" d="M345.72,318.27c0,1.93.06,3.86.1,5.79a.73.73,0,0,0,.2.6,1.09,1.09,0,0,0,.74.15,31.29,31.29,0,0,1,5.88.29c.37.06.85.07,1-.22a.69.69,0,0,0,0-.35c-.19-1.47.19-5.19-.6-6.06A58.41,58.41,0,0,0,345.72,318.27Z"/><path d="M353,325.61a2.39,2.39,0,0,1-.44,0,31.18,31.18,0,0,0-5.79-.29,1.55,1.55,0,0,1-1.07-.25,1.18,1.18,0,0,1-.37-1l-.1-5.79a.49.49,0,0,1,.46-.49,61.08,61.08,0,0,1,7.4.2.47.47,0,0,1,.31.16c.61.67.65,2.24.66,4.38a17.91,17.91,0,0,0,.06,1.94,1.12,1.12,0,0,1-.07.62A1.06,1.06,0,0,1,353,325.61Zm-4.88-1.31a32,32,0,0,1,4.58.33,1.25,1.25,0,0,0,.48,0v-.05a20.48,20.48,0,0,1-.06-2.06,12.38,12.38,0,0,0-.32-3.6,56.63,56.63,0,0,0-6.6-.2l.09,5.33a.83.83,0,0,0,0,.24,1,1,0,0,0,.42,0C347.2,324.31,347.66,324.3,348.13,324.3Z"/><path class="cls-1" d="M359.9,318.67c0,1.93.09,3.86.14,5.79a.73.73,0,0,0,.2.6,1.08,1.08,0,0,0,.74.14,31.37,31.37,0,0,1,5.89.25c.37.05.84.06,1-.23a.69.69,0,0,0,0-.35c-.2-1.47.15-5.19-.64-6.06A59.35,59.35,0,0,0,359.9,318.67Z"/><path d="M367.22,326l-.42,0a31.19,31.19,0,0,0-5.79-.25,1.49,1.49,0,0,1-1.07-.24,1.23,1.23,0,0,1-.38-1l-.14-5.79a.49.49,0,0,1,.45-.49,62,62,0,0,1,7.4.15.48.48,0,0,1,.32.15c.61.67.67,2.24.69,4.38a17.53,17.53,0,0,0,.07,1.94,1,1,0,0,1-.07.62A1.05,1.05,0,0,1,367.22,326Zm-4.64-1.27a31.69,31.69,0,0,1,4.35.3,1.51,1.51,0,0,0,.48,0v-.06a19.25,19.25,0,0,1-.09-2.05,12,12,0,0,0-.34-3.61,59.87,59.87,0,0,0-6.6-.15l.13,5.33a1,1,0,0,0,0,.25,1.05,1.05,0,0,0,.42,0C361.5,324.69,362,324.68,362.58,324.68Z"/><path class="cls-1" d="M346.38,330.05l.09,5.8a.74.74,0,0,0,.2.6,1.08,1.08,0,0,0,.74.14,30.44,30.44,0,0,1,5.88.3c.37.05.85.06,1-.23a.6.6,0,0,0,0-.35c-.19-1.47.19-5.19-.59-6.06A60.5,60.5,0,0,0,346.38,330.05Z"/><path d="M353.66,337.39l-.43,0a31.3,31.3,0,0,0-5.8-.3,1.43,1.43,0,0,1-1.06-.25,1.17,1.17,0,0,1-.37-1l-.1-5.79a.47.47,0,0,1,.45-.48,58.88,58.88,0,0,1,7.39.2.49.49,0,0,1,.33.15c.6.67.65,2.24.65,4.38a17.72,17.72,0,0,0,.06,1.94,1,1,0,0,1-.07.62A1,1,0,0,1,353.66,337.39Zm.19-.91Zm-5.07-.4a31.86,31.86,0,0,1,4.58.33,1.67,1.67,0,0,0,.48,0v-.06a17.57,17.57,0,0,1-.07-2.06,11.72,11.72,0,0,0-.32-3.6,61.32,61.32,0,0,0-6.59-.2l.09,5.33c0,.17,0,.23,0,.24a.89.89,0,0,0,.41,0C347.85,336.09,348.32,336.08,348.78,336.08Z"/><path class="cls-1" d="M360.55,330.45c.05,1.93.09,3.86.14,5.8a.75.75,0,0,0,.21.6,1.08,1.08,0,0,0,.74.13,32.17,32.17,0,0,1,5.88.25c.37.06.85.07,1-.23a.59.59,0,0,0,0-.35c-.2-1.46.15-5.19-.64-6A59.19,59.19,0,0,0,360.55,330.45Z"/><path d="M367.88,337.74l-.42,0a30.42,30.42,0,0,0-5.8-.25,1.57,1.57,0,0,1-1.06-.24,1.17,1.17,0,0,1-.38-1l-.14-5.8a.47.47,0,0,1,.45-.48,60,60,0,0,1,7.39.14.54.54,0,0,1,.33.16c.6.66.66,2.23.68,4.37,0,.77,0,1.49.07,1.94a1,1,0,0,1-.06.62A1.07,1.07,0,0,1,367.88,337.74Zm-4.64-1.28a31.69,31.69,0,0,1,4.35.3,1.25,1.25,0,0,0,.48,0,.43.43,0,0,0,0,0,17.27,17.27,0,0,1-.08-2.06,11.91,11.91,0,0,0-.35-3.6,57.38,57.38,0,0,0-6.59-.15l.13,5.32a.58.58,0,0,0,0,.25.91.91,0,0,0,.41,0C362.15,336.48,362.69,336.46,363.24,336.46Z"/><path class="cls-2" d="M374.05,319.07c.06,6.05-.05,12.09-.05,18.44,2.23-.1,4.46,0,6.54,0,.37-6.16,0-11.35.4-18.45A37.79,37.79,0,0,0,374.05,319.07Z"/><path d="M374,338a.51.51,0,0,1-.33-.13.5.5,0,0,1-.14-.35c0-2.6,0-5.18,0-7.67,0-3.7.05-7.2,0-10.76a.48.48,0,0,1,.4-.48,29.26,29.26,0,0,1,5.68-.08l1.3.06a.49.49,0,0,1,.34.15.5.5,0,0,1,.12.35c-.22,3.66-.22,6.81-.22,9.86,0,2.88,0,5.6-.18,8.59a.49.49,0,0,1-.48.45h0l-.92,0c-1.82,0-3.71-.06-5.6,0Zm2.74-1c1,0,1.95,0,2.9,0h.45c.15-2.78.15-5.36.16-8.08,0-2.93,0-5.95.19-9.43l-.83,0a30.81,30.81,0,0,0-5.08,0c0,3.43,0,6.8,0,10.36,0,2.33,0,4.74,0,7.17C375.24,337,376,337,376.74,337Z"/><path d="M357.65,293.6l-.07,0a.15.15,0,0,1-.06-.22,74.6,74.6,0,0,1,4.89-7.53.16.16,0,0,1,.26.18,75.37,75.37,0,0,0-4.88,7.51A.16.16,0,0,1,357.65,293.6Z"/><path d="M361.33,294.23l-.08,0a.16.16,0,0,1-.05-.22c1.65-2.74,3.45-5.43,5.35-8a.16.16,0,0,1,.22,0,.16.16,0,0,1,0,.23c-1.89,2.56-3.68,5.25-5.33,8A.16.16,0,0,1,361.33,294.23Z"/><path d="M368.38,294.55a.11.11,0,0,1-.08,0,.16.16,0,0,1-.06-.22l4.39-7.47a.16.16,0,0,1,.22-.06.17.17,0,0,1,.06.22l-4.4,7.47A.14.14,0,0,1,368.38,294.55Z"/><polygon class="cls-1" points="184.98 215.76 201.28 215.6 202.11 282.74 185.8 282.89 184.98 215.76"/><path d="M185.8,283.37a.47.47,0,0,1-.47-.47l-.83-67.14a.49.49,0,0,1,.14-.34.45.45,0,0,1,.33-.14l16.3-.16h0a.47.47,0,0,1,.47.47l.83,67.14a.51.51,0,0,1-.13.34.48.48,0,0,1-.34.14l-16.3.16Zm-.34-67.14.81,66.18,15.35-.14-.81-66.19Z"/><path d="M185.18,232.71a.16.16,0,0,1-.16-.15.16.16,0,0,1,.16-.16l3.09-.1h0a.16.16,0,0,1,.16.15.16.16,0,0,1-.16.16l-3.09.1Z"/><path d="M185.08,224.24a.16.16,0,0,1-.16-.16.16.16,0,0,1,.15-.16l3.1-.1h0a.15.15,0,0,1,.16.15.14.14,0,0,1-.15.16l-3.1.11Z"/><path d="M185.39,249.67a.17.17,0,0,1-.16-.15.17.17,0,0,1,.16-.17l3.09-.1h0a.17.17,0,0,1,.16.16.16.16,0,0,1-.16.16l-3.09.1Z"/><path d="M185.29,241.19a.16.16,0,0,1-.16-.15.15.15,0,0,1,.15-.16l3.1-.11h0a.16.16,0,0,1,.16.16.14.14,0,0,1-.15.16l-3.1.1Z"/><path d="M185.5,258.15a.16.16,0,0,1-.16-.15.16.16,0,0,1,.15-.17l3.1-.1h0a.16.16,0,0,1,.16.15.16.16,0,0,1-.15.17l-3.1.1Z"/><path d="M185.71,275.11a.16.16,0,0,1-.16-.16.14.14,0,0,1,.15-.16l3.1-.1h0a.15.15,0,0,1,.16.15.16.16,0,0,1-.15.16l-3.1.11Z"/><path d="M185.6,266.63a.16.16,0,1,1,0-.32l3.09-.1h0a.17.17,0,0,1,.16.15.17.17,0,0,1-.16.17l-3.09.1Z"/><path d="M185.15,218.93a.16.16,0,1,1,0-.31l16-.19h0a.16.16,0,0,1,.16.16.17.17,0,0,1-.15.16l-16,.18Z"/><path class="cls-1" d="M52.54,344.21l.8,53.93,63.51.28ZM63.76,367.3,87.62,387l-23.25-.11Z"/><path d="M116.85,398.89h0l-63.51-.27a.48.48,0,0,1-.48-.47l-.8-53.94a.48.48,0,0,1,.28-.43.48.48,0,0,1,.51.06l64.31,54.21a.48.48,0,0,1,.14.53A.48.48,0,0,1,116.85,398.89Zm-63-1.22,61.73.27L53,345.24Zm33.81-10.24h0l-23.25-.11a.48.48,0,0,1-.47-.46l-.61-19.55a.47.47,0,0,1,.26-.44.49.49,0,0,1,.52.06l23.86,19.65a.48.48,0,0,1-.31.85Zm-22.78-1.06,21.45.1-22-18.14Z"/><path d="M52.9,357.37a.17.17,0,0,1-.16-.15.16.16,0,0,1,.15-.17l2.89-.15a.16.16,0,0,1,.17.15.17.17,0,0,1-.15.17l-2.89.15Z"/><path d="M53.39,373.88a.16.16,0,0,1-.16-.15.15.15,0,0,1,.15-.17l2.89-.15a.16.16,0,0,1,0,.31l-2.89.16Z"/><path d="M53.14,365.62a.16.16,0,0,1,0-.31l2.89-.16a.16.16,0,0,1,0,.32l-2.89.15Z"/><path d="M53.63,382.13a.16.16,0,0,1-.16-.15.16.16,0,0,1,.15-.17l2.89-.15a.16.16,0,0,1,.17.15.17.17,0,0,1-.15.17l-2.89.15Z"/><path d="M53.87,390.38a.16.16,0,1,1,0-.31l2.89-.16a.17.17,0,0,1,.17.15.16.16,0,0,1-.15.17l-2.89.15Z"/><path class="cls-1" d="M262.46,183.15c-14.42-.43-23.32,6-28.74,16a30.93,30.93,0,0,0,2.17,32.16c6.63,9.28,18.59,14.69,30.24,13.9,3.73-.25,17.79-.82,25.45-16.71,4.84-10,3.55-21.52-2.22-31.07S271.89,183.43,262.46,183.15Z"/><path d="M263.86,245.81c-11.16,0-22.1-5.41-28.36-14.18A31.47,31.47,0,0,1,233.3,199c6.08-11.21,15.91-16.7,29.17-16.31,8.69.26,21,4.23,27.3,14.56s7,21.7,2.24,31.52c-3.23,6.72-8,11.53-14.1,14.3a31.41,31.41,0,0,1-11.48,2.66l-.27,0C265.39,245.78,264.62,245.81,263.86,245.81ZM261.1,183.6c-12.37,0-21.19,5.19-27,15.83a30.5,30.5,0,0,0,2.13,31.65c6.51,9.11,18.22,14.49,29.83,13.7h.27c11.56-.76,19.9-6.29,24.79-16.43,4.59-9.53,3.79-20.69-2.21-30.61s-18.05-13.86-26.5-14.11Z"/><path class="cls-2" d="M279.23,215.09a18.53,18.53,0,0,0-5.06,1.22,6,6,0,0,0-3.45,3.61c-.75,2.72,1.32,5.64.48,8.34-1,3.16-5.22,4.23-6.91,7.09a1.79,1.79,0,0,0-.31,1.33,1.62,1.62,0,0,0,.66.85c2,1.51,5,.63,7.18-.59,1.4-.76,3.05-1.66,4.48-1a3.5,3.5,0,0,0,.91.4,2,2,0,0,0,1.58-.77c1.94-1.86,4-4,4.16-6.61.11-1.86-.75-3.91.27-5.5.73-1.15,2.24-1.65,3.09-2.72a3.75,3.75,0,0,0-.73-5C284.13,214.53,282.07,214.69,279.23,215.09Z"/><path d="M267.22,238.81a4.63,4.63,0,0,1-2.87-.9,2.14,2.14,0,0,1-.83-1.11,2.18,2.18,0,0,1,.36-1.69,11.77,11.77,0,0,1,3.43-3.27c1.52-1.1,2.95-2.13,3.44-3.72a7.77,7.77,0,0,0-.24-4,9,9,0,0,1-.25-4.36,6.4,6.4,0,0,1,3.71-3.91,19,19,0,0,1,5.2-1.26c2.82-.4,5.1-.6,6.71.77a4.2,4.2,0,0,1,.8,5.66,6.65,6.65,0,0,1-1.57,1.34,5.29,5.29,0,0,0-1.49,1.35,4.87,4.87,0,0,0-.31,3.24,11.42,11.42,0,0,1,.12,2c-.16,2.73-2.22,4.92-4.31,6.92a2.51,2.51,0,0,1-2,.9,2.26,2.26,0,0,1-.79-.32l-.24-.12c-1.22-.58-2.79.28-4.05,1A10.7,10.7,0,0,1,267.22,238.81Zm15.18-23.54a23.69,23.69,0,0,0-3.1.29h0a18.47,18.47,0,0,0-4.94,1.18,5.46,5.46,0,0,0-3.18,3.3,8.08,8.08,0,0,0,.26,3.9,8.56,8.56,0,0,1,.22,4.46c-.58,1.89-2.21,3.07-3.79,4.21a11.27,11.27,0,0,0-3.18,3,1.3,1.3,0,0,0-.25,1,1.18,1.18,0,0,0,.48.59c2.11,1.58,5.37.09,6.67-.63,1.45-.79,3.26-1.78,4.92-1l.29.15a1.49,1.49,0,0,0,.48.21c.37.06.79-.27,1.18-.64,2-2,3.88-3.91,4-6.3a10.76,10.76,0,0,0-.12-1.86,5.68,5.68,0,0,1,.46-3.87,6.1,6.1,0,0,1,1.75-1.61,6,6,0,0,0,1.36-1.15,3.28,3.28,0,0,0-.66-4.35A4.28,4.28,0,0,0,282.4,215.27Zm-3.17-.18h0Z"/><path class="cls-2" d="M266.23,195.82a4.88,4.88,0,0,0-.94-3.26c-1.08-1.34-3.21-1.67-4.74-2.3a7.73,7.73,0,0,1-2.37-1.47,9.68,9.68,0,0,1-1.53-2c-.29-.49-.58-1.05-.92-1.58a27.87,27.87,0,0,0-19.53,12.7,11.5,11.5,0,0,1-1,4,9,9,0,0,0,0,6.51,6.21,6.21,0,0,0,5.24,3.77c2.23.08,4.24-1.2,6.38-1.84a11.29,11.29,0,0,1,4.87-.32,9.91,9.91,0,0,1,4.7,2c.64.52,1.2,1.13,1.87,1.61,2.92,2.08,7.74.76,9.09-2.5,1.59-3.82-1.28-8-1.47-12.05A12.21,12.21,0,0,1,266.23,195.82Z"/><path d="M261.62,215.08A6.26,6.26,0,0,1,258,214a14,14,0,0,1-1.16-1c-.25-.22-.48-.44-.73-.64a9.39,9.39,0,0,0-4.47-1.94,10.64,10.64,0,0,0-4.66.31,21.26,21.26,0,0,0-2,.74,10.84,10.84,0,0,1-4.52,1.11,6.67,6.67,0,0,1-5.66-4.05,9.37,9.37,0,0,1,0-6.86l.15-.42a9.47,9.47,0,0,0,.79-3.35.46.46,0,0,1,.08-.28,28.5,28.5,0,0,1,19.86-12.91.47.47,0,0,1,.47.21c.22.34.41.68.59,1l.34.59a9.63,9.63,0,0,0,1.44,1.92,7.27,7.27,0,0,0,2.23,1.37c.4.16.84.31,1.31.46a7.38,7.38,0,0,1,3.62,2,5.27,5.27,0,0,1,1,3.56.28.28,0,0,1,0,.09,12.56,12.56,0,0,0-.3,3.13,20,20,0,0,0,1,4.55c.75,2.54,1.52,5.18.47,7.7a6.31,6.31,0,0,1-4.19,3.51A7.4,7.4,0,0,1,261.62,215.08ZM250,209.35a11.86,11.86,0,0,1,1.78.14,10.21,10.21,0,0,1,4.93,2.14c.27.22.53.46.77.68a11.32,11.32,0,0,0,1.08.91,5.63,5.63,0,0,0,4.8.66,5.39,5.39,0,0,0,3.57-3c.92-2.21.23-4.57-.5-7.07a20.59,20.59,0,0,1-1-4.77,13,13,0,0,1,.31-3.31,4.39,4.39,0,0,0-.83-2.91,6.67,6.67,0,0,0-3.17-1.68c-.49-.15-.95-.3-1.38-.48a7.77,7.77,0,0,1-2.52-1.57,9.41,9.41,0,0,1-1.6-2.11l-.36-.62-.39-.69A27.52,27.52,0,0,0,236.68,198a11,11,0,0,1-.85,3.55l-.15.42a8.38,8.38,0,0,0,0,6.16,5.68,5.68,0,0,0,4.82,3.48,10.12,10.12,0,0,0,4.12-1,21.18,21.18,0,0,1,2.11-.77A11.39,11.39,0,0,1,250,209.35Zm16.21-13.53Z"/><path class="cls-1" d="M259.91,252.56c-.16,2.52.14,5.14-.66,7.56-1.89,5.69-8.19,6-11,7.58-2.36,1.36-2.79,2.93-1.85,4.39,10.87-.11,25.86-.9,36.84-1,.3-1.43.91-2.49-1.5-3.95-1.5-.91-10.72-2.89-11.92-4.62a6.2,6.2,0,0,1-.86-2.62c-.41-2.47-.19-4.58-.41-7.07A57.56,57.56,0,0,1,259.91,252.56Z"/><path d="M246.4,272.57a.47.47,0,0,1-.4-.22,2.88,2.88,0,0,1-.46-2.32,4.69,4.69,0,0,1,2.47-2.74,17.29,17.29,0,0,1,2.94-1.17c2.91-1,6.54-2.2,7.85-6.15a16.9,16.9,0,0,0,.58-5.17c0-.75,0-1.52.06-2.27a.48.48,0,0,1,.18-.35.47.47,0,0,1,.38-.09,55.38,55.38,0,0,0,8.51.24.47.47,0,0,1,.51.43c.1,1.05.11,2,.13,3a26.7,26.7,0,0,0,.28,4.05,5.85,5.85,0,0,0,.78,2.43c.67,1,4.89,2.23,7.69,3.07a25.19,25.19,0,0,1,4.09,1.42c2.44,1.47,2.12,2.75,1.82,4,0,.15-.07.3-.11.46a.46.46,0,0,1-.46.38c-5.49.06-12.1.29-18.49.51s-12.92.45-18.35.51Zm14-19.47q0,.85,0,1.71a17.78,17.78,0,0,1-.63,5.46c-1.46,4.4-5.33,5.7-8.45,6.75a16.7,16.7,0,0,0-2.76,1.09,3.88,3.88,0,0,0-2,2.14,1.85,1.85,0,0,0,.21,1.36c5.36-.06,11.81-.28,18.05-.5s12.71-.44,18.14-.51l0-.11c.28-1.15.45-1.85-1.39-3a28,28,0,0,0-3.87-1.32c-4.16-1.25-7.41-2.3-8.2-3.44a6.64,6.64,0,0,1-.94-2.82,28,28,0,0,1-.29-4.19c0-.79,0-1.6-.09-2.45A63,63,0,0,1,260.36,253.1Z"/><path d="M238.37,244.12a.42.42,0,0,1-.28-.1.48.48,0,0,1-.09-.67c.56-.74,1.19-1.64,1.8-2.52s1.25-1.79,1.83-2.55a.48.48,0,0,1,.67-.09.5.5,0,0,1,.09.67c-.57.74-1.2,1.64-1.81,2.52s-1.25,1.79-1.83,2.55A.47.47,0,0,1,238.37,244.12Z"/><path d="M280.58,188.85a.49.49,0,0,1-.25-.08.48.48,0,0,1-.15-.66c.48-.74,1.22-1.66,1.94-2.54.57-.7,1.15-1.43,1.61-2.07a.48.48,0,0,1,.66-.11.49.49,0,0,1,.11.67c-.47.66-1.07,1.39-1.64,2.11a29.3,29.3,0,0,0-1.87,2.46A.5.5,0,0,1,280.58,188.85Z"/><path d="M265.55,253.39c-11.35,0-21.91-4.59-27.49-9.39a.48.48,0,0,1,.62-.72c6.19,5.33,18.66,10.38,31.44,8.9a34.59,34.59,0,0,0,24.51-14.44c5.82-8,8.14-21.15,5.64-32a31.87,31.87,0,0,0-16.38-21.57.48.48,0,0,1-.2-.64.48.48,0,0,1,.65-.2,32.78,32.78,0,0,1,16.85,22.2c2.56,11.07.18,24.53-5.79,32.74a35.54,35.54,0,0,1-25.17,14.83A40.91,40.91,0,0,1,265.55,253.39Z"/><path d="M246.35,270.2a.16.16,0,0,1-.16-.15.16.16,0,0,1,.15-.17c12.16-.72,24.51-1.09,36.7-1.1a.16.16,0,0,1,.15.16.16.16,0,0,1-.15.16c-12.19,0-24.53.38-36.69,1.1Z"/><path d="M234,220.51a.16.16,0,0,1-.16-.11,21.79,21.79,0,0,1-.67-7.87.16.16,0,0,1,.18-.14.15.15,0,0,1,.14.17,21.11,21.11,0,0,0,.66,7.75.17.17,0,0,1-.11.2Z"/><path d="M236.06,217.75a.15.15,0,0,1-.14-.1,3.46,3.46,0,0,1-.27-2.08.17.17,0,0,1,.19-.13.16.16,0,0,1,.12.19,3.17,3.17,0,0,0,.25,1.89.16.16,0,0,1-.08.21Z"/><path d="M289.41,206.08a.16.16,0,0,1-.15-.12,31.12,31.12,0,0,0-1.92-5.52.16.16,0,0,1,.29-.13,31.51,31.51,0,0,1,1.94,5.58.16.16,0,0,1-.12.19Z"/><path d="M286,198.23a.19.19,0,0,1-.14-.07L284.54,196a.17.17,0,0,1,0-.22.16.16,0,0,1,.22.05l1.31,2.12a.15.15,0,0,1-.05.22Z"/><path class="cls-1" d="M43.31,279.84c-8.09,6.84-10.28,19.89-4.87,29.1,1,1.77,2.67,3.56,4.68,3.36S46.4,310,47.06,308c1.37-4.07,1.57-8.45,1.75-12.75.22-5,.3-10.45-2.64-14.46C45.79,280.31,44.91,279.86,43.31,279.84Z"/><path d="M42.81,312.79c-2.31,0-4-2.23-4.79-3.61-5.51-9.4-3.27-22.72,5-29.71a.51.51,0,0,1,.31-.11h0c2,0,2.84.66,3.23,1.19,2.94,4,3,9.27,2.74,14.76-.18,4.28-.37,8.71-1.78,12.88-.54,1.61-1.83,4.33-4.34,4.59Zm.67-32.47c-7.81,6.73-9.89,19.42-4.63,28.38.73,1.25,2.25,3.32,4.22,3.13s3.07-2.56,3.54-3.94c1.36-4,1.55-8.41,1.73-12.62.22-5.32.2-10.4-2.55-14.15C45.62,280.89,45.07,280.37,43.48,280.32Z"/><path class="cls-1" d="M99,277.57c8.73,6,12.22,18.76,7.76,28.47-.85,1.86-2.3,3.81-4.32,3.81s-3.49-2-4.35-3.85c-1.77-3.91-2.41-8.25-3-12.51-.71-4.95-1.34-10.36,1.19-14.65C96.62,278.29,97.44,277.75,99,277.57Z"/><path d="M102.47,310.32c-2.53,0-4.08-2.58-4.78-4.12-1.82-4-2.45-8.4-3.06-12.65-.78-5.44-1.28-10.67,1.25-14.95.33-.56,1.14-1.29,3.1-1.51a.51.51,0,0,1,.32.08c8.91,6.13,12.47,19.16,7.92,29.07-.7,1.52-2.25,4.08-4.75,4.08Zm-3.56-32.26c-1.57.21-2.07.78-2.21,1-2.37,4-1.89,9.06-1.13,14.33.6,4.18,1.22,8.5,3,12.38.6,1.34,1.91,3.57,3.91,3.57h0c2,0,3.28-2.21,3.89-3.53C110.7,296.39,107.35,284,98.91,278.06Z"/><path class="cls-1" d="M58.08,251.21c1.58-3.72-.12-8.21,2.44-11.56a10.31,10.31,0,0,1,6.5-3.42,21.11,21.11,0,0,1,8.1.45A8.74,8.74,0,0,1,80.58,241c2.37,4,2.16,7.69,2,12a1.78,1.78,0,0,1-.31,1.16c-.63.76-2.27.53-3-.2a3.77,3.77,0,0,1-.91-2.64,18.5,18.5,0,0,0-1.14-6.35,8.36,8.36,0,0,0-5.37-4.68c-3-.81-6.5.3-7.84,2.45a8.09,8.09,0,0,0-.91,4.15c-.06,1.27-.1,2.54-.16,3.81a3,3,0,0,1-.75,2.25,2.77,2.77,0,0,1-2.83.31C58.48,252.78,57.83,251.81,58.08,251.21Z"/><path d="M81.1,255.05a3.14,3.14,0,0,1-2.13-.81,4.24,4.24,0,0,1-1.06-3l0-.34a17.06,17.06,0,0,0-1.08-5.85,7.88,7.88,0,0,0-5-4.41c-2.74-.75-6.09.28-7.32,2.25a7.7,7.7,0,0,0-.84,3.9l-.15,3.82a3.39,3.39,0,0,1-.92,2.58,3.24,3.24,0,0,1-3.35.39c-1-.48-1.93-1.68-1.54-2.61h0a14,14,0,0,0,.79-5c.08-2.3.17-4.68,1.71-6.7a10.73,10.73,0,0,1,6.81-3.6,21.57,21.57,0,0,1,8.28.45,9.1,9.1,0,0,1,5.75,4.5c2.34,3.89,2.25,7.49,2.14,11.66V253a2.24,2.24,0,0,1-.42,1.46,2,2,0,0,1-1.44.64ZM69.85,239.49a8.26,8.26,0,0,1,2.16.28,8.86,8.86,0,0,1,5.67,4.95,17.56,17.56,0,0,1,1.16,6.17l0,.34a3.32,3.32,0,0,0,.77,2.33,2.2,2.2,0,0,0,1.57.53,1,1,0,0,0,.76-.29,1.37,1.37,0,0,0,.2-.87v-.58c.1-4,.19-7.5-2-11.15A8.19,8.19,0,0,0,75,237.14a20.46,20.46,0,0,0-7.91-.44,9.75,9.75,0,0,0-6.2,3.24c-1.36,1.77-1.44,3.9-1.52,6.15a14.86,14.86,0,0,1-.86,5.31h0c-.12.28.32,1,1.07,1.37a2.33,2.33,0,0,0,2.31-.24,2.52,2.52,0,0,0,.6-1.91l.15-3.81a8.61,8.61,0,0,1,1-4.38C64.76,240.62,67.3,239.49,69.85,239.49ZM58.08,251.21h0Z"/><path class="cls-1" d="M50.12,253.56c-3.67,2.17-4.74,6.71-5.35,10.77a178.73,178.73,0,0,0-1.6,37.12c.25,3.94.85,8.31,4,10.83,2.32,1.84,5.51,2.25,8.52,2.49,12.77,1,25.77,1.13,38.33-1.42,2.13-.43,4.34-1,6-2.36,2.57-2.23,2.86-5.94,2.69-9.25-.6-11.23-2.73-23.92-4.54-35C96,253.5,91.83,249.82,82.82,249.76,71.76,250.31,60.35,247.5,50.12,253.56Z"/><path d="M71.27,315.92c-4.84,0-10-.23-15.59-.67-3-.24-6.32-.66-8.77-2.6-3.25-2.57-3.95-6.89-4.21-11.17a178.32,178.32,0,0,1,1.6-37.22c.63-4.23,1.79-8.87,5.58-11.11h0c7.53-4.46,15.79-4.19,23.78-3.92,3,.1,6.11.21,9.14.05,9.75.07,13.74,4.45,15.83,17.35l.3,1.82c1.72,10.6,3.68,22.62,4.24,33.27.16,2.94,0,7.13-2.85,9.63-1.69,1.46-4,2-6.18,2.47A114.38,114.38,0,0,1,71.27,315.92ZM50.36,254c-3.45,2-4.52,6.42-5.12,10.43a177.77,177.77,0,0,0-1.59,37c.25,4.06.89,8.15,3.85,10.49,2.24,1.77,5.44,2.16,8.26,2.39,15.29,1.22,27.43.77,38.19-1.41,2.08-.43,4.23-.95,5.74-2.26,2.57-2.22,2.68-6.12,2.53-8.86-.56-10.6-2.51-22.59-4.23-33.17l-.3-1.81c-2-12.47-5.63-16.49-14.87-16.56-3,.16-6.17.05-9.2,0-8.21-.27-16-.53-23.26,3.79Z"/><path class="cls-2" d="M58.11,249.27c-3,0-6.74.18-9.11,1.86-2.78,2-3,5.64-2.83,8.82a22.3,22.3,0,0,0,2.35,9.62c2.56,4.53,7.72,7.52,13.18,8.74s11.17.16,16.8.1c20.25-.21,18.61-25.36,16.73-27.83-2.16-2.86-6.65-3.05-10.49-3S62.53,249.26,58.11,249.27Z"/><path d="M67.7,279.37a27.8,27.8,0,0,1-6.1-.59c-6.13-1.38-11.05-4.65-13.49-9-1.76-3.12-2.21-6.72-2.41-9.82-.19-2.92-.09-7,3-9.24,2.4-1.7,6.09-1.93,9.39-1.94h0c2.47,0,9.45-.51,15.61-1,4.81-.35,9.34-.67,11-.71,4.34-.1,8.66.21,10.88,3.15,1.23,1.62,2.33,11.33-1.47,19.09-3,6.14-8.42,9.43-15.63,9.51-1.72,0-3.47.13-5.16.24C71.49,279.25,69.59,279.37,67.7,279.37Zm-9.59-29.62c-3.15,0-6.66.22-8.84,1.77-2.72,1.92-2.8,5.71-2.62,8.39.19,3,.62,6.47,2.29,9.42,2.3,4.1,7,7.2,12.87,8.52,3.72.84,7.66.58,11.48.33,1.7-.11,3.47-.23,5.21-.25,6.92-.07,11.9-3.09,14.78-9,3.68-7.5,2.46-16.92,1.57-18.09-2-2.6-6-2.87-10.1-2.78-1.64,0-6.17.36-11,.71-6.18.44-13.18.94-15.68.95Z"/><path class="cls-1" d="M73.68,273.16l-4.7.17a3.37,3.37,0,0,0-1.87.45,2.54,2.54,0,0,0-.78,2.14,23.89,23.89,0,0,0,.29,4.22,2.55,2.55,0,0,0,.87,1.8,3.48,3.48,0,0,0,1.89.61c1.6,0,3.19-.26,4.79-.26,1.11,0,2.39-.09,3-.93a2.93,2.93,0,0,0,.41-1.77c0-1.63.35-4.11-.5-5.75C76.58,272.84,74.89,273.07,73.68,273.16Z"/><path d="M69.37,283a3.89,3.89,0,0,1-2.15-.69,3,3,0,0,1-1.07-2.12,25.76,25.76,0,0,1-.3-4.3,3,3,0,0,1,1-2.52,3.74,3.74,0,0,1,2.14-.53l5-.2c1.25-.1,3-.25,3.6,1,.75,1.45.66,3.42.59,5,0,.35,0,.68,0,1a3.37,3.37,0,0,1-.51,2c-.73,1-2.07,1.11-3.4,1.11-.78,0-1.58.07-2.36.13s-1.61.13-2.43.13Zm5.79-9.47c-.39,0-.8,0-1.16.06l-.28,0h0l-4.7.17a3,3,0,0,0-1.61.35,2.17,2.17,0,0,0-.59,1.77,23.77,23.77,0,0,0,.29,4.13,2.13,2.13,0,0,0,.67,1.49,3,3,0,0,0,1.61.52h0c.79,0,1.59-.07,2.37-.13s1.61-.12,2.43-.13c1.09,0,2.16-.09,2.64-.73a2.52,2.52,0,0,0,.32-1.5c0-.31,0-.65,0-1,.07-1.47.15-3.3-.49-4.52C76.46,273.65,75.84,273.55,75.16,273.55Zm-1.48-.39h0Z"/><path d="M72.12,280.24a.47.47,0,0,1-.47-.45l-.27-4.06a.48.48,0,0,1,1-.06l.27,4.06a.48.48,0,0,1-.45.51Z"/><path class="cls-1" d="M88.5,288.07c-10.39.26-19.32.44-29.71.7a6,6,0,0,0-3,.58c-1.52.89-2,2.87-2.23,4.64a70.14,70.14,0,0,0-.71,9.5,8.23,8.23,0,0,0,.59,3.79c1.23,2.47,4.33,3.15,7,3.43a98.37,98.37,0,0,0,27.78-1A7,7,0,0,0,92.21,308a6.78,6.78,0,0,0,1.49-5.13C93.37,296.21,94,287.8,88.5,288.07Z"/><path d="M70.73,311.72a98,98,0,0,1-10.27-.54c-2.74-.28-6.05-1-7.4-3.68a8.76,8.76,0,0,1-.65-4,73,73,0,0,1,.72-9.57c.27-1.9.77-4,2.46-5a6.58,6.58,0,0,1,3.19-.65c5.19-.13,10-.24,14.85-.34l14.86-.35a4.09,4.09,0,0,1,3.1,1c2.22,2.05,2.36,6.79,2.49,11.37,0,.95,0,1.93.1,2.86.08,1.66-.13,4-1.63,5.49a7.43,7.43,0,0,1-4.17,1.77A98.77,98.77,0,0,1,70.73,311.72Zm18-23.18h-.25l-14.86.35-14.86.34a5.75,5.75,0,0,0-2.73.52c-1.34.79-1.76,2.61-2,4.3a72.59,72.59,0,0,0-.71,9.43,7.92,7.92,0,0,0,.55,3.58c1.15,2.31,4.16,2.91,6.65,3.17a97.83,97.83,0,0,0,27.65-1.05,6.62,6.62,0,0,0,3.66-1.49c1.26-1.29,1.43-3.31,1.36-4.78,0-.94-.08-1.93-.1-2.88-.13-4.39-.26-8.92-2.18-10.7A3,3,0,0,0,88.77,288.54Zm-.27-.47h0Z"/><path d="M66.61,295.21c-3.18,0-6.36,0-9.52-.15a.17.17,0,0,1-.16-.17.16.16,0,0,1,.17-.15A288.26,288.26,0,0,0,90,294a.16.16,0,0,1,.17.15.16.16,0,0,1-.15.17C82.24,294.9,74.41,295.21,66.61,295.21Z"/><path d="M49.55,257.69a.15.15,0,0,1-.15-.13,17,17,0,0,1,.06-5.86.17.17,0,0,1,.19-.13.17.17,0,0,1,.13.19,16.58,16.58,0,0,0-.07,5.75.15.15,0,0,1-.13.18Z"/><path d="M52.32,254.17a.15.15,0,0,1-.15-.14,11.81,11.81,0,0,1,.14-3.25.15.15,0,0,1,.18-.12.15.15,0,0,1,.13.18,12,12,0,0,0-.14,3.16.15.15,0,0,1-.14.17Z"/><path d="M91.9,253.08a.16.16,0,0,1-.16-.14l-.34-3.24a.16.16,0,0,1,.32,0l.34,3.24a.17.17,0,0,1-.14.18Z"/><path class="cls-2" d="M309.21,174a6.75,6.75,0,0,1,5.39.34,17.81,17.81,0,0,1,4.63,3.39A17.1,17.1,0,0,1,322.7,182a19.27,19.27,0,0,1,1.29,3.33c.51,1.58,1,3.17,1.51,4.75-3.92-1.32-7.95-2.68-11.27-5.25S308.38,178.11,309.21,174Z"/><path d="M313,184.35c-2.74-2.49-5.07-6.3-4.23-10.41a.47.47,0,0,1,.27-.34,7.17,7.17,0,0,1,5.78.35,18.34,18.34,0,0,1,4.76,3.48,17.7,17.7,0,0,1,3.56,4.29,20.48,20.48,0,0,1,1.33,3.42l1.5,4.74a.47.47,0,0,1-.12.49.49.49,0,0,1-.48.11c-3.74-1.25-8-2.67-11.41-5.33C313.62,184.9,313.3,184.64,313,184.35Zm-3.35-10c-.69,4.05,2.05,7.82,4.89,10,3.05,2.36,6.68,3.68,10.24,4.88l-1.22-3.85a19.27,19.27,0,0,0-1.26-3.26,16.68,16.68,0,0,0-3.37-4,17.45,17.45,0,0,0-4.51-3.31A6.4,6.4,0,0,0,309.63,174.38Z"/><path class="cls-1" d="M314.24,174.33a153.19,153.19,0,0,0-48.75-43.41c-1.17-.66-3.15-1-3.33.34a2.17,2.17,0,0,0,.52,1.42A166.67,166.67,0,0,0,310,179.33C311.24,177.61,312.78,176.13,314.24,174.33Z"/><path d="M288.77,163.53a167.22,167.22,0,0,1-26.49-30.59,2.54,2.54,0,0,1-.59-1.74,1.43,1.43,0,0,1,.78-1.12,3.9,3.9,0,0,1,3.25.42,153.92,153.92,0,0,1,48.9,43.55.47.47,0,0,1,0,.57c-.61.76-1.24,1.46-1.85,2.14-.85,1-1.65,1.86-2.36,2.84a.47.47,0,0,1-.64.13A166.3,166.3,0,0,1,288.77,163.53Zm4.14-12.25a152.36,152.36,0,0,0-27.65-19.95,3.07,3.07,0,0,0-2.36-.39.46.46,0,0,0-.27.39,1.78,1.78,0,0,0,.44,1.08,167.07,167.07,0,0,0,46.83,46.27c.66-.88,1.39-1.69,2.15-2.55.53-.59,1.06-1.19,1.59-1.82A152.38,152.38,0,0,0,292.91,151.28Z"/><path d="M293.71,167.89l0,0a.47.47,0,0,1,0-.67l7.75-7.95a.47.47,0,0,1,.67,0,.47.47,0,0,1,0,.67l-7.75,8A.48.48,0,0,1,293.71,167.89Z"/><path d="M293.22,155.1a.16.16,0,0,1,0-.21.16.16,0,0,1,.22,0,36.9,36.9,0,0,1,5.33,4.59.15.15,0,0,1,0,.22.16.16,0,0,1-.22,0,36.4,36.4,0,0,0-5.29-4.55Z"/><path d="M295,159.61a.16.16,0,0,1,0-.22.16.16,0,0,1,.23,0l2,1.76a.16.16,0,0,1-.21.24l-2-1.76Z"/><path class="cls-1" d="M305.48,411.13c-6.4-8.92-17.37-15.36-28.57-16.07-16.35-1.05-23.51,4-30.25,12.44-5,6.21-8,12.42-9,23.57-1.15,13.54,8.73,27.86,22.38,35.9,11.42,6.73,25.32,2.14,22.92-6.67-.56-2.06-2.06-3.86-2.28-6-.39-3.73,3.36-6.6,7-7.41s7.58-.37,11.18-1.44c6.31-1.88,10.42-8.25,11.18-14.76S309.73,417.05,305.48,411.13Z"/><path d="M271.49,470.65a23.2,23.2,0,0,1-11.68-3.27,51.38,51.38,0,0,1-16.9-16c-4.3-6.69-6.27-13.71-5.71-20.31,1-11.6,4.34-17.91,9.09-23.83,7-8.78,14.31-13.66,30.65-12.62a39.69,39.69,0,0,1,28.93,16.27h0a28.37,28.37,0,0,1,4.68,19.91c-.84,7.27-5.47,13.37-11.51,15.17a27.89,27.89,0,0,1-6.2.86,33.7,33.7,0,0,0-5,.58c-3.5.77-7,3.46-6.66,6.91a9.79,9.79,0,0,0,1.18,3.27,15.65,15.65,0,0,1,1.09,2.63,7,7,0,0,1-2.74,7.82A15.44,15.44,0,0,1,271.49,470.65Zm1.32-75.26c-13.12,0-19.55,4.63-25.78,12.41-4.77,5.94-7.91,11.92-8.88,23.31-1.09,12.76,7.81,27,22.14,35.45,7.6,4.47,15.88,3.69,19.82.68a6.14,6.14,0,0,0,2.4-6.81,14.3,14.3,0,0,0-1-2.46,10.82,10.82,0,0,1-1.27-3.6c-.41-4,3.51-7.07,7.4-7.93a34.86,34.86,0,0,1,5.17-.6,26.61,26.61,0,0,0,6-.83c6.57-1.95,10.18-8.62,10.84-14.36a27.46,27.46,0,0,0-4.5-19.25c-6.43-9-17.51-15.19-28.22-15.87C275.46,395.44,274.1,395.39,272.81,395.39Z"/><path class="cls-1" d="M269.7,450.93a7.34,7.34,0,0,0-6.27-3.21,5.39,5.39,0,0,0-4.95,3.86,4.74,4.74,0,0,0-.09,2,7.69,7.69,0,0,0,2.08,3.67,11.09,11.09,0,0,0,4.35,3,5.75,5.75,0,0,0,4.92-.3,4.79,4.79,0,0,0,2-4.25C271.7,454,270.75,452.53,269.7,450.93Z"/><path d="M267.11,461.15a7.45,7.45,0,0,1-2.45-.43,11.31,11.31,0,0,1-4.54-3.16,7.91,7.91,0,0,1-2.2-3.91,5.24,5.24,0,0,1,.1-2.19,5.85,5.85,0,0,1,5.38-4.21,7.85,7.85,0,0,1,6.7,3.42h0c1,1.48,2.07,3.15,2.12,5a5.25,5.25,0,0,1-2.22,4.66A5.32,5.32,0,0,1,267.11,461.15Zm-3.34-13h-.31a4.9,4.9,0,0,0-4.52,3.5,4.34,4.34,0,0,0-.08,1.79,7,7,0,0,0,2,3.42,10.42,10.42,0,0,0,4.16,2.91,5.32,5.32,0,0,0,4.51-.25,4.31,4.31,0,0,0,1.78-3.84c0-1.5-.88-2.88-2-4.53h0A6.88,6.88,0,0,0,263.77,448.19Z"/><path class="cls-2" d="M248.86,435.59a7.86,7.86,0,0,1-.06-10.67c1.27-1.33,3.28-2.18,4.91-1.45a4.14,4.14,0,0,1,2.13,2.91,12.52,12.52,0,0,1,.11,3.77,11.06,11.06,0,0,1-1.27,5.3C253.69,437,251.5,438.12,248.86,435.59Z"/><path d="M252,437.56a5,5,0,0,1-3.43-1.63h0a7.8,7.8,0,0,1-2.26-5.47,8.23,8.23,0,0,1,2.18-5.87c1.34-1.39,3.55-2.41,5.46-1.55a4.54,4.54,0,0,1,2.39,3.23,13.26,13.26,0,0,1,.13,3.91,11.77,11.77,0,0,1-1.35,5.53,3.83,3.83,0,0,1-2.72,1.83Zm.45-13.88a4.89,4.89,0,0,0-3.27,1.57,7.28,7.28,0,0,0-1.92,5.19,6.85,6.85,0,0,0,2,4.8h0a3.89,3.89,0,0,0,3.05,1.35,2.87,2.87,0,0,0,2-1.39,10.91,10.91,0,0,0,1.2-5.08,12.66,12.66,0,0,0-.1-3.64,3.64,3.64,0,0,0-1.87-2.57A2.62,2.62,0,0,0,252.41,423.68Z"/><path class="cls-2" d="M256,416a8.15,8.15,0,0,1,6.92-10.55,8.66,8.66,0,0,0,1.52-.19,11.1,11.1,0,0,0,2.67-1.64,6.34,6.34,0,0,1,6.73,0,2.56,2.56,0,0,1,1,1,3.08,3.08,0,0,1-.74,3,6.46,6.46,0,0,0-1.6,2.79c-.14,1.1.47,2.13.75,3.2a5.91,5.91,0,0,1-2.94,6.53,2.56,2.56,0,0,1-1.44.34c-1.27-.15-2-1.72-3.27-1.84s-2.18,1.21-3.32,1.8a4,4,0,0,1-4.09-.58A7.22,7.22,0,0,1,256,416Z"/><path d="M260.74,421.16a4.81,4.81,0,0,1-2.89-1,7.59,7.59,0,0,1-2.32-4h0A8.63,8.63,0,0,1,262.85,405l.42,0a5.46,5.46,0,0,0,1-.14,5.54,5.54,0,0,0,1.71-1c.26-.2.54-.41.83-.59a6.78,6.78,0,0,1,7.25,0,3,3,0,0,1,1.14,1.18c.45,1,.17,2.2-.79,3.48l-.34.44a4.66,4.66,0,0,0-1.16,2.12,4.39,4.39,0,0,0,.4,2,9.76,9.76,0,0,1,.33,1,6.35,6.35,0,0,1-3.18,7.07,3,3,0,0,1-1.71.39,3.67,3.67,0,0,1-1.88-1,2.7,2.7,0,0,0-1.39-.8,2.88,2.88,0,0,0-1.83.9,8.09,8.09,0,0,1-1.23.84A3.66,3.66,0,0,1,260.74,421.16Zm9.77-18.07a5.84,5.84,0,0,0-3.17.91,9.17,9.17,0,0,0-.77.55,6.31,6.31,0,0,1-2,1.15,6.52,6.52,0,0,1-1.21.17l-.39,0a7.68,7.68,0,0,0-6.52,9.93h0a6.78,6.78,0,0,0,2,3.56,3.43,3.43,0,0,0,3.58.53,6.66,6.66,0,0,0,1.07-.74,3.62,3.62,0,0,1,2.51-1.1,3.54,3.54,0,0,1,1.92,1,2.9,2.9,0,0,0,1.37.81,2.1,2.1,0,0,0,1.16-.29,5.46,5.46,0,0,0,2.7-6c-.08-.3-.19-.6-.3-.92a5.17,5.17,0,0,1-.46-2.47,5.48,5.48,0,0,1,1.36-2.57l.33-.43c.43-.57,1.09-1.66.69-2.5a2.18,2.18,0,0,0-.79-.79A5.65,5.65,0,0,0,270.51,403.09Z"/><path class="cls-2" d="M287.71,406a6,6,0,0,0-3.62,1.67c-1.15,1-2.16,2.54-1.74,4a8.82,8.82,0,0,0,.59,1.29,4.81,4.81,0,0,1-.95,5.16,10,10,0,0,0-1.41,1.43,3.25,3.25,0,0,0-.36,2.42,4.68,4.68,0,0,0,5.81,3.4c1.05-.33,2-1,3.09-1.09,1.69-.1,3.07,1.38,4.76,1.53a3.53,3.53,0,0,0,3.37-4.5c-.62-1.58-2.37-2.42-3.11-3.95s-.33-3.27-.33-4.95S289,405.93,287.71,406Z"/><path d="M294.11,426.25h-.28a6.89,6.89,0,0,1-2.36-.81,4.9,4.9,0,0,0-2.33-.72,5.06,5.06,0,0,0-1.77.59c-.38.17-.78.35-1.19.49a5.17,5.17,0,0,1-6.43-3.76,3.71,3.71,0,0,1,.43-2.78,5.8,5.8,0,0,1,1-1.05c.18-.16.34-.3.49-.45a4.34,4.34,0,0,0,.85-4.63c-.06-.15-.13-.28-.2-.42a5,5,0,0,1-.41-.94c-.4-1.41.3-3.08,1.89-4.47a6.31,6.31,0,0,1,3.91-1.79c.94,0,2.58,1.4,3.47,2.25.52.51,3.12,3.11,3.12,4.62,0,.45,0,.9,0,1.34a6.9,6.9,0,0,0,.34,3.4,6.7,6.7,0,0,0,1.41,1.73,6.51,6.51,0,0,1,1.71,2.26,3.69,3.69,0,0,1-.64,3.56A3.74,3.74,0,0,1,294.11,426.25Zm-4.83-2.49a5.92,5.92,0,0,1,2.61.81,5.9,5.9,0,0,0,2,.72,2.76,2.76,0,0,0,2.37-1.2,2.81,2.81,0,0,0,.51-2.65,5.71,5.71,0,0,0-1.49-1.92,7.38,7.38,0,0,1-1.59-2,7.65,7.65,0,0,1-.44-3.88c0-.42.05-.86.05-1.28,0-.67-1.22-2.36-2.84-3.93s-2.48-2-2.76-2h0a5.65,5.65,0,0,0-3.31,1.55c-.49.43-2.05,1.95-1.6,3.5a4.49,4.49,0,0,0,.33.76c.08.16.16.31.23.47a5.23,5.23,0,0,1-1,5.68c-.18.18-.36.34-.53.5a4.13,4.13,0,0,0-.82.86,2.78,2.78,0,0,0-.3,2.07,4,4,0,0,0,1.95,2.61,4.07,4.07,0,0,0,3.26.43,8.86,8.86,0,0,0,1.08-.45,6.12,6.12,0,0,1,2.12-.67Z"/><path d="M285.87,400.19l-.06,0a22.54,22.54,0,0,0-8.69-1.85.17.17,0,0,1-.16-.16.16.16,0,0,1,.16-.16,22.72,22.72,0,0,1,8.81,1.88.17.17,0,0,1,.09.21A.18.18,0,0,1,285.87,400.19Z"/><path d="M272.71,466.69a.17.17,0,0,1-.16-.15.17.17,0,0,1,.16-.17,12.31,12.31,0,0,0,6.21-2,.17.17,0,0,1,.22.05.16.16,0,0,1,0,.22,12.64,12.64,0,0,1-6.38,2.05Z"/><path class="cls-2" d="M107.88,408c-1.67-1.53-4.37-1.06-6.21.1a12.38,12.38,0,0,0-5.34,8.37,9.47,9.47,0,0,0,.13,4.52,8.59,8.59,0,0,0,3,4.09,3.13,3.13,0,0,0,1.16.63c1.21.29,2.24-.7,3-1.62a34.61,34.61,0,0,0,5.28-9.74,7.33,7.33,0,0,0,.56-3A4.83,4.83,0,0,0,107.88,408Z"/><path d="M101,426.23a2,2,0,0,1-.54-.07,3.51,3.51,0,0,1-1.34-.71A9.06,9.06,0,0,1,96,421.12a9.8,9.8,0,0,1-.15-4.74,12.89,12.89,0,0,1,5.55-8.7c2-1.22,4.92-1.76,6.79-.05h0a5.33,5.33,0,0,1,1.7,3.69,7.72,7.72,0,0,1-.59,3.17,35,35,0,0,1-5.36,9.88A3.94,3.94,0,0,1,101,426.23Zm4.15-18.74a6.38,6.38,0,0,0-3.27,1,11.93,11.93,0,0,0-5.13,8.06,8.83,8.83,0,0,0,.13,4.29,8.14,8.14,0,0,0,2.82,3.86,2.77,2.77,0,0,0,1,.54c.75.18,1.59-.31,2.48-1.46a34.17,34.17,0,0,0,5.22-9.6,7.22,7.22,0,0,0,.53-2.79,4.41,4.41,0,0,0-1.39-3.05A3.4,3.4,0,0,0,105.19,407.49Z"/><polygon class="cls-1" points="163.51 434.83 161.27 441.29 169.63 443.47 171.3 438.65 163.51 434.83"/><path d="M169.63,444l-.12,0-8.36-2.18a.47.47,0,0,1-.3-.23.43.43,0,0,1,0-.38l2.24-6.46a.51.51,0,0,1,.27-.29.48.48,0,0,1,.39,0l7.79,3.82a.46.46,0,0,1,.24.58l-1.67,4.82A.48.48,0,0,1,169.63,444Zm-7.75-3,7.44,1.94,1.4-4-6.94-3.39Z"/><path d="M174.36,486.81a.49.49,0,0,1-.41-.24c-6.48-11.5-16.27-28.87-24.39-45.92a.47.47,0,1,1,.86-.4c8.1,17,17.89,34.37,24.36,45.85a.48.48,0,0,1-.18.65A.53.53,0,0,1,174.36,486.81Z"/><path d="M127.25,488.83a.43.43,0,0,1-.19,0,.48.48,0,0,1-.24-.63c5.26-12,13.22-30.09,19.55-47.73a.47.47,0,1,1,.89.32c-6.33,17.67-14.3,35.8-19.57,47.8A.5.5,0,0,1,127.25,488.83Z"/><path d="M150.81,487.9a.47.47,0,0,1-.47-.45c-.28-5.42-.57-12-.88-19-.38-8.53-.81-18.2-1.31-27.9a.49.49,0,0,1,.45-.5.47.47,0,0,1,.5.45c.5,9.71.93,19.38,1.31,27.91.31,7,.6,13.59.88,19a.49.49,0,0,1-.45.5Z"/><polygon class="cls-1" points="133.41 419.95 128.8 433.2 160.02 443.68 164.02 432.18 133.41 419.95"/><path d="M160,444.15l-.15,0-31.22-10.48a.46.46,0,0,1-.27-.24.48.48,0,0,1,0-.37L133,419.8a.46.46,0,0,1,.25-.28.5.5,0,0,1,.38,0l30.6,12.22a.48.48,0,0,1,.28.6l-4,11.5A.48.48,0,0,1,160,444.15ZM129.41,432.9l30.31,10.18,3.7-10.63L133.7,420.58Z"/><polygon class="cls-1" points="108.09 406.21 100.74 427.33 132.16 437.3 138.54 418.96 108.09 406.21"/><path d="M132.16,437.78l-.15,0-31.41-10a.51.51,0,0,1-.28-.24.48.48,0,0,1,0-.37l7.35-21.12a.45.45,0,0,1,.26-.28.44.44,0,0,1,.37,0l30.45,12.75a.49.49,0,0,1,.27.6l-6.38,18.34A.48.48,0,0,1,132.16,437.78ZM101.35,427l30.51,9.68,6.08-17.48-29.57-12.38Z"/><path class="cls-2" d="M149.24,435.58a5,5,0,0,1,3.74,2.61,4.93,4.93,0,1,1-9.15,3.28A5,5,0,0,1,149.24,435.58Z"/><path d="M148.88,446a5.7,5.7,0,0,1-2.76-.75,5.54,5.54,0,0,1-2.76-3.64,5.62,5.62,0,0,1,1.45-4.84,5.09,5.09,0,0,1,4.49-1.61h0a5.37,5.37,0,0,1,4.28,7.41,5.36,5.36,0,0,1-3.09,3.16A4.86,4.86,0,0,1,148.88,446Zm-.29-9.94a4.15,4.15,0,0,0-3.09,1.36,4.76,4.76,0,0,0-1.21,4,4.57,4.57,0,0,0,2.3,3,4.32,4.32,0,0,0,3.58.41,4.38,4.38,0,0,0,2.52-2.6,4.42,4.42,0,0,0-3.51-6.13C149,436,148.78,436,148.59,436Z"/><path d="M129,436.47h0a.16.16,0,0,1-.1-.2c.77-2.3,1.93-5.82,3.05-9.23s2.27-6.93,3.05-9.23a.15.15,0,0,1,.2-.1.16.16,0,0,1,.1.2c-.77,2.3-1.93,5.82-3,9.23s-2.28,6.93-3.05,9.23A.15.15,0,0,1,129,436.47Z"/><path d="M157.43,443h-.06a.16.16,0,0,1-.09-.21c.5-1.4,1.29-3.53,2.05-5.6s1.54-4.17,2-5.56a.16.16,0,0,1,.3.1c-.5,1.4-1.28,3.52-2,5.57s-1.55,4.2-2,5.6A.17.17,0,0,1,157.43,443Z"/><path d="M130.68,422.31h-.07a.16.16,0,0,1-.07-.21,14.19,14.19,0,0,0,1.06-3.1.15.15,0,0,1,.19-.12.14.14,0,0,1,.12.18,14.67,14.67,0,0,1-1.09,3.17A.14.14,0,0,1,130.68,422.31Z"/><path d="M128.91,419.85h0a.17.17,0,0,1-.11-.2l.45-1.59a.16.16,0,1,1,.31.09l-.45,1.59A.17.17,0,0,1,128.91,419.85Z"/><path d="M158.47,434.11h-.06a.16.16,0,0,1-.08-.21l.66-1.64a.16.16,0,0,1,.3.12l-.67,1.64A.15.15,0,0,1,158.47,434.11Z"/><path class="cls-1" d="M276.24,311c-14.06-.57-22.82,5.74-28.22,15.57a30.92,30.92,0,0,0,1.79,31.81c6.38,9.25,18,14.72,29.38,14.06,3.65-.21,17.38-.62,25-16.26,4.82-9.87,3.68-21.23-1.86-30.74S285.45,311.33,276.24,311Z"/><path d="M277.32,372.93a34.33,34.33,0,0,1-27.9-14.32,31.46,31.46,0,0,1-1.81-32.31c6-11,15.68-16.34,28.65-15.82,8.48.35,20.52,4.4,26.5,14.68s6.6,21.53,1.88,31.19c-3.23,6.61-7.91,11.31-13.92,14a30.8,30.8,0,0,1-11.24,2.52h-.26C278.59,372.91,278,372.93,277.32,372.93Zm-2.86-61.53c-11.83,0-20.35,5-26,15.36a30.49,30.49,0,0,0,1.76,31.31,33.38,33.38,0,0,0,29,13.85h.27c11.28-.63,19.48-6,24.35-16,4.58-9.37,3.91-20.41-1.84-30.29s-17.47-13.87-25.72-14.21Z"/><path class="cls-2" d="M276.24,311c-14.06-.57-22.82,5.74-28.22,15.57a30.92,30.92,0,0,0,1.79,31.81c6.38,9.25,18,14.72,29.38,14.06,3.65-.21,17.38-.62,25-16.26,4.82-9.87,3.68-21.23-1.86-30.74S285.45,311.33,276.24,311Z"/><path d="M277.32,372.93a34.33,34.33,0,0,1-27.9-14.32,31.46,31.46,0,0,1-1.81-32.31c6-11,15.68-16.34,28.65-15.82,8.48.35,20.52,4.4,26.5,14.68s6.6,21.53,1.88,31.19c-3.23,6.61-7.91,11.31-13.92,14a30.8,30.8,0,0,1-11.24,2.52h-.26C278.59,372.91,278,372.93,277.32,372.93Zm-2.86-61.53c-11.83,0-20.35,5-26,15.36a30.49,30.49,0,0,0,1.76,31.31,33.38,33.38,0,0,0,29,13.85h.27c11.28-.63,19.48-6,24.35-16,4.58-9.37,3.91-20.41-1.84-30.29s-17.47-13.87-25.72-14.21Z"/><path class="cls-1" d="M303.4,357.57c.25-.46.5-.94.74-1.43a31.26,31.26,0,0,0,1.34-23.65l-9.93-4.42-.18-10.35A35.09,35.09,0,0,0,276.18,311c-.93,0-1.83,0-2.71,0l-4.37,6.51L258,315.38a30.28,30.28,0,0,0-10,11.15A29.31,29.31,0,0,0,244.52,338l5.78,7-3.64,7.59a29.46,29.46,0,0,0,3.08,5.75,32.83,32.83,0,0,0,14.11,11.33l7.4-3,5.57,5.77c.77,0,1.54,0,2.31-.05a29.2,29.2,0,0,0,15.08-4.56l2.67-9.42Z"/><path d="M277.29,372.93h-.48a.45.45,0,0,1-.33-.14l-5.35-5.54-7.1,2.87a.5.5,0,0,1-.36,0,33.05,33.05,0,0,1-14.32-11.5,30.07,30.07,0,0,1-3.13-5.85.46.46,0,0,1,0-.38l3.51-7.31-5.59-6.79a.49.49,0,0,1-.11-.35,29.78,29.78,0,0,1,3.5-11.63A30.91,30.91,0,0,1,257.69,315a.5.5,0,0,1,.34-.07l10.85,2,4.2-6.26a.45.45,0,0,1,.38-.21c.91,0,1.83,0,2.74,0a35.33,35.33,0,0,1,19.46,6.86.47.47,0,0,1,.19.37l.17,10.05,9.65,4.3a.45.45,0,0,1,.26.28,31.82,31.82,0,0,1-1.36,24c-.24.49-.49,1-.75,1.45a.47.47,0,0,1-.36.25l-6.21.8L294.67,368a.48.48,0,0,1-.19.27,29.21,29.21,0,0,1-15.08,4.62h-.25Q278.25,372.93,277.29,372.93Zm-.27-1c.71,0,1.41,0,2.08-.05h.25a28.26,28.26,0,0,0,14.45-4.37l2.62-9.25a.48.48,0,0,1,.4-.35l6.28-.81c.21-.39.42-.79.62-1.2a30.83,30.83,0,0,0,1.37-23.09l-9.73-4.33a.51.51,0,0,1-.29-.43L294.9,318a34.42,34.42,0,0,0-18.74-6.53c-.81,0-1.62,0-2.43,0l-4.23,6.31a.48.48,0,0,1-.48.2l-11-2a29.93,29.93,0,0,0-9.67,10.88A28.59,28.59,0,0,0,245,337.83l5.66,6.87a.47.47,0,0,1,.06.51l-3.55,7.39a28.49,28.49,0,0,0,3,5.47,32,32,0,0,0,13.72,11.08l7.21-2.92a.48.48,0,0,1,.52.11Zm26.38-14.4h0Z"/><polygon class="cls-2" points="272.12 328.81 287.75 333.71 286.99 348.91 274.81 353.84 263.95 342.59 272.12 328.81"/><path d="M274.81,354.32a.45.45,0,0,1-.34-.15L263.6,342.92a.47.47,0,0,1-.06-.57l8.17-13.78a.48.48,0,0,1,.55-.22l15.63,4.91a.47.47,0,0,1,.33.48l-.75,15.19a.48.48,0,0,1-.3.42L275,354.28A.58.58,0,0,1,274.81,354.32Zm-10.27-11.8,10.39,10.76,11.6-4.7.72-14.52-14.92-4.69Z"/><path d="M272.24,329.27a.48.48,0,0,1-.45-.34l-3.18-11.25a.47.47,0,0,1,.32-.59.48.48,0,0,1,.59.33l3.18,11.25a.47.47,0,0,1-.33.58A.27.27,0,0,1,272.24,329.27Z"/><path d="M287.78,333.85a.49.49,0,0,1-.4-.22.48.48,0,0,1,.15-.66l8-5.07a.47.47,0,1,1,.51.8l-8,5.07A.5.5,0,0,1,287.78,333.85Z"/><path d="M250.07,345.75a.47.47,0,0,1-.09-.94l13.75-2.58a.48.48,0,0,1,.18.94l-13.75,2.58Z"/><path d="M271.21,367.29a.3.3,0,0,1-.13,0,.47.47,0,0,1-.33-.58l3.71-12.94a.47.47,0,0,1,.59-.33.48.48,0,0,1,.32.59L271.67,367A.47.47,0,0,1,271.21,367.29Z"/><path d="M296.4,358.68a.46.46,0,0,1-.33-.13l-9.59-9.38a.47.47,0,1,1,.66-.68l9.59,9.38a.47.47,0,0,1,0,.67A.48.48,0,0,1,296.4,358.68Z"/><path d="M247.18,336.82h0a.16.16,0,0,1-.15-.17,20.42,20.42,0,0,1,2.51-8.62.15.15,0,0,1,.21-.07.15.15,0,0,1,.06.22,20.27,20.27,0,0,0-2.46,8.49A.16.16,0,0,1,247.18,336.82Z"/><path d="M249.24,336.67h0a.16.16,0,0,1-.11-.19l.92-3.54a.16.16,0,0,1,.2-.11.16.16,0,0,1,.11.19l-.92,3.54A.16.16,0,0,1,249.24,336.67Z"/><path d="M302.34,354.6h-.07a.16.16,0,0,1-.07-.22,29.44,29.44,0,0,0,2.08-5.45.16.16,0,0,1,.19-.12.15.15,0,0,1,.11.2,28.79,28.79,0,0,1-2.1,5.52A.15.15,0,0,1,302.34,354.6Z"/><path d="M278.83,313.75h0a10.53,10.53,0,0,0-4.22-.17.15.15,0,0,1-.18-.13.16.16,0,0,1,.13-.18,10.64,10.64,0,0,1,4.35.18.15.15,0,0,1,.11.19A.16.16,0,0,1,278.83,313.75Z"/><polygon class="cls-1" points="277.71 49.61 262.54 61.72 262.28 78.17 277.79 87.85 293.68 78.58 294.56 61.64 277.71 49.61"/><path d="M277.79,88.33a.55.55,0,0,1-.25-.07L262,78.57a.47.47,0,0,1-.22-.41l.26-16.44a.47.47,0,0,1,.18-.37l15.17-12.11a.47.47,0,0,1,.57,0l16.86,12a.48.48,0,0,1,.2.41l-.88,16.94a.49.49,0,0,1-.24.39L278,88.26A.42.42,0,0,1,277.79,88.33Zm-15-10.42,15,9.39,15.42-9,.85-16.41L277.72,50.2,263,62Z"/><path d="M294.55,61.84a.45.45,0,0,1-.34-.15.47.47,0,0,1,0-.67,148.62,148.62,0,0,1,13.47-11.35.49.49,0,0,1,.67.1.48.48,0,0,1-.1.67,145.26,145.26,0,0,0-13.38,11.27A.46.46,0,0,1,294.55,61.84Z"/><path d="M277.6,49.94a.47.47,0,0,1-.47-.44c-.24-3.9-.37-7.85-.4-11.76a.48.48,0,0,1,.47-.48h0a.47.47,0,0,1,.48.48c0,3.88.16,7.82.4,11.7a.47.47,0,0,1-.45.5Z"/><path d="M277.77,97.46a.47.47,0,0,1-.47-.43,60.77,60.77,0,0,1-.22-9,.46.46,0,0,1,.49-.45.47.47,0,0,1,.46.5,58.91,58.91,0,0,0,.22,8.91.49.49,0,0,1-.43.52Z"/><path d="M305.29,87.9a.48.48,0,0,1-.3-.11L293.6,78.66a.48.48,0,0,1-.07-.67.47.47,0,0,1,.67-.07l11.39,9.13a.48.48,0,0,1,.07.67A.47.47,0,0,1,305.29,87.9Z"/><path d="M262.09,62.3a.53.53,0,0,1-.24-.06l-10.22-5.75a.46.46,0,0,1-.18-.64.47.47,0,0,1,.64-.19l10.23,5.75a.48.48,0,0,1,.18.65A.49.49,0,0,1,262.09,62.3Z"/><path d="M250.4,87.77a.47.47,0,0,1-.32-.83,103.06,103.06,0,0,1,11.82-9.09.48.48,0,0,1,.66.14.46.46,0,0,1-.13.65,101.45,101.45,0,0,0-11.71,9A.51.51,0,0,1,250.4,87.77Z"/><path class="cls-2" d="M306.22,47.71a3.73,3.73,0,1,1,3.83,3.62A3.73,3.73,0,0,1,306.22,47.71Z"/><path d="M310,51.81a4.56,4.56,0,1,1,.11,0Zm0-7.46h-.09a3.26,3.26,0,0,0-2.27,1,3.22,3.22,0,0,0-.89,2.32h0a3.19,3.19,0,0,0,1,2.27,3.25,3.25,0,0,0,5.49-2.45A3.26,3.26,0,0,0,310,44.35Z"/><path class="cls-2" d="M244.33,90.1a3.73,3.73,0,1,1,3.83,3.62A3.74,3.74,0,0,1,244.33,90.1Z"/><path d="M248.06,94.2a4.21,4.21,0,0,1-2.89-1.15A4.21,4.21,0,0,1,251,86.94a4.21,4.21,0,0,1-2.78,7.26Zm0-7.45H248a3.19,3.19,0,0,0-2.27,1,3.24,3.24,0,0,0-.89,2.32h0a3.23,3.23,0,0,0,1,2.28,3.3,3.3,0,0,0,2.33.89,3.25,3.25,0,0,0,2.14-5.61A3.18,3.18,0,0,0,248.06,86.75Z"/><path class="cls-1" d="M243.31,54.4a6.2,6.2,0,1,1,6.34,5.66A6,6,0,0,1,243.31,54.4Z"/><path d="M249.47,60.54a6.83,6.83,0,0,1-4.55-1.71,6.09,6.09,0,0,1-.25-8.94,6.84,6.84,0,0,1,4.65-2,6.32,6.32,0,1,1,.35,12.61Zm.05-11.67h-.17a6,6,0,0,0-4,1.69,5.17,5.17,0,0,0-1.55,3.83h0a5.16,5.16,0,0,0,1.76,3.73,5.91,5.91,0,0,0,4.09,1.46,5.36,5.36,0,1,0-.12-10.71Z"/><path class="cls-1" d="M271.6,103.13a6.19,6.19,0,1,1,6.34,5.66A6,6,0,0,1,271.6,103.13Z"/><path d="M277.76,109.27a6.78,6.78,0,0,1-4.55-1.71,6.07,6.07,0,0,1-.25-8.94,6.83,6.83,0,0,1,4.65-2h.19a6.31,6.31,0,1,1,.15,12.61Zm0-11.66h-.17a5.85,5.85,0,0,0-4,1.69,5.22,5.22,0,0,0-1.56,3.82h0a5.15,5.15,0,0,0,1.77,3.73,5.86,5.86,0,0,0,4.09,1.47,5.36,5.36,0,1,0-.13-10.71Z"/><path d="M266,76.49h0a.48.48,0,0,1-.47-.48l.33-13.41a.48.48,0,1,1,.95,0L266.51,76A.48.48,0,0,1,266,76.49Z"/><path d="M290.26,77h0a.46.46,0,0,1-.46-.48l.1-6.18a.47.47,0,0,1,.48-.46.48.48,0,0,1,.47.48l-.1,6.18A.48.48,0,0,1,290.26,77Z"/><path d="M247.72,58.35a.16.16,0,0,1-.09,0,5.43,5.43,0,0,1-2.2-3.58.16.16,0,0,1,.14-.18.15.15,0,0,1,.18.13,5.08,5.08,0,0,0,2.07,3.37.17.17,0,0,1,0,.23A.16.16,0,0,1,247.72,58.35Z"/><path d="M249.58,58a.16.16,0,0,1-.09,0,5.15,5.15,0,0,1-1.78-1.93.15.15,0,0,1,.06-.22.17.17,0,0,1,.22.07,4.84,4.84,0,0,0,1.67,1.81.15.15,0,0,1,.05.22A.16.16,0,0,1,249.58,58Z"/><path d="M276.48,106.64l-.07,0a4.68,4.68,0,0,1-2.13-2.54.16.16,0,0,1,.09-.2.17.17,0,0,1,.21.1,4.34,4.34,0,0,0,2,2.36.16.16,0,0,1,.06.22A.16.16,0,0,1,276.48,106.64Z"/><polygon class="cls-1" points="325.95 42.22 325.83 108.23 379.77 108.05 379.55 41.87 325.95 42.22"/><path d="M325.83,108.71a.47.47,0,0,1-.33-.14.48.48,0,0,1-.14-.34l.11-66a.48.48,0,0,1,.47-.48l53.61-.35a.42.42,0,0,1,.33.14.53.53,0,0,1,.15.34l.21,66.18a.47.47,0,0,1-.47.47l-53.94.19Zm.59-66-.11,65.06,53-.18-.21-65.22Z"/><path class="cls-2" d="M337.62,35.86a3.53,3.53,0,0,0-2.5,1.32,2.87,2.87,0,0,0-.25,1.33,48.49,48.49,0,0,0,.08,7,4.06,4.06,0,0,0,.79,2.34,1.85,1.85,0,0,0,2.36.41,2.34,2.34,0,0,0,.65-1.9c.07-2.36.13-4.73.2-7.09C339,38.05,338.81,36.5,337.62,35.86Z"/><path d="M337.25,49a2.58,2.58,0,0,1-1.87-.85,4.6,4.6,0,0,1-.91-2.6,50.93,50.93,0,0,1-.08-7.09,3.45,3.45,0,0,1,.32-1.55,3.83,3.83,0,0,1,2.81-1.55.47.47,0,0,1,.33,0c1.1.59,1.63,1.9,1.57,3.87l-.19,7.09a2.86,2.86,0,0,1-.84,2.27A1.85,1.85,0,0,1,337.25,49Zm.29-12.67a2.92,2.92,0,0,0-2,1,2.74,2.74,0,0,0-.2,1.13,50.55,50.55,0,0,0,.08,7,3.61,3.61,0,0,0,.68,2.07,1.38,1.38,0,0,0,1.71.35,1.91,1.91,0,0,0,.46-1.53l.2-7.09C338.52,37.78,338.21,36.82,337.54,36.37Z"/><path class="cls-2" d="M353.94,35.45a3.44,3.44,0,0,0-2.49,1.31,2.92,2.92,0,0,0-.26,1.34,48.37,48.37,0,0,0,.08,7,4,4,0,0,0,.79,2.34,1.85,1.85,0,0,0,2.36.41,2.34,2.34,0,0,0,.65-1.9c.07-2.36.13-4.72.2-7.09C355.31,37.64,355.13,36.08,353.94,35.45Z"/><path d="M353.57,48.62a2.54,2.54,0,0,1-1.86-.85,4.54,4.54,0,0,1-.92-2.6,50.93,50.93,0,0,1-.08-7.09,3.45,3.45,0,0,1,.32-1.55A3.87,3.87,0,0,1,353.85,35a.45.45,0,0,1,.32.05c1.1.59,1.63,1.89,1.58,3.87l-.2,7.09a2.83,2.83,0,0,1-.84,2.26A1.85,1.85,0,0,1,353.57,48.62ZM353.86,36a3,3,0,0,0-2,1,2.74,2.74,0,0,0-.2,1.13,50.55,50.55,0,0,0,.08,7,3.82,3.82,0,0,0,.68,2.08,1.41,1.41,0,0,0,1.71.35A2,2,0,0,0,354.6,46l.2-7.09C354.84,37.36,354.53,36.4,353.86,36Z"/><path class="cls-2" d="M369.37,35.65a3.53,3.53,0,0,0-2.5,1.32,2.91,2.91,0,0,0-.25,1.34,48.37,48.37,0,0,0,.08,7,4.06,4.06,0,0,0,.79,2.34,1.85,1.85,0,0,0,2.36.41,2.34,2.34,0,0,0,.65-1.9c.07-2.36.13-4.72.2-7.09C370.73,37.85,370.56,36.29,369.37,35.65Z"/><path d="M369,48.83a2.58,2.58,0,0,1-1.87-.85,4.6,4.6,0,0,1-.91-2.6,50.93,50.93,0,0,1-.08-7.09,3.45,3.45,0,0,1,.32-1.55,3.84,3.84,0,0,1,2.81-1.55.48.48,0,0,1,.33.05c1.1.59,1.63,1.89,1.57,3.87L371,46.2a2.76,2.76,0,0,1-.84,2.26A1.8,1.8,0,0,1,369,48.83Zm.29-12.67a3,3,0,0,0-2,1,2.74,2.74,0,0,0-.2,1.13,50.55,50.55,0,0,0,.08,7,3.61,3.61,0,0,0,.68,2.07,1.4,1.4,0,0,0,1.71.36,2,2,0,0,0,.46-1.54l.2-7.09C370.27,37.57,370,36.61,369.29,36.16Z"/><path d="M335.1,57a.48.48,0,0,1,0-1c11.4-.58,23-.87,34.37-.87h.64a.48.48,0,0,1,.48.47.49.49,0,0,1-.48.48h0c-11.62,0-23.37.28-35,.87Z"/><path d="M343.71,68.64q-4.5,0-9-.08a.49.49,0,0,1-.47-.49.48.48,0,0,1,.48-.47h0c11.75.23,23.66,0,35.4-.66a.47.47,0,0,1,.5.44.49.49,0,0,1-.45.51C361.43,68.39,352.55,68.64,343.71,68.64Z"/><path d="M339.15,80.79H334.9a.48.48,0,0,1-.47-.48.48.48,0,0,1,.47-.48h0c11.76.08,23.69-.15,35.44-.69a.48.48,0,1,1,0,1C360,80.55,349.55,80.79,339.15,80.79Z"/><path d="M338,93.51h-3.53A.47.47,0,0,1,334,93a.48.48,0,0,1,.48-.47h0c11.92.07,24-.21,35.87-.83a.48.48,0,1,1,.05,1C359.65,93.23,348.77,93.51,338,93.51Z"/></svg>